<?xml version="1.0" encoding="utf-8" standalone="no"?>
<!DOCTYPE svg PUBLIC "-//W3C//DTD SVG 1.1//EN"
  "http://www.w3.org/Graphics/SVG/1.1/DTD/svg11.dtd">
<svg xmlns:xlink="http://www.w3.org/1999/xlink" width="525.16125pt" height="335.08125pt" viewBox="0 0 525.16125 335.08125" xmlns="http://www.w3.org/2000/svg" version="1.1">
 <metadata>
  <rdf:RDF xmlns:dc="http://purl.org/dc/elements/1.1/" xmlns:cc="http://creativecommons.org/ns#" xmlns:rdf="http://www.w3.org/1999/02/22-rdf-syntax-ns#">
   <cc:Work>
    <dc:type rdf:resource="http://purl.org/dc/dcmitype/StillImage"/>
    <dc:date>2026-08-14T00:28:53.258696</dc:date>
    <dc:format>image/svg+xml</dc:format>
    <dc:creator>
     <cc:Agent>
      <dc:title>Matplotlib v3.7.0, https://matplotlib.org/</dc:title>
     </cc:Agent>
    </dc:creator>
   </cc:Work>
  </rdf:RDF>
 </metadata>
 <defs>
  <style type="text/css">*{stroke-linejoin: round; stroke-linecap: butt}</style>
 </defs>
 <g id="figure_1">
  <g id="patch_1">
   <path d="M 0 335.08125 
L 525.16125 335.08125 
L 525.16125 0 
L 0 0 
z
" style="fill: #ffffff"/>
  </g>
  <g id="axes_1">
   <g id="patch_2">
    <path d="M 44.01875 297.3625 
L 517.96125 297.3625 
L 517.96125 7.2 
L 44.01875 7.2 
z
" style="fill: #ffffff"/>
   </g>
   <g id="matplotlib.axis_1">
    <g id="xtick_1">
     <g id="line2d_1">
      <path d="M 68.323494 297.3625 
L 68.323494 7.2 
" clip-path="url(#p1da563af96)" style="fill: none; stroke: #d1d5db; stroke-width: 0.7; stroke-linecap: square"/>
     </g>
     <g id="line2d_2">
      <defs>
       <path id="m53091b159c" d="M 0 0 
L 0 3.5 
" style="stroke: #000000; stroke-width: 0.8"/>
      </defs>
      <g>
       <use xlink:href="#m53091b159c" x="68.323494" y="297.3625" style="stroke: #000000; stroke-width: 0.8"/>
      </g>
     </g>
     <g id="text_1">
      <text style="font: 10px 'Hiragino Sans', 'Hiragino Kaku Gothic Pro', 'Arial Unicode MS', 'DejaVu Sans', sans-serif; text-anchor: middle" x="68.323494" y="312.071875" transform="rotate(-0 68.323494 312.071875)">15</text>
     </g>
    </g>
    <g id="xtick_2">
     <g id="line2d_3">
      <path d="M 129.085353 297.3625 
L 129.085353 7.2 
" clip-path="url(#p1da563af96)" style="fill: none; stroke: #d1d5db; stroke-width: 0.7; stroke-linecap: square"/>
     </g>
     <g id="line2d_4">
      <g>
       <use xlink:href="#m53091b159c" x="129.085353" y="297.3625" style="stroke: #000000; stroke-width: 0.8"/>
      </g>
     </g>
     <g id="text_2">
      <text style="font: 10px 'Hiragino Sans', 'Hiragino Kaku Gothic Pro', 'Arial Unicode MS', 'DejaVu Sans', sans-serif; text-anchor: middle" x="129.085353" y="312.071875" transform="rotate(-0 129.085353 312.071875)">20</text>
     </g>
    </g>
    <g id="xtick_3">
     <g id="line2d_5">
      <path d="M 189.847212 297.3625 
L 189.847212 7.2 
" clip-path="url(#p1da563af96)" style="fill: none; stroke: #d1d5db; stroke-width: 0.7; stroke-linecap: square"/>
     </g>
     <g id="line2d_6">
      <g>
       <use xlink:href="#m53091b159c" x="189.847212" y="297.3625" style="stroke: #000000; stroke-width: 0.8"/>
      </g>
     </g>
     <g id="text_3">
      <text style="font: 10px 'Hiragino Sans', 'Hiragino Kaku Gothic Pro', 'Arial Unicode MS', 'DejaVu Sans', sans-serif; text-anchor: middle" x="189.847212" y="312.071875" transform="rotate(-0 189.847212 312.071875)">25</text>
     </g>
    </g>
    <g id="xtick_4">
     <g id="line2d_7">
      <path d="M 250.609071 297.3625 
L 250.609071 7.2 
" clip-path="url(#p1da563af96)" style="fill: none; stroke: #d1d5db; stroke-width: 0.7; stroke-linecap: square"/>
     </g>
     <g id="line2d_8">
      <g>
       <use xlink:href="#m53091b159c" x="250.609071" y="297.3625" style="stroke: #000000; stroke-width: 0.8"/>
      </g>
     </g>
     <g id="text_4">
      <text style="font: 10px 'Hiragino Sans', 'Hiragino Kaku Gothic Pro', 'Arial Unicode MS', 'DejaVu Sans', sans-serif; text-anchor: middle" x="250.609071" y="312.071875" transform="rotate(-0 250.609071 312.071875)">30</text>
     </g>
    </g>
    <g id="xtick_5">
     <g id="line2d_9">
      <path d="M 311.370929 297.3625 
L 311.370929 7.2 
" clip-path="url(#p1da563af96)" style="fill: none; stroke: #d1d5db; stroke-width: 0.7; stroke-linecap: square"/>
     </g>
     <g id="line2d_10">
      <g>
       <use xlink:href="#m53091b159c" x="311.370929" y="297.3625" style="stroke: #000000; stroke-width: 0.8"/>
      </g>
     </g>
     <g id="text_5">
      <text style="font: 10px 'Hiragino Sans', 'Hiragino Kaku Gothic Pro', 'Arial Unicode MS', 'DejaVu Sans', sans-serif; text-anchor: middle" x="311.370929" y="312.071875" transform="rotate(-0 311.370929 312.071875)">35</text>
     </g>
    </g>
    <g id="xtick_6">
     <g id="line2d_11">
      <path d="M 372.132788 297.3625 
L 372.132788 7.2 
" clip-path="url(#p1da563af96)" style="fill: none; stroke: #d1d5db; stroke-width: 0.7; stroke-linecap: square"/>
     </g>
     <g id="line2d_12">
      <g>
       <use xlink:href="#m53091b159c" x="372.132788" y="297.3625" style="stroke: #000000; stroke-width: 0.8"/>
      </g>
     </g>
     <g id="text_6">
      <text style="font: 10px 'Hiragino Sans', 'Hiragino Kaku Gothic Pro', 'Arial Unicode MS', 'DejaVu Sans', sans-serif; text-anchor: middle" x="372.132788" y="312.071875" transform="rotate(-0 372.132788 312.071875)">40</text>
     </g>
    </g>
    <g id="xtick_7">
     <g id="line2d_13">
      <path d="M 432.894647 297.3625 
L 432.894647 7.2 
" clip-path="url(#p1da563af96)" style="fill: none; stroke: #d1d5db; stroke-width: 0.7; stroke-linecap: square"/>
     </g>
     <g id="line2d_14">
      <g>
       <use xlink:href="#m53091b159c" x="432.894647" y="297.3625" style="stroke: #000000; stroke-width: 0.8"/>
      </g>
     </g>
     <g id="text_7">
      <text style="font: 10px 'Hiragino Sans', 'Hiragino Kaku Gothic Pro', 'Arial Unicode MS', 'DejaVu Sans', sans-serif; text-anchor: middle" x="432.894647" y="312.071875" transform="rotate(-0 432.894647 312.071875)">45</text>
     </g>
    </g>
    <g id="xtick_8">
     <g id="line2d_15">
      <path d="M 493.656506 297.3625 
L 493.656506 7.2 
" clip-path="url(#p1da563af96)" style="fill: none; stroke: #d1d5db; stroke-width: 0.7; stroke-linecap: square"/>
     </g>
     <g id="line2d_16">
      <g>
       <use xlink:href="#m53091b159c" x="493.656506" y="297.3625" style="stroke: #000000; stroke-width: 0.8"/>
      </g>
     </g>
     <g id="text_8">
      <text style="font: 10px 'Hiragino Sans', 'Hiragino Kaku Gothic Pro', 'Arial Unicode MS', 'DejaVu Sans', sans-serif; text-anchor: middle" x="493.656506" y="312.071875" transform="rotate(-0 493.656506 312.071875)">50</text>
     </g>
    </g>
    <g id="text_9">
     <!-- Distance limit $D$ (km) -->
     <g transform="translate(228.19 325.83125)">
      <text>
       <tspan style="font: 10px 'Hiragino Sans'" x="0 7.709991 10.189987 15.719971 19.769958 25.689941 32.029922 37.939911 43.9599 47.289886 49.719879 52.199875 61.739853 64.219849 68.269836 79.300018 82.630005 86.330002 92.289993 101.829971" y="-0.15625">Distance limit  (km)</tspan>
       <tspan style="font: oblique 10px 'DejaVu Sans'" x="71.599823" y="-0.15625">D</tspan>
      </text>
     </g>
    </g>
   </g>
   <g id="matplotlib.axis_2">
    <g id="ytick_1">
     <g id="line2d_17">
      <path d="M 44.01875 297.3625 
L 517.96125 297.3625 
" clip-path="url(#p1da563af96)" style="fill: none; stroke: #d1d5db; stroke-width: 0.7; stroke-linecap: square"/>
     </g>
     <g id="line2d_18">
      <defs>
       <path id="mbf342e53de" d="M 0 0 
L -3.5 0 
" style="stroke: #000000; stroke-width: 0.8"/>
      </defs>
      <g>
       <use xlink:href="#mbf342e53de" x="44.01875" y="297.3625" style="stroke: #000000; stroke-width: 0.8"/>
      </g>
     </g>
     <g id="text_10">
      <text style="font: 10px 'Hiragino Sans', 'Hiragino Kaku Gothic Pro', 'Arial Unicode MS', 'DejaVu Sans', sans-serif; text-anchor: end" x="37.01875" y="301.217187" transform="rotate(-0 37.01875 301.217187)">0.0</text>
     </g>
    </g>
    <g id="ytick_2">
     <g id="line2d_19">
      <path d="M 44.01875 242.781091 
L 517.96125 242.781091 
" clip-path="url(#p1da563af96)" style="fill: none; stroke: #d1d5db; stroke-width: 0.7; stroke-linecap: square"/>
     </g>
     <g id="line2d_20">
      <g>
       <use xlink:href="#mbf342e53de" x="44.01875" y="242.781091" style="stroke: #000000; stroke-width: 0.8"/>
      </g>
     </g>
     <g id="text_11">
      <text style="font: 10px 'Hiragino Sans', 'Hiragino Kaku Gothic Pro', 'Arial Unicode MS', 'DejaVu Sans', sans-serif; text-anchor: end" x="37.01875" y="246.635778" transform="rotate(-0 37.01875 246.635778)">0.5</text>
     </g>
    </g>
    <g id="ytick_3">
     <g id="line2d_21">
      <path d="M 44.01875 188.199681 
L 517.96125 188.199681 
" clip-path="url(#p1da563af96)" style="fill: none; stroke: #d1d5db; stroke-width: 0.7; stroke-linecap: square"/>
     </g>
     <g id="line2d_22">
      <g>
       <use xlink:href="#mbf342e53de" x="44.01875" y="188.199681" style="stroke: #000000; stroke-width: 0.8"/>
      </g>
     </g>
     <g id="text_12">
      <text style="font: 10px 'Hiragino Sans', 'Hiragino Kaku Gothic Pro', 'Arial Unicode MS', 'DejaVu Sans', sans-serif; text-anchor: end" x="37.01875" y="192.054369" transform="rotate(-0 37.01875 192.054369)">1.0</text>
     </g>
    </g>
    <g id="ytick_4">
     <g id="line2d_23">
      <path d="M 44.01875 133.618272 
L 517.96125 133.618272 
" clip-path="url(#p1da563af96)" style="fill: none; stroke: #d1d5db; stroke-width: 0.7; stroke-linecap: square"/>
     </g>
     <g id="line2d_24">
      <g>
       <use xlink:href="#mbf342e53de" x="44.01875" y="133.618272" style="stroke: #000000; stroke-width: 0.8"/>
      </g>
     </g>
     <g id="text_13">
      <text style="font: 10px 'Hiragino Sans', 'Hiragino Kaku Gothic Pro', 'Arial Unicode MS', 'DejaVu Sans', sans-serif; text-anchor: end" x="37.01875" y="137.472959" transform="rotate(-0 37.01875 137.472959)">1.5</text>
     </g>
    </g>
    <g id="ytick_5">
     <g id="line2d_25">
      <path d="M 44.01875 79.036862 
L 517.96125 79.036862 
" clip-path="url(#p1da563af96)" style="fill: none; stroke: #d1d5db; stroke-width: 0.7; stroke-linecap: square"/>
     </g>
     <g id="line2d_26">
      <g>
       <use xlink:href="#mbf342e53de" x="44.01875" y="79.036862" style="stroke: #000000; stroke-width: 0.8"/>
      </g>
     </g>
     <g id="text_14">
      <text style="font: 10px 'Hiragino Sans', 'Hiragino Kaku Gothic Pro', 'Arial Unicode MS', 'DejaVu Sans', sans-serif; text-anchor: end" x="37.01875" y="82.89155" transform="rotate(-0 37.01875 82.89155)">2.0</text>
     </g>
    </g>
    <g id="ytick_6">
     <g id="line2d_27">
      <path d="M 44.01875 24.455453 
L 517.96125 24.455453 
" clip-path="url(#p1da563af96)" style="fill: none; stroke: #d1d5db; stroke-width: 0.7; stroke-linecap: square"/>
     </g>
     <g id="line2d_28">
      <g>
       <use xlink:href="#mbf342e53de" x="44.01875" y="24.455453" style="stroke: #000000; stroke-width: 0.8"/>
      </g>
     </g>
     <g id="text_15">
      <text style="font: 10px 'Hiragino Sans', 'Hiragino Kaku Gothic Pro', 'Arial Unicode MS', 'DejaVu Sans', sans-serif; text-anchor: end" x="37.01875" y="28.31014" transform="rotate(-0 37.01875 28.31014)">2.5</text>
     </g>
    </g>
    <g id="text_16">
     <text style="font: 10px 'Hiragino Sans', 'Hiragino Kaku Gothic Pro', 'Arial Unicode MS', 'DejaVu Sans', sans-serif; text-anchor: middle" x="15.009375" y="152.28125" transform="rotate(-90 15.009375 152.28125)">Expected annual number of contracts</text>
    </g>
   </g>
   <g id="line2d_29">
    <path d="M 44.01875 14.814076 
L 517.96125 14.814076 
" clip-path="url(#p1da563af96)" style="fill: none; stroke-dasharray: 5.18,2.24; stroke-dashoffset: 0; stroke: #333333; stroke-width: 1.4"/>
   </g>
   <g id="line2d_30">
    <path d="M 372.132788 167.095591 
L 432.894647 167.095591 
L 493.656506 167.095591 
" clip-path="url(#p1da563af96)" style="fill: none; stroke: #6b7280; stroke-width: 1.8; stroke-linecap: square"/>
    <defs>
     <path id="m03f59f4a53" d="M 0 2.5 
C 0.663008 2.5 1.29895 2.236584 1.767767 1.767767 
C 2.236584 1.29895 2.5 0.663008 2.5 0 
C 2.5 -0.663008 2.236584 -1.29895 1.767767 -1.767767 
C 1.29895 -2.236584 0.663008 -2.5 0 -2.5 
C -0.663008 -2.5 -1.29895 -2.236584 -1.767767 -1.767767 
C -2.236584 -1.29895 -2.5 -0.663008 -2.5 0 
C -2.5 0.663008 -2.236584 1.29895 -1.767767 1.767767 
C -1.29895 2.236584 -0.663008 2.5 0 2.5 
z
" style="stroke: #6b7280"/>
    </defs>
    <g clip-path="url(#p1da563af96)">
     <use xlink:href="#m03f59f4a53" x="372.132788" y="167.095591" style="fill: #6b7280; stroke: #6b7280"/>
     <use xlink:href="#m03f59f4a53" x="432.894647" y="167.095591" style="fill: #6b7280; stroke: #6b7280"/>
     <use xlink:href="#m03f59f4a53" x="493.656506" y="167.095591" style="fill: #6b7280; stroke: #6b7280"/>
    </g>
   </g>
   <g id="line2d_31">
    <path d="M 250.609071 118.963675 
L 311.370929 150.364024 
L 372.132788 165.990528 
L 432.894647 165.990528 
L 493.656506 165.990528 
" clip-path="url(#p1da563af96)" style="fill: none; stroke: #4c6fb1; stroke-width: 1.8; stroke-linecap: square"/>
    <defs>
     <path id="m06c57bd284" d="M 0 2.5 
C 0.663008 2.5 1.29895 2.236584 1.767767 1.767767 
C 2.236584 1.29895 2.5 0.663008 2.5 0 
C 2.5 -0.663008 2.236584 -1.29895 1.767767 -1.767767 
C 1.29895 -2.236584 0.663008 -2.5 0 -2.5 
C -0.663008 -2.5 -1.29895 -2.236584 -1.767767 -1.767767 
C -2.236584 -1.29895 -2.5 -0.663008 -2.5 0 
C -2.5 0.663008 -2.236584 1.29895 -1.767767 1.767767 
C -1.29895 2.236584 -0.663008 2.5 0 2.5 
z
" style="stroke: #4c6fb1"/>
    </defs>
    <g clip-path="url(#p1da563af96)">
     <use xlink:href="#m06c57bd284" x="250.609071" y="118.963675" style="fill: #4c6fb1; stroke: #4c6fb1"/>
     <use xlink:href="#m06c57bd284" x="311.370929" y="150.364024" style="fill: #4c6fb1; stroke: #4c6fb1"/>
     <use xlink:href="#m06c57bd284" x="372.132788" y="165.990528" style="fill: #4c6fb1; stroke: #4c6fb1"/>
     <use xlink:href="#m06c57bd284" x="432.894647" y="165.990528" style="fill: #4c6fb1; stroke: #4c6fb1"/>
     <use xlink:href="#m06c57bd284" x="493.656506" y="165.990528" style="fill: #4c6fb1; stroke: #4c6fb1"/>
    </g>
   </g>
   <g id="line2d_32">
    <path d="M 189.847212 126.233125 
L 250.609071 142.767367 
L 311.370929 159.594496 
L 372.132788 164.884968 
L 432.894647 164.884968 
L 493.656506 164.884968 
" clip-path="url(#p1da563af96)" style="fill: none; stroke: #238b8e; stroke-width: 1.8; stroke-linecap: square"/>
    <defs>
     <path id="m265637b4a5" d="M 0 2.5 
C 0.663008 2.5 1.29895 2.236584 1.767767 1.767767 
C 2.236584 1.29895 2.5 0.663008 2.5 0 
C 2.5 -0.663008 2.236584 -1.29895 1.767767 -1.767767 
C 1.29895 -2.236584 0.663008 -2.5 0 -2.5 
C -0.663008 -2.5 -1.29895 -2.236584 -1.767767 -1.767767 
C -2.236584 -1.29895 -2.5 -0.663008 -2.5 0 
C -2.5 0.663008 -2.236584 1.29895 -1.767767 1.767767 
C -1.29895 2.236584 -0.663008 2.5 0 2.5 
z
" style="stroke: #238b8e"/>
    </defs>
    <g clip-path="url(#p1da563af96)">
     <use xlink:href="#m265637b4a5" x="189.847212" y="126.233125" style="fill: #238b8e; stroke: #238b8e"/>
     <use xlink:href="#m265637b4a5" x="250.609071" y="142.767367" style="fill: #238b8e; stroke: #238b8e"/>
     <use xlink:href="#m265637b4a5" x="311.370929" y="159.594496" style="fill: #238b8e; stroke: #238b8e"/>
     <use xlink:href="#m265637b4a5" x="372.132788" y="164.884968" style="fill: #238b8e; stroke: #238b8e"/>
     <use xlink:href="#m265637b4a5" x="432.894647" y="164.884968" style="fill: #238b8e; stroke: #238b8e"/>
     <use xlink:href="#m265637b4a5" x="493.656506" y="164.884968" style="fill: #238b8e; stroke: #238b8e"/>
    </g>
   </g>
   <g id="line2d_33">
    <path d="M 129.085353 98.483603 
L 189.847212 126.090926 
L 250.609071 142.655409 
L 311.370929 159.513541 
L 372.132788 163.778908 
L 432.894647 163.778908 
L 493.656506 163.778908 
" clip-path="url(#p1da563af96)" style="fill: none; stroke: #cc6c3b; stroke-width: 1.8; stroke-linecap: square"/>
    <defs>
     <path id="m8b08bb989d" d="M 0 2.5 
C 0.663008 2.5 1.29895 2.236584 1.767767 1.767767 
C 2.236584 1.29895 2.5 0.663008 2.5 0 
C 2.5 -0.663008 2.236584 -1.29895 1.767767 -1.767767 
C 1.29895 -2.236584 0.663008 -2.5 0 -2.5 
C -0.663008 -2.5 -1.29895 -2.236584 -1.767767 -1.767767 
C -2.236584 -1.29895 -2.5 -0.663008 -2.5 0 
C -2.5 0.663008 -2.236584 1.29895 -1.767767 1.767767 
C -1.29895 2.236584 -0.663008 2.5 0 2.5 
z
" style="stroke: #cc6c3b"/>
    </defs>
    <g clip-path="url(#p1da563af96)">
     <use xlink:href="#m8b08bb989d" x="129.085353" y="98.483603" style="fill: #cc6c3b; stroke: #cc6c3b"/>
     <use xlink:href="#m8b08bb989d" x="189.847212" y="126.090926" style="fill: #cc6c3b; stroke: #cc6c3b"/>
     <use xlink:href="#m8b08bb989d" x="250.609071" y="142.655409" style="fill: #cc6c3b; stroke: #cc6c3b"/>
     <use xlink:href="#m8b08bb989d" x="311.370929" y="159.513541" style="fill: #cc6c3b; stroke: #cc6c3b"/>
     <use xlink:href="#m8b08bb989d" x="372.132788" y="163.778908" style="fill: #cc6c3b; stroke: #cc6c3b"/>
     <use xlink:href="#m8b08bb989d" x="432.894647" y="163.778908" style="fill: #cc6c3b; stroke: #cc6c3b"/>
     <use xlink:href="#m8b08bb989d" x="493.656506" y="163.778908" style="fill: #cc6c3b; stroke: #cc6c3b"/>
    </g>
   </g>
   <g id="line2d_34">
    <path d="M 129.085353 101.831564 
L 189.847212 125.963753 
L 250.609071 142.558857 
L 311.370929 159.448377 
L 372.132788 162.672345 
L 432.894647 162.672345 
L 493.656506 162.672345 
" clip-path="url(#p1da563af96)" style="fill: none; stroke: #7a4e9e; stroke-width: 1.8; stroke-linecap: square"/>
    <defs>
     <path id="m9fcd6d5361" d="M 0 2.5 
C 0.663008 2.5 1.29895 2.236584 1.767767 1.767767 
C 2.236584 1.29895 2.5 0.663008 2.5 0 
C 2.5 -0.663008 2.236584 -1.29895 1.767767 -1.767767 
C 1.29895 -2.236584 0.663008 -2.5 0 -2.5 
C -0.663008 -2.5 -1.29895 -2.236584 -1.767767 -1.767767 
C -2.236584 -1.29895 -2.5 -0.663008 -2.5 0 
C -2.5 0.663008 -2.236584 1.29895 -1.767767 1.767767 
C -1.29895 2.236584 -0.663008 2.5 0 2.5 
z
" style="stroke: #7a4e9e"/>
    </defs>
    <g clip-path="url(#p1da563af96)">
     <use xlink:href="#m9fcd6d5361" x="129.085353" y="101.831564" style="fill: #7a4e9e; stroke: #7a4e9e"/>
     <use xlink:href="#m9fcd6d5361" x="189.847212" y="125.963753" style="fill: #7a4e9e; stroke: #7a4e9e"/>
     <use xlink:href="#m9fcd6d5361" x="250.609071" y="142.558857" style="fill: #7a4e9e; stroke: #7a4e9e"/>
     <use xlink:href="#m9fcd6d5361" x="311.370929" y="159.448377" style="fill: #7a4e9e; stroke: #7a4e9e"/>
     <use xlink:href="#m9fcd6d5361" x="372.132788" y="162.672345" style="fill: #7a4e9e; stroke: #7a4e9e"/>
     <use xlink:href="#m9fcd6d5361" x="432.894647" y="162.672345" style="fill: #7a4e9e; stroke: #7a4e9e"/>
     <use xlink:href="#m9fcd6d5361" x="493.656506" y="162.672345" style="fill: #7a4e9e; stroke: #7a4e9e"/>
    </g>
   </g>
   <g id="line2d_35">
    <path d="M 68.323494 69.526039 
L 129.085353 101.782389 
L 189.847212 125.851795 
L 250.609071 142.477901 
L 311.370929 159.399202 
L 372.132788 161.565278 
L 432.894647 161.565278 
L 493.656506 161.565278 
" clip-path="url(#p1da563af96)" style="fill: none; stroke: #b0435b; stroke-width: 1.8; stroke-linecap: square"/>
    <defs>
     <path id="me31236e62e" d="M 0 2.5 
C 0.663008 2.5 1.29895 2.236584 1.767767 1.767767 
C 2.236584 1.29895 2.5 0.663008 2.5 0 
C 2.5 -0.663008 2.236584 -1.29895 1.767767 -1.767767 
C 1.29895 -2.236584 0.663008 -2.5 0 -2.5 
C -0.663008 -2.5 -1.29895 -2.236584 -1.767767 -1.767767 
C -2.236584 -1.29895 -2.5 -0.663008 -2.5 0 
C -2.5 0.663008 -2.236584 1.29895 -1.767767 1.767767 
C -1.29895 2.236584 -0.663008 2.5 0 2.5 
z
" style="stroke: #b0435b"/>
    </defs>
    <g clip-path="url(#p1da563af96)">
     <use xlink:href="#me31236e62e" x="68.323494" y="69.526039" style="fill: #b0435b; stroke: #b0435b"/>
     <use xlink:href="#me31236e62e" x="129.085353" y="101.782389" style="fill: #b0435b; stroke: #b0435b"/>
     <use xlink:href="#me31236e62e" x="189.847212" y="125.851795" style="fill: #b0435b; stroke: #b0435b"/>
     <use xlink:href="#me31236e62e" x="250.609071" y="142.477901" style="fill: #b0435b; stroke: #b0435b"/>
     <use xlink:href="#me31236e62e" x="311.370929" y="159.399202" style="fill: #b0435b; stroke: #b0435b"/>
     <use xlink:href="#me31236e62e" x="372.132788" y="161.565278" style="fill: #b0435b; stroke: #b0435b"/>
     <use xlink:href="#me31236e62e" x="432.894647" y="161.565278" style="fill: #b0435b; stroke: #b0435b"/>
     <use xlink:href="#me31236e62e" x="493.656506" y="161.565278" style="fill: #b0435b; stroke: #b0435b"/>
    </g>
   </g>
   <g id="patch_3">
    <path d="M 44.01875 297.3625 
L 44.01875 7.2 
" style="fill: none; stroke: #000000; stroke-width: 0.8; stroke-linejoin: miter; stroke-linecap: square"/>
   </g>
   <g id="patch_4">
    <path d="M 517.96125 297.3625 
L 517.96125 7.2 
" style="fill: none; stroke: #000000; stroke-width: 0.8; stroke-linejoin: miter; stroke-linecap: square"/>
   </g>
   <g id="patch_5">
    <path d="M 44.01875 297.3625 
L 517.96125 297.3625 
" style="fill: none; stroke: #000000; stroke-width: 0.8; stroke-linejoin: miter; stroke-linecap: square"/>
   </g>
   <g id="patch_6">
    <path d="M 44.01875 7.2 
L 517.96125 7.2 
" style="fill: none; stroke: #000000; stroke-width: 0.8; stroke-linejoin: miter; stroke-linecap: square"/>
   </g>
   <g id="legend_1">
    <g id="line2d_36">
     <path d="M 52.11875 244.398906 
L 61.11875 244.398906 
L 70.11875 244.398906 
" style="fill: none; stroke-dasharray: 5.18,2.24; stroke-dashoffset: 0; stroke: #333333; stroke-width: 1.4"/>
    </g>
    <g id="text_17">
     <text style="font: 9px 'Hiragino Sans', 'Hiragino Kaku Gothic Pro', 'Arial Unicode MS', 'DejaVu Sans', sans-serif; text-anchor: start" x="77.31875" y="247.548906" transform="rotate(-0 77.31875 247.548906)">Current management (2.588)</text>
    </g>
    <g id="line2d_37">
     <path d="M 52.11875 257.700625 
L 61.11875 257.700625 
L 70.11875 257.700625 
" style="fill: none; stroke: #6b7280; stroke-width: 1.8; stroke-linecap: square"/>
     <g>
      <use xlink:href="#m03f59f4a53" x="61.11875" y="257.700625" style="fill: #6b7280; stroke: #6b7280"/>
     </g>
    </g>
    <g id="text_18">
     <!-- $M = 1$ -->
     <g transform="translate(77.31875 260.850625)">
      <text>
       <tspan style="font: oblique 9px 'DejaVu Sans'" x="0" y="-0.4375">M</tspan>
       <tspan style="font: 9px 'DejaVu Sans'" x="9.518555 18.812988" y="-0.4375">=1</tspan>
      </text>
     </g>
    </g>
    <g id="line2d_38">
     <path d="M 52.11875 270.984062 
L 61.11875 270.984062 
L 70.11875 270.984062 
" style="fill: none; stroke: #4c6fb1; stroke-width: 1.8; stroke-linecap: square"/>
     <g>
      <use xlink:href="#m06c57bd284" x="61.11875" y="270.984062" style="fill: #4c6fb1; stroke: #4c6fb1"/>
     </g>
    </g>
    <g id="text_19">
     <!-- $M = 2$ -->
     <g transform="translate(77.31875 274.134062)">
      <text>
       <tspan style="font: oblique 9px 'DejaVu Sans'" x="0" y="-0.3125">M</tspan>
       <tspan style="font: 9px 'DejaVu Sans'" x="9.518555 18.812988" y="-0.3125">=2</tspan>
      </text>
     </g>
    </g>
    <g id="line2d_39">
     <path d="M 52.11875 284.2675 
L 61.11875 284.2675 
L 70.11875 284.2675 
" style="fill: none; stroke: #238b8e; stroke-width: 1.8; stroke-linecap: square"/>
     <g>
      <use xlink:href="#m265637b4a5" x="61.11875" y="284.2675" style="fill: #238b8e; stroke: #238b8e"/>
     </g>
    </g>
    <g id="text_20">
     <!-- $M = 3$ -->
     <g transform="translate(77.31875 287.4175)">
      <text>
       <tspan style="font: oblique 9px 'DejaVu Sans'" x="0" y="-0.3125">M</tspan>
       <tspan style="font: 9px 'DejaVu Sans'" x="9.518555 18.812988" y="-0.3125">=3</tspan>
      </text>
     </g>
    </g>
    <g id="line2d_40">
     <path d="M 229.466562 244.398906 
L 238.466562 244.398906 
L 247.466562 244.398906 
" style="fill: none; stroke: #cc6c3b; stroke-width: 1.8; stroke-linecap: square"/>
     <g>
      <use xlink:href="#m8b08bb989d" x="238.466562" y="244.398906" style="fill: #cc6c3b; stroke: #cc6c3b"/>
     </g>
    </g>
    <g id="text_21">
     <!-- $M = 4$ -->
     <g transform="translate(254.666562 247.548906)">
      <text>
       <tspan style="font: oblique 9px 'DejaVu Sans'" x="0" y="-0.4375">M</tspan>
       <tspan style="font: 9px 'DejaVu Sans'" x="9.518555 18.812988" y="-0.4375">=4</tspan>
      </text>
     </g>
    </g>
    <g id="line2d_41">
     <path d="M 229.466562 257.682344 
L 238.466562 257.682344 
L 247.466562 257.682344 
" style="fill: none; stroke: #7a4e9e; stroke-width: 1.8; stroke-linecap: square"/>
     <g>
      <use xlink:href="#m9fcd6d5361" x="238.466562" y="257.682344" style="fill: #7a4e9e; stroke: #7a4e9e"/>
     </g>
    </g>
    <g id="text_22">
     <!-- $M = 5$ -->
     <g transform="translate(254.666562 260.832344)">
      <text>
       <tspan style="font: oblique 9px 'DejaVu Sans'" x="0" y="-0.4375">M</tspan>
       <tspan style="font: 9px 'DejaVu Sans'" x="9.518555 18.812988" y="-0.4375">=5</tspan>
      </text>
     </g>
    </g>
    <g id="line2d_42">
     <path d="M 229.466562 270.965781 
L 238.466562 270.965781 
L 247.466562 270.965781 
" style="fill: none; stroke: #b0435b; stroke-width: 1.8; stroke-linecap: square"/>
     <g>
      <use xlink:href="#me31236e62e" x="238.466562" y="270.965781" style="fill: #b0435b; stroke: #b0435b"/>
     </g>
    </g>
    <g id="text_23">
     <!-- $M = 6$ -->
     <g transform="translate(254.666562 274.115781)">
      <text>
       <tspan style="font: oblique 9px 'DejaVu Sans'" x="0" y="-0.3125">M</tspan>
       <tspan style="font: 9px 'DejaVu Sans'" x="9.518555 18.812988" y="-0.3125">=6</tspan>
      </text>
     </g>
    </g>
   </g>
  </g>
 </g>
 <defs>
  <clipPath id="p1da563af96">
   <rect x="44.01875" y="7.2" width="473.9425" height="290.1625"/>
  </clipPath>
 </defs>
</svg>
