<svg xmlns="http://www.w3.org/2000/svg" width="760" height="480" viewBox="0 0 760 480">
<rect width="100%" height="100%" fill="white" />
<style>text{font-family:Arial, sans-serif;font-size:13px;fill:#222}</style>
<line x1="76" y1="32" x2="76" y2="416.00" stroke="#222" />
<line x1="76" y1="416.00" x2="732" y2="416.00" stroke="#222" />
<line x1="71" y1="416.00" x2="732" y2="416.00" stroke="#ddd" />
<text x="64" y="420.00" text-anchor="end">0.0</text>
<line x1="71" y1="326.74" x2="732" y2="326.74" stroke="#ddd" />
<text x="64" y="330.74" text-anchor="end">0.3</text>
<line x1="71" y1="237.48" x2="732" y2="237.48" stroke="#ddd" />
<text x="64" y="241.48" text-anchor="end">0.6</text>
<line x1="71" y1="148.22" x2="732" y2="148.22" stroke="#ddd" />
<text x="64" y="152.22" text-anchor="end">0.9</text>
<line x1="71" y1="58.95" x2="732" y2="58.95" stroke="#ddd" />
<text x="64" y="62.95" text-anchor="end">1.2</text>
<line x1="76.00" y1="416.00" x2="76.00" y2="421.00" stroke="#222" />
<text x="76.00" y="440.00" text-anchor="middle">1</text>
<line x1="175.83" y1="416.00" x2="175.83" y2="421.00" stroke="#222" />
<text x="175.83" y="440.00" text-anchor="middle">50</text>
<line x1="277.69" y1="416.00" x2="277.69" y2="421.00" stroke="#222" />
<text x="277.69" y="440.00" text-anchor="middle">100</text>
<line x1="379.55" y1="416.00" x2="379.55" y2="421.00" stroke="#222" />
<text x="379.55" y="440.00" text-anchor="middle">150</text>
<line x1="481.42" y1="416.00" x2="481.42" y2="421.00" stroke="#222" />
<text x="481.42" y="440.00" text-anchor="middle">200</text>
<line x1="583.28" y1="416.00" x2="583.28" y2="421.00" stroke="#222" />
<text x="583.28" y="440.00" text-anchor="middle">250</text>
<line x1="732.00" y1="416.00" x2="732.00" y2="421.00" stroke="#222" />
<text x="732.00" y="440.00" text-anchor="middle">323</text>
<polyline points="76.00,412.33 78.04,408.79 80.07,405.24 82.11,401.82 84.15,398.34 86.19,394.94 88.22,391.68 90.26,388.25 92.30,384.96 94.34,381.81 96.37,378.43 98.41,375.32 100.45,372.35 102.48,369.10 104.52,366.14 106.56,363.08 108.60,360.10 110.63,357.07 112.67,354.26 114.71,351.67 116.75,348.59 118.78,345.95 120.82,342.97 122.86,340.34 124.89,337.73 126.93,334.96 128.97,332.27 131.01,329.91 133.04,327.20 135.08,324.92 137.12,322.10 139.16,319.85 141.19,317.29 143.23,314.62 145.27,312.58 147.30,310.45 149.34,307.95 151.38,305.45 153.42,303.31 155.45,300.90 157.49,298.87 159.53,296.85 161.57,294.75 163.60,292.46 165.64,290.34 167.68,287.93 169.71,286.13 171.75,284.20 173.79,282.26 175.83,280.06 177.86,278.36 179.90,276.38 181.94,274.45 183.98,272.37 186.01,270.50 188.05,268.73 190.09,267.06 192.12,265.12 194.16,263.11 196.20,261.73 198.24,259.97 200.27,258.26 202.31,256.36 204.35,254.70 206.39,253.11 208.42,251.43 210.46,249.96 212.50,248.26 214.53,246.85 216.57,245.33 218.61,243.87 220.65,242.11 222.68,240.54 224.72,239.24 226.76,237.57 228.80,236.20 230.83,234.89 232.87,233.49 234.91,232.01 236.94,230.51 238.98,229.21 241.02,227.80 243.06,226.51 245.09,225.30 247.13,223.78 249.17,222.67 251.20,221.44 253.24,220.18 255.28,218.76 257.32,217.62 259.35,216.63 261.39,215.21 263.43,214.02 265.47,212.67 267.50,211.67 269.54,210.69 271.58,209.38 273.61,208.19 275.65,207.34 277.69,206.04 279.73,205.19 281.76,204.08 283.80,202.87 285.84,201.79 287.88,200.75 289.91,199.62 291.95,198.51 293.99,197.89 296.02,196.82 298.06,195.81 300.10,194.75 302.14,193.85 304.17,192.85 306.21,191.81 308.25,191.02 310.29,190.03 312.32,189.17 314.36,188.14 316.40,187.39 318.43,186.34 320.47,185.48 322.51,184.75 324.55,183.90 326.58,183.13 328.62,182.08 330.66,181.33 332.70,180.33 334.73,179.58 336.77,179.00 338.81,178.04 340.84,177.15 342.88,176.42 344.92,175.50 346.96,174.72 348.99,173.92 351.03,173.32 353.07,172.52 355.11,171.73 357.14,170.95 359.18,170.30 361.22,169.59 363.25,168.67 365.29,167.99 367.33,167.33 369.37,166.65 371.40,165.79 373.44,165.18 375.48,164.47 377.52,163.93 379.55,162.90 381.59,162.57 383.63,161.74 385.66,161.29 387.70,160.31 389.74,159.79 391.78,158.96 393.81,158.67 395.85,157.93 397.89,157.31 399.93,156.53 401.96,155.74 404.00,155.10 406.04,154.55 408.07,154.14 410.11,153.27 412.15,152.90 414.19,152.30 416.22,151.72 418.26,151.06 420.30,150.24 422.34,149.57 424.37,149.08 426.41,148.48 428.45,147.82 430.48,147.38 432.52,146.85 434.56,146.17 436.60,145.56 438.63,145.04 440.67,144.26 442.71,143.81 444.75,143.30 446.78,142.57 448.82,142.18 450.86,141.52 452.89,141.21 454.93,140.43 456.97,139.86 459.01,139.11 461.04,138.69 463.08,138.04 465.12,137.54 467.16,137.10 469.19,136.29 471.23,135.80 473.27,135.45 475.30,134.86 477.34,134.19 479.38,133.73 481.42,133.16 483.45,132.63 485.49,132.08 487.53,131.52 489.57,131.13 491.60,130.31 493.64,129.96 495.68,129.39 497.71,128.82 499.75,128.12 501.79,127.90 503.83,127.11 505.86,126.66 507.90,126.12 509.94,125.82 511.98,125.10 514.01,124.47 516.05,124.11 518.09,123.34 520.12,122.83 522.16,122.32 524.20,121.93 526.24,121.35 528.27,120.67 530.31,120.29 532.35,119.77 534.39,119.25 536.42,118.62 538.46,117.96 540.50,117.56 542.53,116.92 544.57,116.48 546.61,115.87 548.65,115.33 550.68,114.73 552.72,114.25 554.76,113.80 556.80,113.07 558.83,112.69 560.87,112.06 562.91,111.65 564.94,111.14 566.98,110.30 569.02,109.87 571.06,109.40 573.09,108.90 575.13,108.13 577.17,107.71 579.20,107.21 581.24,106.68 583.28,106.19 585.32,105.67 587.35,105.11 589.39,104.22 591.43,103.79 593.47,103.23 595.50,102.91 597.54,102.19 599.58,101.61 601.61,101.16 603.65,100.57 605.69,99.93 607.73,99.24 609.76,98.88 611.80,98.30 613.84,97.89 615.88,97.12 617.91,96.76 619.95,96.14 621.99,95.35 624.02,94.95 626.06,94.50 628.10,93.63 630.14,93.30 632.17,92.37 634.21,91.97 636.25,91.27 638.29,90.84 640.32,90.26 642.36,89.83 644.40,89.07 646.43,88.41 648.47,88.02 650.51,87.26 652.55,86.74 654.58,86.12 656.62,85.42 658.66,84.88 660.70,84.26 662.73,83.66 664.77,83.05 666.81,82.70 668.84,81.82 670.88,81.42 672.92,80.82 674.96,80.03 676.99,79.46 679.03,79.07 681.07,78.13 683.11,77.78 685.14,77.29 687.18,76.52 689.22,76.03 691.25,75.20 693.29,74.68 695.33,74.08 697.37,73.45 699.40,72.85 701.44,72.26 703.48,71.80 705.52,70.91 707.55,70.17 709.59,69.74 711.63,69.04 713.66,68.36 715.70,67.74 717.74,67.30 719.78,66.57 721.81,65.89 723.85,65.33 725.89,64.63 727.93,64.18 729.96,63.48 732.00,62.57" fill="none" stroke="#3b6fb6" stroke-width="2.2" />
<polyline points="76.00,412.33 78.04,408.71 80.07,405.14 82.11,401.61 84.15,398.12 86.19,394.67 88.22,391.27 90.26,387.91 92.30,384.59 94.34,381.31 96.37,378.07 98.41,374.87 100.45,371.71 102.48,368.59 104.52,365.51 106.56,362.47 108.60,359.46 110.63,356.49 112.67,353.56 114.71,350.66 116.75,347.80 118.78,344.98 120.82,342.19 122.86,339.43 124.89,336.71 126.93,334.02 128.97,331.36 131.01,328.74 133.04,326.15 135.08,323.59 137.12,321.06 139.16,318.57 141.19,316.10 143.23,313.67 145.27,311.26 147.30,308.88 149.34,306.54 151.38,304.22 153.42,301.93 155.45,299.67 157.49,297.44 159.53,295.23 161.57,293.05 163.60,290.90 165.64,288.78 167.68,286.68 169.71,284.60 171.75,282.56 173.79,280.53 175.83,278.54 177.86,276.56 179.90,274.61 181.94,272.69 183.98,270.79 186.01,268.91 188.05,267.05 190.09,265.22 192.12,263.41 194.16,261.62 196.20,259.85 198.24,258.11 200.27,256.38 202.31,254.68 204.35,253.00 206.39,251.34 208.42,249.69 210.46,248.07 212.50,246.47 214.53,244.89 216.57,243.32 218.61,241.78 220.65,240.25 222.68,238.74 224.72,237.25 226.76,235.78 228.80,234.33 230.83,232.89 232.87,231.47 234.91,230.07 236.94,228.68 238.98,227.31 241.02,225.96 243.06,224.62 245.09,223.30 247.13,222.00 249.17,220.70 251.20,219.43 253.24,218.17 255.28,216.92 257.32,215.69 259.35,214.47 261.39,213.27 263.43,212.08 265.47,210.91 267.50,209.74 269.54,208.60 271.58,207.46 273.61,206.34 275.65,205.23 277.69,204.13 279.73,203.04 281.76,201.97 283.80,200.91 285.84,199.86 287.88,198.82 289.91,197.80 291.95,196.78 293.99,195.78 296.02,194.78 298.06,193.80 300.10,192.83 302.14,191.87 304.17,190.92 306.21,189.97 308.25,189.04 310.29,188.12 312.32,187.21 314.36,186.30 316.40,185.41 318.43,184.53 320.47,183.65 322.51,182.78 324.55,181.92 326.58,181.07 328.62,180.23 330.66,179.40 332.70,178.57 334.73,177.76 336.77,176.95 338.81,176.14 340.84,175.35 342.88,174.56 344.92,173.78 346.96,173.01 348.99,172.24 351.03,171.48 353.07,170.73 355.11,169.98 357.14,169.24 359.18,168.51 361.22,167.78 363.25,167.06 365.29,166.34 367.33,165.63 369.37,164.93 371.40,164.23 373.44,163.54 375.48,162.85 377.52,162.17 379.55,161.49 381.59,160.81 383.63,160.15 385.66,159.48 387.70,158.82 389.74,158.17 391.78,157.52 393.81,156.87 395.85,156.23 397.89,155.60 399.93,154.96 401.96,154.33 404.00,153.71 406.04,153.09 408.07,152.47 410.11,151.85 412.15,151.24 414.19,150.63 416.22,150.03 418.26,149.43 420.30,148.83 422.34,148.23 424.37,147.64 426.41,147.05 428.45,146.46 430.48,145.88 432.52,145.29 434.56,144.71 436.60,144.14 438.63,143.56 440.67,142.99 442.71,142.42 444.75,141.85 446.78,141.28 448.82,140.72 450.86,140.15 452.89,139.59 454.93,139.03 456.97,138.47 459.01,137.92 461.04,137.36 463.08,136.81 465.12,136.26 467.16,135.71 469.19,135.16 471.23,134.61 473.27,134.06 475.30,133.51 477.34,132.97 479.38,132.42 481.42,131.88 483.45,131.34 485.49,130.79 487.53,130.25 489.57,129.71 491.60,129.17 493.64,128.63 495.68,128.09 497.71,127.55 499.75,127.01 501.79,126.48 503.83,125.94 505.86,125.40 507.90,124.86 509.94,124.32 511.98,123.79 514.01,123.25 516.05,122.71 518.09,122.17 520.12,121.64 522.16,121.10 524.20,120.56 526.24,120.02 528.27,119.48 530.31,118.94 532.35,118.41 534.39,117.87 536.42,117.33 538.46,116.79 540.50,116.24 542.53,115.70 544.57,115.16 546.61,114.62 548.65,114.08 550.68,113.53 552.72,112.99 554.76,112.44 556.80,111.90 558.83,111.35 560.87,110.80 562.91,110.25 564.94,109.70 566.98,109.15 569.02,108.60 571.06,108.05 573.09,107.50 575.13,106.95 577.17,106.39 579.20,105.84 581.24,105.28 583.28,104.72 585.32,104.16 587.35,103.60 589.39,103.04 591.43,102.48 593.47,101.92 595.50,101.35 597.54,100.79 599.58,100.22 601.61,99.65 603.65,99.08 605.69,98.51 607.73,97.94 609.76,97.37 611.80,96.79 613.84,96.22 615.88,95.64 617.91,95.06 619.95,94.48 621.99,93.90 624.02,93.32 626.06,92.74 628.10,92.15 630.14,91.57 632.17,90.98 634.21,90.39 636.25,89.80 638.29,89.21 640.32,88.62 642.36,88.02 644.40,87.43 646.43,86.83 648.47,86.23 650.51,85.63 652.55,85.03 654.58,84.43 656.62,83.82 658.66,83.21 660.70,82.61 662.73,82.00 664.77,81.39 666.81,80.78 668.84,80.16 670.88,79.55 672.92,78.93 674.96,78.32 676.99,77.70 679.03,77.08 681.07,76.45 683.11,75.83 685.14,75.21 687.18,74.58 689.22,73.95 691.25,73.32 693.29,72.69 695.33,72.06 697.37,71.43 699.40,70.79 701.44,70.16 703.48,69.52 705.52,68.88 707.55,68.24 709.59,67.60 711.63,66.95 713.66,66.31 715.70,65.66 717.74,65.02 719.78,64.37 721.81,63.72 723.85,63.06 725.89,62.41 727.93,61.76 729.96,61.10 732.00,60.44" fill="none" stroke="#d15b2f" stroke-width="2.2" />
<circle cx="560" cy="58" r="5" fill="#3b6fb6" />
<text x="574" y="63">Simulation</text>
<circle cx="560" cy="82" r="5" fill="#d15b2f" />
<text x="574" y="87">Closed form</text>
<text x="380.00" y="462" text-anchor="middle">Number of bridges N</text>
<text transform="translate(22 250) rotate(-90)" text-anchor="middle">Expected contracts</text>
</svg>