<?xml version="1.0" encoding="utf-8" standalone="no"?>
<!DOCTYPE svg PUBLIC "-//W3C//DTD SVG 1.1//EN"
  "http://www.w3.org/Graphics/SVG/1.1/DTD/svg11.dtd">
<svg xmlns:xlink="http://www.w3.org/1999/xlink" width="568.899687pt" height="352.2625pt" viewBox="0 0 568.899687 352.2625" xmlns="http://www.w3.org/2000/svg" version="1.1">
 <metadata>
  <rdf:RDF xmlns:dc="http://purl.org/dc/elements/1.1/" xmlns:cc="http://creativecommons.org/ns#" xmlns:rdf="http://www.w3.org/1999/02/22-rdf-syntax-ns#">
   <cc:Work>
    <dc:type rdf:resource="http://purl.org/dc/dcmitype/StillImage"/>
    <dc:date>2026-07-11T07:45:09.376273</dc:date>
    <dc:format>image/svg+xml</dc:format>
    <dc:creator>
     <cc:Agent>
      <dc:title>Matplotlib v3.10.9, https://matplotlib.org/</dc:title>
     </cc:Agent>
    </dc:creator>
   </cc:Work>
  </rdf:RDF>
 </metadata>
 <defs>
  <style type="text/css">*{stroke-linejoin: round; stroke-linecap: butt}</style>
 </defs>
 <g id="figure_1">
  <g id="patch_1">
   <path d="M 0 352.2625 
L 568.899687 352.2625 
L 568.899687 0 
L 0 0 
z
" style="fill: #ffffff"/>
  </g>
  <g id="axes_1">
   <g id="patch_2">
    <path d="M 42.329688 313.5625 
L 561.699687 313.5625 
L 561.699687 7.2 
L 42.329688 7.2 
z
" style="fill: #ffffff"/>
   </g>
   <g id="matplotlib.axis_1">
    <g id="xtick_1">
     <g id="line2d_1">
      <path d="M 65.937415 313.5625 
L 65.937415 7.2 
" clip-path="url(#p7392213c20)" style="fill: none; stroke: #b0b0b0; stroke-width: 0.8; stroke-linecap: square"/>
     </g>
     <g id="line2d_2">
      <defs>
       <path id="m2a10e07a04" d="M 0 0 
L 0 3.5 
" style="stroke: #000000; stroke-width: 0.8"/>
      </defs>
      <g>
       <use xlink:href="#m2a10e07a04" x="65.937415" y="313.5625" style="stroke: #000000; stroke-width: 0.8"/>
      </g>
     </g>
     <g id="text_1">
      <!-- 15 -->
      <g transform="translate(60.387415 328.521875) scale(0.1 -0.1)">
       <defs>
        <path id="NotoSansCJKjp-Regular-31" d="M 563 0 
L 3136 0 
L 3136 486 
L 2195 486 
L 2195 4691 
L 1747 4691 
C 1491 4544 1190 4435 774 4358 
L 774 3987 
L 1613 3987 
L 1613 486 
L 563 486 
L 563 0 
z
" transform="scale(0.015625)"/>
        <path id="NotoSansCJKjp-Regular-35" d="M 1677 -83 
C 2464 -83 3213 499 3213 1523 
C 3213 2560 2573 3021 1798 3021 
C 1517 3021 1306 2950 1094 2835 
L 1216 4192 
L 2982 4192 
L 2982 4691 
L 704 4691 
L 550 2502 
L 864 2304 
C 1133 2483 1331 2579 1645 2579 
C 2234 2579 2618 2182 2618 1510 
C 2618 826 2176 403 1619 403 
C 1075 403 730 653 467 922 
L 173 538 
C 493 224 941 -83 1677 -83 
z
" transform="scale(0.015625)"/>
       </defs>
       <use xlink:href="#NotoSansCJKjp-Regular-31"/>
       <use xlink:href="#NotoSansCJKjp-Regular-35" transform="translate(55.499985 0)"/>
      </g>
     </g>
    </g>
    <g id="xtick_2">
     <g id="line2d_3">
      <path d="M 133.388064 313.5625 
L 133.388064 7.2 
" clip-path="url(#p7392213c20)" style="fill: none; stroke: #b0b0b0; stroke-width: 0.8; stroke-linecap: square"/>
     </g>
     <g id="line2d_4">
      <g>
       <use xlink:href="#m2a10e07a04" x="133.388064" y="313.5625" style="stroke: #000000; stroke-width: 0.8"/>
      </g>
     </g>
     <g id="text_2">
      <!-- 20 -->
      <g transform="translate(127.838064 328.521875) scale(0.1 -0.1)">
       <defs>
        <path id="NotoSansCJKjp-Regular-32" d="M 282 0 
L 3232 0 
L 3232 506 
L 1933 506 
C 1696 506 1408 480 1165 461 
C 2266 1504 3008 2458 3008 3398 
C 3008 4230 2477 4774 1638 4774 
C 1043 4774 634 4506 256 4090 
L 595 3757 
C 858 4070 1184 4301 1568 4301 
C 2150 4301 2432 3910 2432 3373 
C 2432 2566 1754 1632 282 346 
L 282 0 
z
" transform="scale(0.015625)"/>
        <path id="NotoSansCJKjp-Regular-30" d="M 1779 -83 
C 2669 -83 3238 723 3238 2362 
C 3238 3987 2669 4774 1779 4774 
C 883 4774 320 3987 320 2362 
C 320 723 883 -83 1779 -83 
z
M 1779 390 
C 1248 390 883 986 883 2362 
C 883 3731 1248 4314 1779 4314 
C 2310 4314 2675 3731 2675 2362 
C 2675 986 2310 390 1779 390 
z
" transform="scale(0.015625)"/>
       </defs>
       <use xlink:href="#NotoSansCJKjp-Regular-32"/>
       <use xlink:href="#NotoSansCJKjp-Regular-30" transform="translate(55.499985 0)"/>
      </g>
     </g>
    </g>
    <g id="xtick_3">
     <g id="line2d_5">
      <path d="M 200.838713 313.5625 
L 200.838713 7.2 
" clip-path="url(#p7392213c20)" style="fill: none; stroke: #b0b0b0; stroke-width: 0.8; stroke-linecap: square"/>
     </g>
     <g id="line2d_6">
      <g>
       <use xlink:href="#m2a10e07a04" x="200.838713" y="313.5625" style="stroke: #000000; stroke-width: 0.8"/>
      </g>
     </g>
     <g id="text_3">
      <!-- 25 -->
      <g transform="translate(195.288713 328.521875) scale(0.1 -0.1)">
       <use xlink:href="#NotoSansCJKjp-Regular-32"/>
       <use xlink:href="#NotoSansCJKjp-Regular-35" transform="translate(55.499985 0)"/>
      </g>
     </g>
    </g>
    <g id="xtick_4">
     <g id="line2d_7">
      <path d="M 268.289363 313.5625 
L 268.289363 7.2 
" clip-path="url(#p7392213c20)" style="fill: none; stroke: #b0b0b0; stroke-width: 0.8; stroke-linecap: square"/>
     </g>
     <g id="line2d_8">
      <g>
       <use xlink:href="#m2a10e07a04" x="268.289363" y="313.5625" style="stroke: #000000; stroke-width: 0.8"/>
      </g>
     </g>
     <g id="text_4">
      <!-- 30 -->
      <g transform="translate(262.739363 328.521875) scale(0.1 -0.1)">
       <defs>
        <path id="NotoSansCJKjp-Regular-33" d="M 1683 -83 
C 2522 -83 3194 416 3194 1254 
C 3194 1901 2752 2310 2202 2445 
L 2202 2477 
C 2701 2650 3034 3034 3034 3603 
C 3034 4346 2458 4774 1664 4774 
C 1126 4774 710 4538 358 4218 
L 672 3846 
C 941 4115 1267 4301 1645 4301 
C 2138 4301 2438 4006 2438 3558 
C 2438 3053 2112 2662 1139 2662 
L 1139 2214 
C 2227 2214 2598 1843 2598 1274 
C 2598 736 2208 403 1645 403 
C 1114 403 762 659 486 941 
L 186 563 
C 493 224 954 -83 1683 -83 
z
" transform="scale(0.015625)"/>
       </defs>
       <use xlink:href="#NotoSansCJKjp-Regular-33"/>
       <use xlink:href="#NotoSansCJKjp-Regular-30" transform="translate(55.499985 0)"/>
      </g>
     </g>
    </g>
    <g id="xtick_5">
     <g id="line2d_9">
      <path d="M 335.740012 313.5625 
L 335.740012 7.2 
" clip-path="url(#p7392213c20)" style="fill: none; stroke: #b0b0b0; stroke-width: 0.8; stroke-linecap: square"/>
     </g>
     <g id="line2d_10">
      <g>
       <use xlink:href="#m2a10e07a04" x="335.740012" y="313.5625" style="stroke: #000000; stroke-width: 0.8"/>
      </g>
     </g>
     <g id="text_5">
      <!-- 35 -->
      <g transform="translate(330.190012 328.521875) scale(0.1 -0.1)">
       <use xlink:href="#NotoSansCJKjp-Regular-33"/>
       <use xlink:href="#NotoSansCJKjp-Regular-35" transform="translate(55.499985 0)"/>
      </g>
     </g>
    </g>
    <g id="xtick_6">
     <g id="line2d_11">
      <path d="M 403.190662 313.5625 
L 403.190662 7.2 
" clip-path="url(#p7392213c20)" style="fill: none; stroke: #b0b0b0; stroke-width: 0.8; stroke-linecap: square"/>
     </g>
     <g id="line2d_12">
      <g>
       <use xlink:href="#m2a10e07a04" x="403.190662" y="313.5625" style="stroke: #000000; stroke-width: 0.8"/>
      </g>
     </g>
     <g id="text_6">
      <!-- 40 -->
      <g transform="translate(397.640662 328.521875) scale(0.1 -0.1)">
       <defs>
        <path id="NotoSansCJKjp-Regular-34" d="M 2176 0 
L 2726 0 
L 2726 1293 
L 3354 1293 
L 3354 1760 
L 2726 1760 
L 2726 4691 
L 2080 4691 
L 128 1677 
L 128 1293 
L 2176 1293 
L 2176 0 
z
M 2176 1760 
L 736 1760 
L 1805 3360 
C 1939 3590 2067 3827 2182 4051 
L 2208 4051 
C 2195 3814 2176 3430 2176 3200 
L 2176 1760 
z
" transform="scale(0.015625)"/>
       </defs>
       <use xlink:href="#NotoSansCJKjp-Regular-34"/>
       <use xlink:href="#NotoSansCJKjp-Regular-30" transform="translate(55.499985 0)"/>
      </g>
     </g>
    </g>
    <g id="xtick_7">
     <g id="line2d_13">
      <path d="M 470.641311 313.5625 
L 470.641311 7.2 
" clip-path="url(#p7392213c20)" style="fill: none; stroke: #b0b0b0; stroke-width: 0.8; stroke-linecap: square"/>
     </g>
     <g id="line2d_14">
      <g>
       <use xlink:href="#m2a10e07a04" x="470.641311" y="313.5625" style="stroke: #000000; stroke-width: 0.8"/>
      </g>
     </g>
     <g id="text_7">
      <!-- 45 -->
      <g transform="translate(465.091311 328.521875) scale(0.1 -0.1)">
       <use xlink:href="#NotoSansCJKjp-Regular-34"/>
       <use xlink:href="#NotoSansCJKjp-Regular-35" transform="translate(55.499985 0)"/>
      </g>
     </g>
    </g>
    <g id="xtick_8">
     <g id="line2d_15">
      <path d="M 538.09196 313.5625 
L 538.09196 7.2 
" clip-path="url(#p7392213c20)" style="fill: none; stroke: #b0b0b0; stroke-width: 0.8; stroke-linecap: square"/>
     </g>
     <g id="line2d_16">
      <g>
       <use xlink:href="#m2a10e07a04" x="538.09196" y="313.5625" style="stroke: #000000; stroke-width: 0.8"/>
      </g>
     </g>
     <g id="text_8">
      <!-- 50 -->
      <g transform="translate(532.54196 328.521875) scale(0.1 -0.1)">
       <use xlink:href="#NotoSansCJKjp-Regular-35"/>
       <use xlink:href="#NotoSansCJKjp-Regular-30" transform="translate(55.499985 0)"/>
      </g>
     </g>
    </g>
    <g id="text_9">
     <!-- 距離制約 D [km] -->
     <g transform="translate(265.564688 342.771875) scale(0.1 -0.1)">
      <defs>
       <path id="NotoSansCJKjp-Regular-8ddd" d="M 998 4685 
L 2246 4685 
L 2246 3558 
L 998 3558 
L 998 4685 
z
M 3155 5120 
L 3155 -506 
L 3629 -506 
L 3629 -205 
L 6157 -205 
L 6157 250 
L 3629 250 
L 3629 1331 
L 5798 1331 
L 5798 3603 
L 3629 3603 
L 3629 4672 
L 6074 4672 
L 6074 5120 
L 3155 5120 
z
M 3629 3155 
L 5331 3155 
L 5331 1779 
L 3629 1779 
L 3629 3155 
z
M 218 269 
L 307 -198 
C 1018 -26 2003 211 2931 442 
L 2886 870 
L 1888 634 
L 1888 1786 
L 2829 1786 
L 2829 2214 
L 1888 2214 
L 1888 3136 
L 2694 3136 
L 2694 5107 
L 570 5107 
L 570 3136 
L 1453 3136 
L 1453 538 
L 979 429 
L 979 2534 
L 570 2534 
L 570 339 
L 218 269 
z
" transform="scale(0.015625)"/>
       <path id="NotoSansCJKjp-Regular-96e2" d="M 1587 5376 
L 1587 4826 
L 275 4826 
L 275 4429 
L 3373 4429 
L 3373 4826 
L 2054 4826 
L 2054 5376 
L 1587 5376 
z
M 5203 5312 
C 5126 4973 4979 4499 4838 4154 
L 4147 4154 
C 4288 4512 4416 4896 4518 5274 
L 4083 5376 
C 3859 4493 3501 3603 3066 3002 
L 3066 4166 
L 2688 4166 
L 2688 2739 
L 934 2739 
L 934 4166 
L 582 4166 
L 582 2387 
L 1587 2387 
L 1530 1958 
L 403 1958 
L 403 -518 
L 806 -518 
L 806 1587 
L 1466 1587 
C 1414 1286 1350 986 1293 742 
L 960 730 
L 998 378 
L 2342 480 
C 2381 371 2406 269 2426 179 
L 2720 282 
C 2675 557 2496 998 2310 1331 
L 2029 1248 
C 2099 1107 2170 954 2234 800 
L 1645 762 
C 1715 1005 1779 1293 1843 1587 
L 2822 1587 
L 2822 -45 
C 2822 -115 2803 -128 2726 -134 
C 2650 -141 2400 -141 2118 -134 
C 2170 -237 2234 -397 2253 -506 
C 2637 -506 2880 -506 3040 -442 
C 3194 -371 3238 -256 3238 -51 
L 3238 1958 
L 1920 1958 
L 2003 2387 
L 3066 2387 
L 3066 2912 
C 3168 2835 3315 2714 3379 2650 
C 3475 2784 3571 2938 3661 3098 
L 3661 -518 
L 4102 -518 
L 4102 -179 
L 6157 -179 
L 6157 262 
L 5261 262 
L 5261 1152 
L 6035 1152 
L 6035 1568 
L 5261 1568 
L 5261 2445 
L 6035 2445 
L 6035 2854 
L 5261 2854 
L 5261 3718 
L 6093 3718 
L 6093 4154 
L 5267 4154 
C 5402 4467 5542 4858 5664 5203 
L 5203 5312 
z
M 2099 4262 
C 2022 4090 1926 3917 1818 3763 
C 1645 3872 1472 3974 1306 4058 
L 1107 3834 
C 1274 3744 1453 3635 1619 3520 
C 1446 3315 1248 3142 1037 2995 
C 1120 2944 1254 2835 1306 2771 
C 1510 2925 1709 3110 1888 3328 
C 2080 3187 2246 3046 2362 2925 
L 2573 3181 
C 2458 3302 2285 3437 2086 3578 
C 2221 3770 2342 3968 2438 4179 
L 2099 4262 
z
M 4102 2445 
L 4845 2445 
L 4845 1568 
L 4102 1568 
L 4102 2445 
z
M 4102 2854 
L 4102 3718 
L 4845 3718 
L 4845 2854 
L 4102 2854 
z
M 4102 1152 
L 4845 1152 
L 4845 262 
L 4102 262 
L 4102 1152 
z
" transform="scale(0.015625)"/>
       <path id="NotoSansCJKjp-Regular-5236" d="M 4326 4787 
L 4326 1242 
L 4781 1242 
L 4781 4787 
L 4326 4787 
z
M 5466 5312 
L 5466 147 
C 5466 45 5434 13 5338 13 
C 5216 6 4858 6 4480 19 
C 4544 -128 4614 -352 4640 -486 
C 5120 -486 5472 -474 5664 -397 
C 5862 -307 5939 -166 5939 154 
L 5939 5312 
L 5466 5312 
z
M 909 5222 
C 774 4602 557 3962 262 3533 
C 384 3488 595 3405 691 3354 
C 800 3539 909 3763 1011 4013 
L 1850 4013 
L 1850 3341 
L 288 3341 
L 288 2899 
L 1850 2899 
L 1850 2246 
L 582 2246 
L 582 13 
L 1018 13 
L 1018 1811 
L 1850 1811 
L 1850 -506 
L 2310 -506 
L 2310 1811 
L 3200 1811 
L 3200 499 
C 3200 429 3181 410 3110 410 
C 3040 403 2829 403 2560 416 
C 2618 294 2675 122 2694 -6 
C 3046 -6 3296 0 3443 70 
C 3603 147 3642 269 3642 486 
L 3642 2246 
L 2310 2246 
L 2310 2899 
L 3866 2899 
L 3866 3341 
L 2310 3341 
L 2310 4013 
L 3616 4013 
L 3616 4454 
L 2310 4454 
L 2310 5350 
L 1850 5350 
L 1850 4454 
L 1171 4454 
C 1242 4672 1306 4902 1357 5133 
L 909 5222 
z
" transform="scale(0.015625)"/>
       <path id="NotoSansCJKjp-Regular-7d04" d="M 3277 2630 
C 3635 2163 4006 1530 4141 1126 
L 4570 1350 
C 4416 1760 4026 2374 3667 2829 
L 3277 2630 
z
M 1984 1626 
C 2157 1235 2330 717 2387 378 
L 2784 512 
C 2714 845 2528 1357 2342 1747 
L 1984 1626 
z
M 582 1715 
C 506 1152 378 582 160 192 
C 269 154 454 64 544 6 
C 749 416 909 1037 992 1645 
L 582 1715 
z
M 3552 5382 
C 3309 4531 2906 3686 2400 3149 
C 2522 3085 2739 2938 2835 2861 
C 3046 3110 3245 3418 3424 3763 
L 5536 3763 
C 5440 1254 5331 275 5120 58 
C 5050 -26 4973 -45 4838 -45 
C 4685 -45 4288 -38 3859 -6 
C 3949 -141 4006 -346 4013 -486 
C 4397 -506 4794 -512 5011 -493 
C 5248 -467 5389 -422 5536 -230 
C 5805 83 5901 1082 6010 3974 
C 6016 4038 6016 4218 6016 4218 
L 3648 4218 
C 3802 4557 3930 4909 4038 5274 
L 3552 5382 
z
M 230 2515 
L 269 2080 
L 1318 2138 
L 1318 -525 
L 1754 -525 
L 1754 2163 
L 2310 2195 
C 2362 2061 2406 1933 2438 1824 
L 2816 2003 
C 2720 2355 2445 2899 2176 3315 
L 1818 3162 
C 1926 2989 2035 2784 2131 2586 
L 1107 2547 
C 1555 3098 2061 3853 2445 4467 
L 2022 4646 
C 1843 4301 1600 3878 1331 3469 
C 1235 3603 1094 3763 947 3910 
C 1184 4269 1459 4781 1677 5210 
L 1248 5376 
C 1114 5018 883 4538 678 4173 
L 480 4346 
L 243 4026 
C 544 3757 883 3392 1082 3098 
C 941 2893 794 2694 653 2528 
L 230 2515 
z
" transform="scale(0.015625)"/>
       <path id="NotoSansCJKjp-Regular-20" transform="scale(0.015625)"/>
       <path id="NotoSansCJKjp-Regular-44" d="M 646 0 
L 1843 0 
C 3258 0 4026 877 4026 2362 
C 4026 3859 3258 4691 1818 4691 
L 646 4691 
L 646 0 
z
M 1235 486 
L 1235 4211 
L 1766 4211 
C 2874 4211 3418 3552 3418 2362 
C 3418 1178 2874 486 1766 486 
L 1235 486 
z
" transform="scale(0.015625)"/>
       <path id="NotoSansCJKjp-Regular-5b" d="M 678 -1088 
L 1946 -1088 
L 1946 -755 
L 1114 -755 
L 1114 4730 
L 1946 4730 
L 1946 5069 
L 678 5069 
L 678 -1088 
z
" transform="scale(0.015625)"/>
       <path id="NotoSansCJKjp-Regular-6b" d="M 589 0 
L 1165 0 
L 1165 915 
L 1818 1677 
L 2835 0 
L 3469 0 
L 2157 2074 
L 3315 3475 
L 2662 3475 
L 1190 1645 
L 1165 1645 
L 1165 5094 
L 589 5094 
L 589 0 
z
" transform="scale(0.015625)"/>
       <path id="NotoSansCJKjp-Regular-6d" d="M 589 0 
L 1178 0 
L 1178 2522 
C 1491 2880 1786 3053 2048 3053 
C 2490 3053 2694 2778 2694 2125 
L 2694 0 
L 3277 0 
L 3277 2522 
C 3603 2880 3885 3053 4154 3053 
C 4595 3053 4800 2778 4800 2125 
L 4800 0 
L 5382 0 
L 5382 2202 
C 5382 3085 5043 3565 4333 3565 
C 3904 3565 3546 3290 3181 2899 
C 3040 3309 2758 3565 2221 3565 
C 1805 3565 1446 3302 1139 2970 
L 1126 2970 
L 1069 3475 
L 589 3475 
L 589 0 
z
" transform="scale(0.015625)"/>
       <path id="NotoSansCJKjp-Regular-5d" d="M 218 -1088 
L 1491 -1088 
L 1491 5069 
L 218 5069 
L 218 4730 
L 1050 4730 
L 1050 -755 
L 218 -755 
L 218 -1088 
z
" transform="scale(0.015625)"/>
      </defs>
      <use xlink:href="#NotoSansCJKjp-Regular-8ddd"/>
      <use xlink:href="#NotoSansCJKjp-Regular-96e2" transform="translate(99.999985 0)"/>
      <use xlink:href="#NotoSansCJKjp-Regular-5236" transform="translate(199.999969 0)"/>
      <use xlink:href="#NotoSansCJKjp-Regular-7d04" transform="translate(299.999954 0)"/>
      <use xlink:href="#NotoSansCJKjp-Regular-20" transform="translate(399.999939 0)"/>
      <use xlink:href="#NotoSansCJKjp-Regular-44" transform="translate(422.399933 0)"/>
      <use xlink:href="#NotoSansCJKjp-Regular-20" transform="translate(491.199921 0)"/>
      <use xlink:href="#NotoSansCJKjp-Regular-5b" transform="translate(513.599915 0)"/>
      <use xlink:href="#NotoSansCJKjp-Regular-6b" transform="translate(547.399902 0)"/>
      <use xlink:href="#NotoSansCJKjp-Regular-6d" transform="translate(602.599899 0)"/>
      <use xlink:href="#NotoSansCJKjp-Regular-5d" transform="translate(695.19989 0)"/>
     </g>
    </g>
   </g>
   <g id="matplotlib.axis_2">
    <g id="ytick_1">
     <g id="line2d_17">
      <path d="M 42.329688 297.548483 
L 561.699687 297.548483 
" clip-path="url(#p7392213c20)" style="fill: none; stroke: #b0b0b0; stroke-width: 0.8; stroke-linecap: square"/>
     </g>
     <g id="line2d_18">
      <defs>
       <path id="m2a7d5424e1" d="M 0 0 
L -3.5 0 
" style="stroke: #000000; stroke-width: 0.8"/>
      </defs>
      <g>
       <use xlink:href="#m2a7d5424e1" x="42.329688" y="297.548483" style="stroke: #000000; stroke-width: 0.8"/>
      </g>
     </g>
     <g id="text_10">
      <!-- 1.2 -->
      <g transform="translate(21.45 301.52817) scale(0.1 -0.1)">
       <defs>
        <path id="NotoSansCJKjp-Regular-2e" d="M 890 -83 
C 1120 -83 1312 96 1312 358 
C 1312 627 1120 806 890 806 
C 653 806 467 627 467 358 
C 467 96 653 -83 890 -83 
z
" transform="scale(0.015625)"/>
       </defs>
       <use xlink:href="#NotoSansCJKjp-Regular-31"/>
       <use xlink:href="#NotoSansCJKjp-Regular-2e" transform="translate(55.499985 0)"/>
       <use xlink:href="#NotoSansCJKjp-Regular-32" transform="translate(83.299973 0)"/>
      </g>
     </g>
    </g>
    <g id="ytick_2">
     <g id="line2d_19">
      <path d="M 42.329688 235.315584 
L 561.699687 235.315584 
" clip-path="url(#p7392213c20)" style="fill: none; stroke: #b0b0b0; stroke-width: 0.8; stroke-linecap: square"/>
     </g>
     <g id="line2d_20">
      <g>
       <use xlink:href="#m2a7d5424e1" x="42.329688" y="235.315584" style="stroke: #000000; stroke-width: 0.8"/>
      </g>
     </g>
     <g id="text_11">
      <!-- 1.4 -->
      <g transform="translate(21.45 239.295272) scale(0.1 -0.1)">
       <use xlink:href="#NotoSansCJKjp-Regular-31"/>
       <use xlink:href="#NotoSansCJKjp-Regular-2e" transform="translate(55.499985 0)"/>
       <use xlink:href="#NotoSansCJKjp-Regular-34" transform="translate(83.299973 0)"/>
      </g>
     </g>
    </g>
    <g id="ytick_3">
     <g id="line2d_21">
      <path d="M 42.329688 173.082686 
L 561.699687 173.082686 
" clip-path="url(#p7392213c20)" style="fill: none; stroke: #b0b0b0; stroke-width: 0.8; stroke-linecap: square"/>
     </g>
     <g id="line2d_22">
      <g>
       <use xlink:href="#m2a7d5424e1" x="42.329688" y="173.082686" style="stroke: #000000; stroke-width: 0.8"/>
      </g>
     </g>
     <g id="text_12">
      <!-- 1.6 -->
      <g transform="translate(21.45 177.062373) scale(0.1 -0.1)">
       <defs>
        <path id="NotoSansCJKjp-Regular-36" d="M 1926 -83 
C 2656 -83 3277 531 3277 1440 
C 3277 2426 2765 2912 1971 2912 
C 1606 2912 1197 2701 909 2349 
C 934 3802 1466 4294 2118 4294 
C 2400 4294 2682 4154 2861 3936 
L 3194 4294 
C 2931 4576 2579 4774 2093 4774 
C 1184 4774 358 4077 358 2240 
C 358 691 1030 -83 1926 -83 
z
M 922 1882 
C 1229 2317 1587 2477 1875 2477 
C 2445 2477 2720 2074 2720 1440 
C 2720 800 2374 378 1926 378 
C 1338 378 986 909 922 1882 
z
" transform="scale(0.015625)"/>
       </defs>
       <use xlink:href="#NotoSansCJKjp-Regular-31"/>
       <use xlink:href="#NotoSansCJKjp-Regular-2e" transform="translate(55.499985 0)"/>
       <use xlink:href="#NotoSansCJKjp-Regular-36" transform="translate(83.299973 0)"/>
      </g>
     </g>
    </g>
    <g id="ytick_4">
     <g id="line2d_23">
      <path d="M 42.329688 110.849788 
L 561.699687 110.849788 
" clip-path="url(#p7392213c20)" style="fill: none; stroke: #b0b0b0; stroke-width: 0.8; stroke-linecap: square"/>
     </g>
     <g id="line2d_24">
      <g>
       <use xlink:href="#m2a7d5424e1" x="42.329688" y="110.849788" style="stroke: #000000; stroke-width: 0.8"/>
      </g>
     </g>
     <g id="text_13">
      <!-- 1.8 -->
      <g transform="translate(21.45 114.829475) scale(0.1 -0.1)">
       <defs>
        <path id="NotoSansCJKjp-Regular-38" d="M 1792 -83 
C 2669 -83 3258 448 3258 1126 
C 3258 1773 2880 2125 2470 2362 
L 2470 2394 
C 2746 2611 3091 3034 3091 3526 
C 3091 4250 2605 4762 1805 4762 
C 1075 4762 518 4282 518 3571 
C 518 3078 813 2726 1152 2490 
L 1152 2464 
C 723 2234 294 1792 294 1165 
C 294 442 922 -83 1792 -83 
z
M 2112 2547 
C 1555 2765 1050 3014 1050 3571 
C 1050 4026 1363 4326 1798 4326 
C 2298 4326 2592 3962 2592 3494 
C 2592 3149 2426 2829 2112 2547 
z
M 1798 352 
C 1235 352 813 717 813 1216 
C 813 1664 1082 2035 1459 2278 
C 2125 2010 2701 1779 2701 1146 
C 2701 678 2342 352 1798 352 
z
" transform="scale(0.015625)"/>
       </defs>
       <use xlink:href="#NotoSansCJKjp-Regular-31"/>
       <use xlink:href="#NotoSansCJKjp-Regular-2e" transform="translate(55.499985 0)"/>
       <use xlink:href="#NotoSansCJKjp-Regular-38" transform="translate(83.299973 0)"/>
      </g>
     </g>
    </g>
    <g id="ytick_5">
     <g id="line2d_25">
      <path d="M 42.329688 48.616889 
L 561.699687 48.616889 
" clip-path="url(#p7392213c20)" style="fill: none; stroke: #b0b0b0; stroke-width: 0.8; stroke-linecap: square"/>
     </g>
     <g id="line2d_26">
      <g>
       <use xlink:href="#m2a7d5424e1" x="42.329688" y="48.616889" style="stroke: #000000; stroke-width: 0.8"/>
      </g>
     </g>
     <g id="text_14">
      <!-- 2.0 -->
      <g transform="translate(21.45 52.596577) scale(0.1 -0.1)">
       <use xlink:href="#NotoSansCJKjp-Regular-32"/>
       <use xlink:href="#NotoSansCJKjp-Regular-2e" transform="translate(55.499985 0)"/>
       <use xlink:href="#NotoSansCJKjp-Regular-30" transform="translate(83.299973 0)"/>
      </g>
     </g>
    </g>
    <g id="text_15">
     <!-- 目的関数値（最適） -->
     <g transform="translate(15.159375 205.38125) rotate(-90) scale(0.1 -0.1)">
      <defs>
       <path id="NotoSansCJKjp-Regular-76ee" d="M 1491 3008 
L 4858 3008 
L 4858 1952 
L 1491 1952 
L 1491 3008 
z
M 1491 3469 
L 1491 4506 
L 4858 4506 
L 4858 3469 
L 1491 3469 
z
M 1491 1491 
L 4858 1491 
L 4858 429 
L 1491 429 
L 1491 1491 
z
M 1011 4979 
L 1011 -474 
L 1491 -474 
L 1491 -38 
L 4858 -38 
L 4858 -474 
L 5357 -474 
L 5357 4979 
L 1011 4979 
z
" transform="scale(0.015625)"/>
       <path id="NotoSansCJKjp-Regular-7684" d="M 3533 2707 
C 3885 2240 4320 1600 4512 1210 
L 4922 1466 
C 4710 1843 4269 2464 3904 2918 
L 3533 2707 
z
M 1536 5389 
C 1485 5082 1376 4659 1274 4346 
L 557 4346 
L 557 -346 
L 998 -346 
L 998 160 
L 2784 160 
L 2784 4346 
L 1715 4346 
C 1824 4621 1946 4979 2054 5299 
L 1536 5389 
z
M 998 3917 
L 2342 3917 
L 2342 2566 
L 998 2566 
L 998 3917 
z
M 998 595 
L 998 2144 
L 2342 2144 
L 2342 595 
L 998 595 
z
M 3827 5402 
C 3622 4518 3277 3635 2835 3066 
C 2950 3002 3149 2867 3238 2790 
C 3456 3098 3661 3488 3840 3923 
L 5478 3923 
C 5402 1357 5299 371 5094 154 
C 5018 64 4947 45 4819 45 
C 4672 45 4288 51 3866 83 
C 3955 -38 4013 -243 4026 -378 
C 4384 -397 4762 -410 4979 -390 
C 5210 -365 5350 -314 5498 -122 
C 5754 192 5843 1184 5939 4122 
C 5946 4186 5946 4365 5946 4365 
L 4013 4365 
C 4115 4666 4211 4986 4288 5299 
L 3827 5402 
z
" transform="scale(0.015625)"/>
       <path id="NotoSansCJKjp-Regular-95a2" d="M 5619 5101 
L 3475 5101 
L 3475 3014 
L 5389 3014 
L 5389 64 
C 5389 -26 5363 -51 5280 -58 
L 4685 -51 
C 4742 32 4813 109 4870 160 
C 4211 288 3725 608 3462 1062 
L 4870 1062 
L 4870 1427 
L 3366 1427 
L 3366 1485 
L 3366 1933 
L 4768 1933 
L 4768 2291 
L 4006 2291 
L 4339 2816 
L 3904 2950 
C 3840 2765 3699 2490 3590 2291 
L 2765 2291 
C 2707 2477 2560 2746 2406 2938 
L 2035 2822 
C 2150 2669 2259 2464 2323 2291 
L 1632 2291 
L 1632 1933 
L 2925 1933 
L 2925 1491 
L 2925 1427 
L 1530 1427 
L 1530 1062 
L 2854 1062 
C 2726 723 2374 358 1466 109 
C 1562 26 1690 -115 1747 -211 
C 2598 58 3008 410 3200 768 
C 3501 301 3974 -32 4595 -198 
L 4666 -83 
C 4717 -211 4774 -390 4794 -512 
C 5197 -512 5478 -506 5638 -429 
C 5811 -346 5862 -205 5862 64 
L 5862 5101 
L 5619 5101 
z
M 2451 3910 
L 2451 3379 
L 1043 3379 
L 1043 3910 
L 2451 3910 
z
M 2451 4243 
L 1043 4243 
L 1043 4742 
L 2451 4742 
L 2451 4243 
z
M 5389 3910 
L 5389 3373 
L 3930 3373 
L 3930 3910 
L 5389 3910 
z
M 5389 4243 
L 3930 4243 
L 3930 4742 
L 5389 4742 
L 5389 4243 
z
M 570 5101 
L 570 -518 
L 1043 -518 
L 1043 3027 
L 2906 3027 
L 2906 5101 
L 570 5101 
z
" transform="scale(0.015625)"/>
       <path id="NotoSansCJKjp-Regular-6570" d="M 2803 5254 
C 2688 4998 2483 4627 2317 4403 
L 2643 4243 
C 2816 4454 3027 4781 3219 5075 
L 2803 5254 
z
M 531 5075 
C 704 4806 870 4454 928 4230 
L 1312 4397 
C 1248 4627 1075 4973 890 5222 
L 531 5075 
z
M 4026 5382 
C 3846 4243 3507 3162 2970 2490 
C 3078 2413 3283 2246 3360 2163 
C 3533 2394 3693 2669 3827 2970 
C 3974 2310 4160 1709 4410 1184 
C 4090 698 3667 314 3110 19 
C 2912 166 2656 326 2374 480 
C 2598 774 2746 1126 2829 1562 
L 3398 1562 
L 3398 1958 
L 1677 1958 
L 1894 2413 
L 1779 2438 
L 2061 2438 
L 2061 3398 
C 2374 3168 2771 2854 2938 2701 
L 3206 3046 
C 3034 3174 2336 3616 2061 3776 
L 2061 3802 
L 3373 3802 
L 3373 4198 
L 2061 4198 
L 2061 5382 
L 1613 5382 
L 1613 4198 
L 288 4198 
L 288 3802 
L 1485 3802 
C 1171 3379 678 2982 218 2784 
C 314 2694 422 2528 480 2419 
C 870 2637 1293 2989 1613 3373 
L 1613 2477 
L 1440 2515 
L 1178 1958 
L 250 1958 
L 250 1562 
L 979 1562 
C 806 1222 627 896 486 653 
L 909 506 
L 1005 678 
C 1222 589 1434 493 1638 384 
C 1306 147 858 -13 269 -109 
C 352 -211 448 -384 480 -512 
C 1171 -365 1683 -154 2061 160 
C 2355 -13 2611 -186 2810 -352 
L 2963 -192 
C 3046 -301 3136 -448 3174 -531 
C 3802 -205 4288 205 4666 710 
C 4979 192 5370 -224 5862 -512 
C 5939 -378 6093 -192 6208 -96 
C 5690 173 5280 614 4960 1165 
C 5350 1856 5594 2707 5754 3750 
L 6144 3750 
L 6144 4198 
L 4262 4198 
C 4358 4557 4442 4928 4506 5312 
L 4026 5382 
z
M 1478 1562 
L 2368 1562 
C 2285 1216 2157 928 1965 698 
C 1715 819 1459 934 1197 1030 
L 1478 1562 
z
M 4134 3750 
L 5254 3750 
C 5139 2950 4966 2266 4698 1696 
C 4435 2298 4250 3002 4134 3750 
z
" transform="scale(0.015625)"/>
       <path id="NotoSansCJKjp-Regular-5024" d="M 3642 2515 
L 5280 2515 
L 5280 1984 
L 3642 1984 
L 3642 2515 
z
M 3642 1638 
L 5280 1638 
L 5280 1101 
L 3642 1101 
L 3642 1638 
z
M 3642 3386 
L 5280 3386 
L 5280 2867 
L 3642 2867 
L 3642 3386 
z
M 3187 3757 
L 3187 736 
L 5747 736 
L 5747 3757 
L 4365 3757 
L 4435 4294 
L 6106 4294 
L 6106 4723 
L 4486 4723 
L 4544 5344 
L 4064 5376 
L 4013 4723 
L 2246 4723 
L 2246 4294 
L 3974 4294 
L 3910 3757 
L 3187 3757 
z
M 2176 3430 
L 2176 -506 
L 2624 -506 
L 2624 -192 
L 6144 -192 
L 6144 237 
L 2624 237 
L 2624 3430 
L 2176 3430 
z
M 1690 5350 
C 1331 4378 736 3418 102 2797 
C 192 2688 326 2438 371 2323 
C 595 2554 813 2822 1024 3117 
L 1024 -499 
L 1485 -499 
L 1485 3840 
C 1734 4282 1965 4749 2144 5216 
L 1690 5350 
z
" transform="scale(0.015625)"/>
       <path id="NotoSansCJKjp-Regular-ff08" d="M 4448 2432 
C 4448 1184 4954 166 5722 -614 
L 6106 -416 
C 5370 346 4915 1293 4915 2432 
C 4915 3571 5370 4518 6106 5280 
L 5722 5478 
C 4954 4698 4448 3680 4448 2432 
z
" transform="scale(0.015625)"/>
       <path id="NotoSansCJKjp-Regular-6700" d="M 1600 4064 
L 4813 4064 
L 4813 3610 
L 1600 3610 
L 1600 4064 
z
M 1600 4832 
L 4813 4832 
L 4813 4384 
L 1600 4384 
L 1600 4832 
z
M 1139 5171 
L 1139 3270 
L 5293 3270 
L 5293 5171 
L 1139 5171 
z
M 2534 2509 
L 2534 2074 
L 1370 2074 
L 1370 2509 
L 2534 2509 
z
M 314 282 
L 358 -147 
L 2534 115 
L 2534 -512 
L 2995 -512 
L 2995 -109 
C 3091 -198 3200 -365 3251 -474 
C 3699 -320 4141 -96 4531 205 
C 4909 -115 5363 -358 5875 -506 
C 5939 -397 6061 -218 6163 -134 
C 5664 -6 5229 205 4858 486 
C 5280 883 5613 1389 5811 2010 
L 5517 2131 
L 5434 2112 
L 3219 2112 
L 3219 1722 
L 3776 1722 
L 3501 1638 
C 3674 1216 3910 832 4205 512 
C 3840 237 3418 32 2995 -90 
L 2995 2509 
L 6016 2509 
L 6016 2912 
L 371 2912 
L 371 2509 
L 928 2509 
L 928 339 
L 314 282 
z
M 3898 1722 
L 5222 1722 
C 5056 1363 4813 1050 4531 781 
C 4262 1050 4045 1370 3898 1722 
z
M 2534 1709 
L 2534 1261 
L 1370 1261 
L 1370 1709 
L 2534 1709 
z
M 2534 902 
L 2534 518 
L 1370 384 
L 1370 902 
L 2534 902 
z
" transform="scale(0.015625)"/>
       <path id="NotoSansCJKjp-Regular-9069" d="M 358 4947 
C 749 4640 1184 4186 1370 3866 
L 1760 4166 
C 1568 4480 1114 4922 723 5216 
L 358 4947 
z
M 1574 2848 
L 294 2848 
L 294 2400 
L 1107 2400 
L 1107 742 
C 819 474 499 205 230 13 
L 480 -461 
C 794 -179 1088 96 1370 371 
C 1773 -134 2355 -358 3200 -390 
C 3917 -416 5286 -403 6003 -378 
C 6022 -230 6099 -13 6157 96 
C 5382 45 3904 26 3194 58 
C 2438 90 1875 307 1574 781 
L 1574 2848 
z
M 2739 4390 
C 2848 4211 2950 3974 2995 3795 
L 2170 3795 
L 2170 435 
L 2611 435 
L 2611 3405 
L 3789 3405 
L 3789 2970 
L 2835 2970 
L 2835 2643 
L 3789 2643 
L 3789 2182 
L 3123 2182 
L 3123 774 
L 3475 774 
L 3475 1018 
L 4845 1018 
L 4845 2182 
L 4154 2182 
L 4154 2643 
L 5120 2643 
L 5120 2970 
L 4154 2970 
L 4154 3405 
L 5382 3405 
L 5382 954 
C 5382 877 5363 858 5286 851 
C 5197 851 4947 851 4659 858 
C 4723 742 4787 570 4806 448 
C 5190 448 5453 448 5626 518 
C 5786 602 5830 717 5830 954 
L 5830 3795 
L 4890 3795 
C 4998 3968 5114 4192 5229 4410 
L 5082 4448 
L 6061 4448 
L 6061 4838 
L 4186 4838 
L 4186 5376 
L 3718 5376 
L 3718 4838 
L 1933 4838 
L 1933 4448 
L 2963 4448 
L 2739 4390 
z
M 4755 4448 
C 4678 4250 4550 3981 4454 3802 
L 4480 3795 
L 3347 3795 
L 3443 3821 
C 3405 4000 3290 4256 3168 4448 
L 4755 4448 
z
M 3475 1875 
L 4493 1875 
L 4493 1325 
L 3475 1325 
L 3475 1875 
z
" transform="scale(0.015625)"/>
       <path id="NotoSansCJKjp-Regular-ff09" d="M 1952 2432 
C 1952 3680 1446 4698 678 5478 
L 294 5280 
C 1030 4518 1485 3571 1485 2432 
C 1485 1293 1030 346 294 -416 
L 678 -614 
C 1446 166 1952 1184 1952 2432 
z
" transform="scale(0.015625)"/>
      </defs>
      <use xlink:href="#NotoSansCJKjp-Regular-76ee"/>
      <use xlink:href="#NotoSansCJKjp-Regular-7684" transform="translate(99.999985 0)"/>
      <use xlink:href="#NotoSansCJKjp-Regular-95a2" transform="translate(199.999969 0)"/>
      <use xlink:href="#NotoSansCJKjp-Regular-6570" transform="translate(299.999954 0)"/>
      <use xlink:href="#NotoSansCJKjp-Regular-5024" transform="translate(399.999939 0)"/>
      <use xlink:href="#NotoSansCJKjp-Regular-ff08" transform="translate(499.999924 0)"/>
      <use xlink:href="#NotoSansCJKjp-Regular-6700" transform="translate(599.999908 0)"/>
      <use xlink:href="#NotoSansCJKjp-Regular-9069" transform="translate(699.999893 0)"/>
      <use xlink:href="#NotoSansCJKjp-Regular-ff09" transform="translate(799.999878 0)"/>
     </g>
    </g>
   </g>
   <g id="line2d_27">
    <path d="M 65.937415 21.125568 
L 133.388064 113.610492 
L 200.838713 183.163961 
L 268.289363 230.293064 
L 335.740012 278.256291 
L 403.190662 299.636932 
L 470.641311 299.636932 
L 538.09196 299.636932 
" clip-path="url(#p7392213c20)" style="fill: none; stroke: #1f77b4; stroke-width: 1.5; stroke-linecap: square"/>
    <defs>
     <path id="mabd4f91acd" d="M 0 3 
C 0.795609 3 1.55874 2.683901 2.12132 2.12132 
C 2.683901 1.55874 3 0.795609 3 0 
C 3 -0.795609 2.683901 -1.55874 2.12132 -2.12132 
C 1.55874 -2.683901 0.795609 -3 0 -3 
C -0.795609 -3 -1.55874 -2.683901 -2.12132 -2.12132 
C -2.683901 -1.55874 -3 -0.795609 -3 0 
C -3 0.795609 -2.683901 1.55874 -2.12132 2.12132 
C -1.55874 2.683901 -0.795609 3 0 3 
z
" style="stroke: #1f77b4"/>
    </defs>
    <g clip-path="url(#p7392213c20)">
     <use xlink:href="#mabd4f91acd" x="65.937415" y="21.125568" style="fill: #1f77b4; stroke: #1f77b4"/>
     <use xlink:href="#mabd4f91acd" x="133.388064" y="113.610492" style="fill: #1f77b4; stroke: #1f77b4"/>
     <use xlink:href="#mabd4f91acd" x="200.838713" y="183.163961" style="fill: #1f77b4; stroke: #1f77b4"/>
     <use xlink:href="#mabd4f91acd" x="268.289363" y="230.293064" style="fill: #1f77b4; stroke: #1f77b4"/>
     <use xlink:href="#mabd4f91acd" x="335.740012" y="278.256291" style="fill: #1f77b4; stroke: #1f77b4"/>
     <use xlink:href="#mabd4f91acd" x="403.190662" y="299.636932" style="fill: #1f77b4; stroke: #1f77b4"/>
     <use xlink:href="#mabd4f91acd" x="470.641311" y="299.636932" style="fill: #1f77b4; stroke: #1f77b4"/>
     <use xlink:href="#mabd4f91acd" x="538.09196" y="299.636932" style="fill: #1f77b4; stroke: #1f77b4"/>
    </g>
   </g>
   <g id="patch_3">
    <path d="M 42.329688 313.5625 
L 42.329688 7.2 
" style="fill: none; stroke: #000000; stroke-width: 0.8; stroke-linejoin: miter; stroke-linecap: square"/>
   </g>
   <g id="patch_4">
    <path d="M 561.699687 313.5625 
L 561.699687 7.2 
" style="fill: none; stroke: #000000; stroke-width: 0.8; stroke-linejoin: miter; stroke-linecap: square"/>
   </g>
   <g id="patch_5">
    <path d="M 42.329688 313.5625 
L 561.699688 313.5625 
" style="fill: none; stroke: #000000; stroke-width: 0.8; stroke-linejoin: miter; stroke-linecap: square"/>
   </g>
   <g id="patch_6">
    <path d="M 42.329688 7.2 
L 561.699688 7.2 
" style="fill: none; stroke: #000000; stroke-width: 0.8; stroke-linejoin: miter; stroke-linecap: square"/>
   </g>
  </g>
 </g>
 <defs>
  <clipPath id="p7392213c20">
   <rect x="42.329688" y="7.2" width="519.37" height="306.3625"/>
  </clipPath>
 </defs>
</svg>
