<?xml version="1.0" encoding="utf-8" standalone="no"?>
<!DOCTYPE svg PUBLIC "-//W3C//DTD SVG 1.1//EN"
  "http://www.w3.org/Graphics/SVG/1.1/DTD/svg11.dtd">
<svg xmlns:xlink="http://www.w3.org/1999/xlink" width="568.259063pt" height="352.208125pt" viewBox="0 0 568.259063 352.208125" xmlns="http://www.w3.org/2000/svg" version="1.1">
 <metadata>
  <rdf:RDF xmlns:dc="http://purl.org/dc/elements/1.1/" xmlns:cc="http://creativecommons.org/ns#" xmlns:rdf="http://www.w3.org/1999/02/22-rdf-syntax-ns#">
   <cc:Work>
    <dc:type rdf:resource="http://purl.org/dc/dcmitype/StillImage"/>
    <dc:date>2026-07-15T01:16:01.600997</dc:date>
    <dc:format>image/svg+xml</dc:format>
    <dc:creator>
     <cc:Agent>
      <dc:title>Matplotlib v3.9.4, https://matplotlib.org/</dc:title>
     </cc:Agent>
    </dc:creator>
   </cc:Work>
  </rdf:RDF>
 </metadata>
 <defs>
  <style type="text/css">*{stroke-linejoin: round; stroke-linecap: butt}</style>
 </defs>
 <g id="figure_1">
  <g id="patch_1">
   <path d="M 0 352.208125
L 568.259063 352.208125
L 568.259063 0
L 0 0
z
" style="fill: #ffffff"/>
  </g>
  <g id="axes_1">
   <g id="patch_2">
    <path d="M 43.939063 314.24875
L 561.059062 314.24875
L 561.059062 7.2
L 43.939063 7.2
z
" style="fill: #ffffff"/>
   </g>
   <g id="matplotlib.axis_1">
    <g id="xtick_1">
     <g id="line2d_1">
      <path d="M 67.444517 314.24875
L 67.444517 7.2
" clip-path="url(#p83b52fb89a)" style="fill: none; stroke: #b0b0b0; stroke-width: 0.8; stroke-linecap: square"/>
     </g>
     <g id="line2d_2">
      <defs>
       <path id="m0133c5668c" d="M 0 0
L 0 3.5
" style="stroke: #000000; stroke-width: 0.8"/>
      </defs>
      <g>
       <use xlink:href="#m0133c5668c" x="67.444517" y="314.24875" style="stroke: #000000; stroke-width: 0.8"/>
      </g>
     </g>
     <g id="text_1">
      <!-- 15 -->
      <g transform="translate(60.71483 328.958125) scale(0.1 -0.1)">
       <defs>
        <path id="HiraginoSans-W4-31" d="M 1018 4371
C 1222 4397 1389 4410 1606 4410
L 1939 4410
L 1939 755
C 1939 454 1926 237 1888 0
L 2598 0
C 2560 250 2547 448 2547 755
L 2547 3904
C 2547 4256 2566 4582 2605 4966
C 2387 4941 2278 4934 2035 4934
L 1581 4934
C 1325 4934 1197 4941 1018 4966
L 1018 4371
z
" transform="scale(0.015625)"/>
        <path id="HiraginoSans-W4-35" d="M 1331 4416
L 2835 4416
C 3155 4416 3366 4403 3622 4365
L 3622 4986
C 3360 4947 3206 4934 2829 4934
L 1446 4934
C 1082 4934 954 4941 762 4966
C 774 4768 774 4762 774 4742
C 774 4563 774 4518 749 4307
L 608 2822
C 589 2566 570 2445 518 2157
L 1088 2106
C 1146 2240 1178 2291 1261 2374
C 1485 2605 1811 2739 2131 2739
C 2842 2739 3264 2317 3264 1613
C 3264 902 2803 435 2106 435
C 1747 435 1440 563 1235 794
C 1146 902 1101 986 1037 1171
L 410 1005
C 557 685 646 544 813 378
C 1133 64 1562 -96 2099 -96
C 3194 -96 3885 576 3885 1638
C 3885 2605 3245 3238 2272 3238
C 1830 3238 1472 3098 1158 2803
C 1197 2982 1197 2982 1203 3091
L 1331 4416
z
" transform="scale(0.015625)"/>
       </defs>
       <use xlink:href="#HiraginoSans-W4-31"/>
       <use xlink:href="#HiraginoSans-W4-35" x="67.299988"/>
      </g>
     </g>
    </g>
    <g id="xtick_2">
     <g id="line2d_3">
      <path d="M 134.602959 314.24875
L 134.602959 7.2
" clip-path="url(#p83b52fb89a)" style="fill: none; stroke: #b0b0b0; stroke-width: 0.8; stroke-linecap: square"/>
     </g>
     <g id="line2d_4">
      <g>
       <use xlink:href="#m0133c5668c" x="134.602959" y="314.24875" style="stroke: #000000; stroke-width: 0.8"/>
      </g>
     </g>
     <g id="text_2">
      <!-- 20 -->
      <g transform="translate(127.873271 328.958125) scale(0.1 -0.1)">
       <defs>
        <path id="HiraginoSans-W4-32" d="M 3078 0
C 3424 0 3642 -6 3917 -32
L 3917 589
C 3693 557 3430 544 3091 544
L 1114 544
C 1280 1114 1606 1478 2451 2042
C 3181 2528 3341 2656 3546 2912
C 3738 3142 3846 3443 3846 3744
C 3846 4525 3200 5030 2202 5030
C 1613 5030 1158 4858 858 4518
C 640 4269 531 4026 442 3565
L 1088 3469
C 1139 3782 1190 3936 1306 4102
C 1491 4371 1792 4506 2208 4506
C 2816 4506 3206 4211 3206 3744
C 3206 3360 2995 3085 2387 2675
C 1754 2246 1600 2138 1389 1952
C 979 1594 710 1229 544 806
C 448 563 429 461 365 -26
C 576 -6 678 0 1107 0
L 3078 0
z
" transform="scale(0.015625)"/>
        <path id="HiraginoSans-W4-30" d="M 2144 -90
C 2758 -90 3232 141 3565 602
C 3846 998 4019 1696 4019 2464
C 4019 3002 3936 3501 3770 3949
C 3693 4160 3558 4371 3379 4550
C 3078 4858 2650 5024 2157 5024
C 1498 5024 986 4742 666 4205
C 435 3834 288 3142 288 2458
C 288 1939 371 1434 538 986
C 614 768 749 563 928 384
C 1242 70 1651 -90 2144 -90
z
M 2144 4499
C 2592 4499 2918 4307 3123 3923
C 3283 3629 3398 3014 3398 2470
C 3398 2022 3341 1619 3213 1235
C 3155 1043 3046 870 2912 730
C 2726 538 2458 435 2150 435
C 1734 435 1414 614 1197 973
C 1024 1261 902 1875 902 2451
C 902 2906 966 3328 1088 3699
C 1139 3866 1235 4026 1370 4173
C 1568 4397 1818 4499 2144 4499
z
" transform="scale(0.015625)"/>
       </defs>
       <use xlink:href="#HiraginoSans-W4-32"/>
       <use xlink:href="#HiraginoSans-W4-30" x="67.299988"/>
      </g>
     </g>
    </g>
    <g id="xtick_3">
     <g id="line2d_5">
      <path d="M 201.7614 314.24875
L 201.7614 7.2
" clip-path="url(#p83b52fb89a)" style="fill: none; stroke: #b0b0b0; stroke-width: 0.8; stroke-linecap: square"/>
     </g>
     <g id="line2d_6">
      <g>
       <use xlink:href="#m0133c5668c" x="201.7614" y="314.24875" style="stroke: #000000; stroke-width: 0.8"/>
      </g>
     </g>
     <g id="text_3">
      <!-- 25 -->
      <g transform="translate(195.031713 328.958125) scale(0.1 -0.1)">
       <use xlink:href="#HiraginoSans-W4-32"/>
       <use xlink:href="#HiraginoSans-W4-35" x="67.299988"/>
      </g>
     </g>
    </g>
    <g id="xtick_4">
     <g id="line2d_7">
      <path d="M 268.919842 314.24875
L 268.919842 7.2
" clip-path="url(#p83b52fb89a)" style="fill: none; stroke: #b0b0b0; stroke-width: 0.8; stroke-linecap: square"/>
     </g>
     <g id="line2d_8">
      <g>
       <use xlink:href="#m0133c5668c" x="268.919842" y="314.24875" style="stroke: #000000; stroke-width: 0.8"/>
      </g>
     </g>
     <g id="text_4">
      <!-- 30 -->
      <g transform="translate(262.190154 328.958125) scale(0.1 -0.1)">
       <defs>
        <path id="HiraginoSans-W4-33" d="M 282 1101
C 397 768 474 621 621 448
C 934 90 1434 -96 2112 -96
C 2720 -96 3213 70 3533 384
C 3770 614 3904 954 3904 1306
C 3904 1677 3802 1958 3597 2182
C 3379 2419 3130 2528 2688 2586
C 2995 2650 3130 2701 3290 2816
C 3578 3021 3738 3366 3738 3757
C 3738 4538 3117 5043 2157 5043
C 1594 5043 1146 4883 845 4576
C 666 4390 582 4237 467 3891
L 1107 3757
C 1171 3981 1216 4083 1306 4192
C 1478 4416 1741 4525 2125 4525
C 2746 4525 3110 4224 3110 3725
C 3110 3482 3021 3264 2867 3110
C 2669 2918 2374 2829 1965 2829
C 1779 2829 1613 2842 1459 2861
L 1459 2272
C 1651 2298 1811 2310 2003 2310
C 2829 2310 3264 1990 3264 1376
C 3264 794 2816 429 2106 429
C 1779 429 1510 506 1293 666
C 1107 800 1024 928 928 1248
L 282 1101
z
" transform="scale(0.015625)"/>
       </defs>
       <use xlink:href="#HiraginoSans-W4-33"/>
       <use xlink:href="#HiraginoSans-W4-30" x="67.299988"/>
      </g>
     </g>
    </g>
    <g id="xtick_5">
     <g id="line2d_9">
      <path d="M 336.078283 314.24875
L 336.078283 7.2
" clip-path="url(#p83b52fb89a)" style="fill: none; stroke: #b0b0b0; stroke-width: 0.8; stroke-linecap: square"/>
     </g>
     <g id="line2d_10">
      <g>
       <use xlink:href="#m0133c5668c" x="336.078283" y="314.24875" style="stroke: #000000; stroke-width: 0.8"/>
      </g>
     </g>
     <g id="text_5">
      <!-- 35 -->
      <g transform="translate(329.348596 328.958125) scale(0.1 -0.1)">
       <use xlink:href="#HiraginoSans-W4-33"/>
       <use xlink:href="#HiraginoSans-W4-35" x="67.299988"/>
      </g>
     </g>
    </g>
    <g id="xtick_6">
     <g id="line2d_11">
      <path d="M 403.236725 314.24875
L 403.236725 7.2
" clip-path="url(#p83b52fb89a)" style="fill: none; stroke: #b0b0b0; stroke-width: 0.8; stroke-linecap: square"/>
     </g>
     <g id="line2d_12">
      <g>
       <use xlink:href="#m0133c5668c" x="403.236725" y="314.24875" style="stroke: #000000; stroke-width: 0.8"/>
      </g>
     </g>
     <g id="text_6">
      <!-- 40 -->
      <g transform="translate(396.496881 328.958125) scale(0.1 -0.1)">
       <defs>
        <path id="HiraginoSans-W4-34" d="M 179 1210
C 403 1229 589 1235 954 1235
L 2688 1235
L 2688 710
C 2688 410 2675 218 2630 0
L 3309 0
C 3270 230 3258 390 3258 704
L 3258 1235
L 3494 1235
C 3763 1235 3910 1222 4154 1190
L 4154 1798
C 3917 1766 3750 1754 3494 1754
L 3258 1754
L 3258 3853
C 3258 4358 3264 4544 3296 4934
L 2701 4934
C 2560 4704 2445 4550 2214 4269
L 621 2298
C 467 2099 326 1939 179 1773
L 179 1210
z
M 2688 1747
L 858 1747
L 2259 3514
C 2464 3763 2592 3936 2720 4128
C 2694 3814 2688 3622 2688 3283
L 2688 1747
z
" transform="scale(0.015625)"/>
       </defs>
       <use xlink:href="#HiraginoSans-W4-34"/>
       <use xlink:href="#HiraginoSans-W4-30" x="67.499985"/>
      </g>
     </g>
    </g>
    <g id="xtick_7">
     <g id="line2d_13">
      <path d="M 470.395166 314.24875
L 470.395166 7.2
" clip-path="url(#p83b52fb89a)" style="fill: none; stroke: #b0b0b0; stroke-width: 0.8; stroke-linecap: square"/>
     </g>
     <g id="line2d_14">
      <g>
       <use xlink:href="#m0133c5668c" x="470.395166" y="314.24875" style="stroke: #000000; stroke-width: 0.8"/>
      </g>
     </g>
     <g id="text_7">
      <!-- 45 -->
      <g transform="translate(463.655323 328.958125) scale(0.1 -0.1)">
       <use xlink:href="#HiraginoSans-W4-34"/>
       <use xlink:href="#HiraginoSans-W4-35" x="67.499985"/>
      </g>
     </g>
    </g>
    <g id="xtick_8">
     <g id="line2d_15">
      <path d="M 537.553608 314.24875
L 537.553608 7.2
" clip-path="url(#p83b52fb89a)" style="fill: none; stroke: #b0b0b0; stroke-width: 0.8; stroke-linecap: square"/>
     </g>
     <g id="line2d_16">
      <g>
       <use xlink:href="#m0133c5668c" x="537.553608" y="314.24875" style="stroke: #000000; stroke-width: 0.8"/>
      </g>
     </g>
     <g id="text_8">
      <!-- 50 -->
      <g transform="translate(530.82392 328.958125) scale(0.1 -0.1)">
       <use xlink:href="#HiraginoSans-W4-35"/>
       <use xlink:href="#HiraginoSans-W4-30" x="67.299988"/>
      </g>
     </g>
    </g>
    <g id="text_9">
     <!-- 距離制約 D [km] -->
     <g transform="translate(263.935 342.958125) scale(0.1 -0.1)">
      <defs>
       <path id="HiraginoSans-W4-8ddd" d="M 1549 422
C 1325 365 1325 365 1082 307
L 1082 1990
C 1082 2202 1088 2342 1107 2515
L 614 2515
C 634 2330 646 2163 646 1965
L 646 218
C 448 186 320 166 205 166
L 320 -365
C 416 -333 602 -282 768 -243
C 1638 -26 2176 128 2886 365
L 2874 819
C 2509 691 2387 653 1997 538
L 1997 1754
L 2304 1754
C 2534 1754 2669 1747 2848 1722
L 2848 2214
C 2694 2182 2560 2176 2310 2176
L 1997 2176
L 1997 3072
L 2208 3072
C 2445 3072 2598 3066 2726 3053
C 2714 3181 2714 3296 2714 3674
L 2714 4467
C 2714 4749 2720 4954 2733 5101
C 2541 5075 2374 5069 2125 5069
L 1165 5069
C 922 5069 755 5075 570 5101
C 582 4934 595 4730 595 4448
L 595 3680
C 595 3386 589 3219 570 3046
C 762 3066 902 3072 1107 3072
L 1549 3072
L 1549 422
z
M 1050 4653
L 2266 4653
L 2266 3482
L 1050 3482
L 1050 4653
z
M 3648 1485
L 5235 1485
C 5440 1485 5574 1478 5779 1466
C 5766 1606 5766 1709 5766 2022
L 5766 3046
C 5766 3270 5773 3411 5786 3590
C 5626 3571 5472 3565 5216 3565
L 3648 3565
L 3648 4608
L 5414 4608
C 5658 4608 5862 4595 6054 4570
L 6054 5107
C 5862 5075 5677 5062 5402 5062
L 3757 5062
C 3488 5062 3309 5069 3142 5082
C 3155 4922 3168 4678 3168 4448
L 3168 186
C 3168 -83 3155 -320 3130 -525
L 3648 -525
L 3648 -160
L 5485 -160
C 5754 -160 5946 -173 6131 -198
L 6131 339
C 5933 307 5734 294 5478 294
L 3648 294
L 3648 1485
z
M 3648 1926
L 3648 3123
L 5299 3123
L 5299 1926
L 3648 1926
z
" transform="scale(0.015625)"/>
       <path id="HiraginoSans-W4-96e2" d="M 5178 2630
L 5376 2630
C 5632 2630 5818 2618 5946 2598
L 5946 3072
C 5811 3046 5683 3040 5376 3040
L 5178 3040
L 5178 3917
L 5434 3917
C 5766 3917 5952 3910 6086 3891
L 6086 4378
C 5933 4346 5779 4339 5434 4339
L 5197 4339
C 5312 4570 5421 4813 5523 5062
C 5536 5101 5555 5152 5587 5222
L 5126 5357
C 5030 4960 4922 4672 4755 4339
L 4070 4339
C 4147 4525 4198 4646 4275 4858
C 4390 5184 4390 5184 4435 5293
L 3949 5421
C 3821 4666 3456 3821 3027 3302
L 3027 3846
C 3027 4019 3034 4134 3053 4262
L 2605 4262
C 2624 4141 2630 4006 2630 3846
L 2630 2861
L 1043 2861
L 1043 3846
C 1043 4006 1050 4122 1069 4269
L 608 4269
C 634 4096 640 3955 640 3802
L 640 2944
C 640 2726 634 2598 614 2496
C 819 2509 941 2509 1152 2509
L 1651 2509
C 1619 2323 1613 2298 1581 2131
L 1056 2131
C 819 2131 653 2138 461 2157
C 480 1958 486 1779 486 1498
L 486 218
C 486 -83 474 -282 454 -461
L 954 -461
C 934 -320 928 -173 928 211
L 928 1760
L 1498 1760
C 1408 1376 1344 1146 1242 845
C 1146 838 1082 832 1037 832
C 1024 832 998 832 960 838
L 1050 410
C 1114 429 1178 442 1267 454
C 1677 518 1990 582 2304 659
C 2342 538 2355 486 2400 326
L 2752 486
C 2592 954 2509 1158 2317 1517
L 1990 1389
C 2093 1197 2118 1146 2189 986
C 2074 960 1946 934 1645 890
C 1728 1146 1760 1248 1901 1760
L 2778 1760
L 2778 154
C 2778 19 2739 -6 2554 -6
C 2368 -6 2208 6 1939 51
C 2003 -122 2022 -224 2035 -390
C 2285 -410 2355 -410 2470 -410
C 3066 -410 3206 -314 3206 96
L 3206 1587
C 3206 1818 3213 1984 3232 2157
C 3066 2138 2925 2131 2624 2131
L 1997 2131
C 2022 2266 2029 2278 2074 2509
L 2554 2509
C 2707 2509 2829 2509 3040 2496
C 3034 2630 3027 2752 3027 2899
L 3027 3264
C 3123 3181 3200 3085 3296 2938
C 3430 3123 3482 3200 3616 3443
C 3597 3174 3597 3142 3597 2912
L 3597 243
C 3597 -102 3584 -326 3558 -474
L 4045 -474
L 4045 -166
L 5504 -166
C 5754 -166 5990 -179 6138 -205
L 6138 288
C 5997 262 5824 256 5536 256
L 5178 256
L 5178 1331
L 5376 1331
C 5619 1331 5811 1318 5946 1293
L 5946 1779
C 5798 1754 5645 1741 5376 1741
L 5178 1741
L 5178 2630
z
M 4755 2630
L 4755 1741
L 4045 1741
L 4045 2630
L 4755 2630
z
M 4755 3040
L 4045 3040
L 4045 3917
L 4755 3917
L 4755 3040
z
M 4045 1331
L 4755 1331
L 4755 256
L 4045 256
L 4045 1331
z
M 1606 4832
L 864 4832
C 646 4832 493 4838 352 4864
L 352 4410
C 486 4429 627 4435 851 4435
L 2790 4435
C 2989 4435 3149 4429 3309 4410
L 3309 4864
C 3162 4845 2976 4832 2784 4832
L 2067 4832
L 2067 4928
C 2067 5114 2074 5216 2099 5357
L 1568 5357
C 1594 5248 1606 5120 1606 4922
L 1606 4832
z
M 2522 3309
C 2349 3475 2298 3520 2157 3648
C 2323 3827 2381 3898 2534 4077
L 2234 4326
C 2099 4115 2035 4038 1882 3878
C 1760 3981 1677 4045 1408 4243
L 1158 3994
C 1389 3834 1466 3770 1626 3635
C 1427 3475 1338 3411 1075 3258
C 1178 3181 1216 3136 1331 2982
C 1626 3181 1734 3258 1894 3398
C 2035 3264 2093 3206 2272 3014
L 2522 3309
z
" transform="scale(0.015625)"/>
       <path id="HiraginoSans-W4-5236" d="M 1856 4019
L 1856 3315
L 947 3315
C 685 3315 531 3322 365 3354
L 365 2848
C 538 2874 704 2880 986 2880
L 1856 2880
L 1856 2246
L 1190 2246
C 947 2246 768 2253 576 2278
C 595 2099 602 1926 602 1683
L 602 621
C 602 256 595 134 570 -32
L 1094 -32
C 1075 147 1069 326 1069 627
L 1069 1818
L 1856 1818
L 1856 218
C 1856 -96 1843 -275 1818 -493
L 2349 -493
C 2323 -307 2317 -147 2317 218
L 2317 1818
L 3117 1818
L 3117 538
C 3117 448 3078 435 2854 435
C 2746 435 2598 448 2490 461
C 2534 314 2560 192 2566 13
C 2816 0 2842 0 2899 0
C 3418 0 3565 90 3565 422
L 3565 1696
C 3565 1952 3571 2099 3584 2278
C 3392 2253 3232 2246 2989 2246
L 2317 2246
L 2317 2880
L 3174 2880
C 3475 2880 3622 2874 3776 2848
L 3776 3347
C 3597 3322 3437 3315 3187 3315
L 2317 3315
L 2317 4019
L 2950 4019
C 3251 4019 3411 4013 3578 3987
L 3578 4480
C 3418 4454 3270 4448 2950 4448
L 2317 4448
L 2317 4685
C 2317 5018 2323 5152 2355 5318
L 1818 5318
C 1850 5139 1856 4998 1856 4678
L 1856 4448
L 1242 4448
C 1280 4570 1299 4646 1338 4781
C 1382 4941 1414 5043 1440 5120
L 960 5229
C 960 5146 934 5024 902 4877
C 781 4416 621 4064 339 3661
C 506 3590 614 3533 768 3437
C 915 3680 954 3757 1069 4019
L 1856 4019
z
M 4045 4922
C 4070 4742 4083 4570 4083 4230
L 4083 1715
C 4083 1299 4077 1178 4051 1005
L 4589 1005
C 4563 1165 4557 1299 4557 1709
L 4557 4237
C 4557 4582 4563 4755 4589 4922
L 4045 4922
z
M 5331 5299
C 5363 5107 5376 4890 5376 4512
L 5376 230
C 5376 70 5325 38 5075 38
C 4858 38 4576 58 4262 102
C 4346 -64 4378 -179 4403 -384
C 4710 -403 4902 -410 5069 -410
C 5702 -410 5856 -288 5856 211
L 5856 4525
C 5856 4902 5869 5114 5901 5299
L 5331 5299
z
" transform="scale(0.015625)"/>
       <path id="HiraginoSans-W4-7d04" d="M 378 2093
C 499 2112 506 2112 774 2131
C 1018 2150 1018 2150 1459 2189
L 1459 160
C 1459 -122 1446 -326 1421 -506
L 1952 -506
C 1926 -307 1914 -128 1914 154
L 1914 2234
C 2176 2266 2176 2266 2317 2278
C 2355 2285 2406 2291 2477 2298
C 2515 2176 2541 2112 2598 1907
L 2989 2074
C 2810 2566 2656 2912 2438 3302
L 2093 3162
C 2214 2931 2246 2861 2323 2675
C 1984 2637 1875 2624 1382 2592
C 1696 2950 2099 3507 2534 4166
C 2624 4301 2669 4358 2726 4435
L 2291 4691
C 2202 4467 2016 4160 1568 3507
C 1389 3718 1325 3789 1184 3930
C 1395 4224 1638 4614 1805 4928
C 1875 5062 1901 5107 1952 5165
L 1491 5363
C 1427 5126 1203 4704 890 4224
L 640 4474
L 365 4115
C 838 3693 979 3546 1306 3142
C 1139 2912 1069 2829 851 2566
C 659 2560 608 2560 550 2560
C 448 2560 397 2566 307 2579
L 378 2093
z
M 5440 3846
C 5434 2483 5338 1267 5190 582
C 5101 173 5030 96 4730 96
C 4486 96 4224 122 3885 179
C 3955 -13 3987 -141 4013 -346
C 4288 -365 4480 -378 4646 -378
C 5331 -378 5498 -250 5651 378
C 5792 973 5914 2272 5920 3309
C 5933 4134 5933 4134 5952 4333
C 5818 4314 5696 4307 5434 4307
L 3891 4307
C 3968 4499 4013 4608 4077 4800
C 4166 5062 4166 5062 4224 5190
L 3706 5306
C 3661 5030 3571 4749 3386 4320
C 3187 3872 2950 3494 2656 3168
C 2816 3072 2918 2989 3040 2848
C 3302 3168 3482 3456 3680 3846
L 5440 3846
z
M 691 1811
C 602 973 518 595 301 96
L 717 -102
C 934 461 1005 800 1107 1734
L 691 1811
z
M 2234 1741
C 2374 1248 2470 742 2541 173
L 2970 294
C 2874 858 2771 1306 2611 1850
L 2234 1741
z
M 4691 1498
C 4403 2170 4224 2490 3814 3078
L 3418 2848
C 3814 2278 3968 1990 4256 1254
L 4691 1498
z
" transform="scale(0.015625)"/>
       <path id="HiraginoSans-W4-20" transform="scale(0.015625)"/>
       <path id="HiraginoSans-W4-44" d="M 531 768
C 531 429 518 237 480 -13
C 710 0 870 0 1210 0
L 2317 0
C 2989 0 3520 192 3910 570
C 4371 1018 4614 1683 4614 2515
C 4614 3309 4390 3942 3949 4365
C 3565 4749 3021 4934 2310 4934
L 1210 4934
C 883 4934 698 4941 480 4954
C 518 4672 531 4493 531 4192
L 531 768
z
M 1126 538
L 1126 4397
L 2310 4397
C 2848 4397 3226 4262 3507 3974
C 3834 3642 3994 3155 3994 2502
C 3994 1856 3814 1325 3475 979
C 3187 678 2803 538 2291 538
L 1126 538
z
" transform="scale(0.015625)"/>
       <path id="HiraginoSans-W4-5b" d="M 2176 -480
L 1382 -480
L 1382 4435
L 2176 4435
L 2176 4934
L 813 4934
L 813 -979
L 2176 -979
L 2176 -480
z
" transform="scale(0.015625)"/>
       <path id="HiraginoSans-W4-6b" d="M 442 4934
C 474 4698 486 4518 486 4179
L 486 755
C 486 429 474 224 442 0
L 1101 0
C 1069 224 1056 442 1056 742
L 1056 1254
L 1600 1766
L 2400 640
C 2669 269 2733 166 2810 0
L 3654 0
C 3507 147 3482 179 3091 691
L 2010 2112
L 2906 2957
C 2912 2963 2957 3008 3021 3066
C 3110 3155 3187 3226 3251 3283
C 3424 3437 3424 3437 3514 3520
L 2624 3520
C 2534 3373 2426 3258 2157 2995
L 1056 1926
L 1056 4179
C 1056 4518 1069 4704 1101 4934
L 442 4934
z
" transform="scale(0.015625)"/>
       <path id="HiraginoSans-W4-6d" d="M 1107 0
C 1075 262 1062 442 1062 755
L 1062 2016
C 1062 2144 1178 2464 1286 2624
C 1485 2912 1786 3091 2074 3091
C 2528 3091 2765 2803 2765 2246
L 2765 755
C 2765 422 2752 230 2720 0
L 3392 0
C 3360 230 3347 416 3347 749
L 3347 2016
C 3347 2176 3456 2483 3571 2650
C 3763 2931 4045 3091 4346 3091
C 4525 3091 4672 3053 4781 2976
C 4973 2842 5043 2637 5043 2246
L 5043 755
C 5043 403 5037 256 4998 0
L 5670 0
C 5638 230 5626 416 5626 749
L 5626 2336
C 5626 2733 5555 2995 5382 3206
C 5184 3462 4864 3590 4442 3590
C 3898 3590 3552 3398 3232 2925
C 3168 3104 3130 3181 3034 3277
C 2842 3488 2566 3590 2202 3590
C 1690 3590 1280 3373 1050 2970
C 1050 3008 1050 3008 1056 3066
C 1056 3085 1062 3181 1062 3200
L 1062 3520
L 442 3520
C 474 3290 486 3117 486 2765
L 486 755
C 486 435 474 243 442 0
L 1107 0
z
" transform="scale(0.015625)"/>
       <path id="HiraginoSans-W4-5d" d="M 141 -480
L 141 -979
L 1504 -979
L 1504 4934
L 141 4934
L 141 4435
L 934 4435
L 934 -480
L 141 -480
z
" transform="scale(0.015625)"/>
      </defs>
      <use xlink:href="#HiraginoSans-W4-8ddd"/>
      <use xlink:href="#HiraginoSans-W4-96e2" x="99.999985"/>
      <use xlink:href="#HiraginoSans-W4-5236" x="199.999969"/>
      <use xlink:href="#HiraginoSans-W4-7d04" x="299.999954"/>
      <use xlink:href="#HiraginoSans-W4-20" x="399.999939"/>
      <use xlink:href="#HiraginoSans-W4-44" x="433.299927"/>
      <use xlink:href="#HiraginoSans-W4-20" x="510.399918"/>
      <use xlink:href="#HiraginoSans-W4-5b" x="543.699905"/>
      <use xlink:href="#HiraginoSans-W4-6b" x="579.999893"/>
      <use xlink:href="#HiraginoSans-W4-6d" x="639.599884"/>
      <use xlink:href="#HiraginoSans-W4-5d" x="734.999878"/>
     </g>
    </g>
   </g>
   <g id="matplotlib.axis_2">
    <g id="ytick_1">
     <g id="line2d_17">
      <path d="M 43.939063 298.20791
L 561.059062 298.20791
" clip-path="url(#p83b52fb89a)" style="fill: none; stroke: #b0b0b0; stroke-width: 0.8; stroke-linecap: square"/>
     </g>
     <g id="line2d_18">
      <defs>
       <path id="m08d2274459" d="M 0 0
L -3.5 0
" style="stroke: #000000; stroke-width: 0.8"/>
      </defs>
      <g>
       <use xlink:href="#m08d2274459" x="43.939063" y="298.20791" style="stroke: #000000; stroke-width: 0.8"/>
      </g>
     </g>
     <g id="text_10">
      <!-- 1.2 -->
      <g transform="translate(20.979688 302.062597) scale(0.1 -0.1)">
       <defs>
        <path id="HiraginoSans-W4-2e" d="M 442 723
L 442 0
L 1165 0
L 1165 723
L 442 723
z
" transform="scale(0.015625)"/>
       </defs>
       <use xlink:href="#HiraginoSans-W4-31"/>
       <use xlink:href="#HiraginoSans-W4-2e" x="67.299988"/>
       <use xlink:href="#HiraginoSans-W4-32" x="92.299973"/>
      </g>
     </g>
    </g>
    <g id="ytick_2">
     <g id="line2d_19">
      <path d="M 43.939063 235.747465
L 561.059062 235.747465
" clip-path="url(#p83b52fb89a)" style="fill: none; stroke: #b0b0b0; stroke-width: 0.8; stroke-linecap: square"/>
     </g>
     <g id="line2d_20">
      <g>
       <use xlink:href="#m08d2274459" x="43.939063" y="235.747465" style="stroke: #000000; stroke-width: 0.8"/>
      </g>
     </g>
     <g id="text_11">
      <!-- 1.4 -->
      <g transform="translate(20.959375 239.602152) scale(0.1 -0.1)">
       <use xlink:href="#HiraginoSans-W4-31"/>
       <use xlink:href="#HiraginoSans-W4-2e" x="67.299988"/>
       <use xlink:href="#HiraginoSans-W4-34" x="92.299973"/>
      </g>
     </g>
    </g>
    <g id="ytick_3">
     <g id="line2d_21">
      <path d="M 43.939063 173.287019
L 561.059062 173.287019
" clip-path="url(#p83b52fb89a)" style="fill: none; stroke: #b0b0b0; stroke-width: 0.8; stroke-linecap: square"/>
     </g>
     <g id="line2d_22">
      <g>
       <use xlink:href="#m08d2274459" x="43.939063" y="173.287019" style="stroke: #000000; stroke-width: 0.8"/>
      </g>
     </g>
     <g id="text_12">
      <!-- 1.6 -->
      <g transform="translate(20.979688 177.141707) scale(0.1 -0.1)">
       <defs>
        <path id="HiraginoSans-W4-36" d="M 3846 3994
C 3706 4301 3616 4442 3462 4602
C 3187 4877 2784 5024 2304 5024
C 1683 5024 1222 4794 864 4307
C 557 3891 371 3162 371 2355
C 371 1446 614 704 1043 320
C 1331 58 1773 -90 2253 -90
C 3277 -90 3968 589 3968 1587
C 3968 2586 3334 3213 2323 3213
C 1894 3213 1568 3104 1274 2854
C 1133 2739 1062 2656 941 2458
C 979 3085 1043 3392 1210 3763
C 1434 4262 1798 4518 2285 4518
C 2765 4518 3040 4314 3238 3821
L 3846 3994
z
M 2266 2714
C 2950 2714 3366 2285 3366 1574
C 3366 1325 3309 1088 3206 922
C 3008 614 2643 422 2234 422
C 1568 422 1069 915 1069 1574
C 1069 2234 1574 2714 2266 2714
z
" transform="scale(0.015625)"/>
       </defs>
       <use xlink:href="#HiraginoSans-W4-31"/>
       <use xlink:href="#HiraginoSans-W4-2e" x="67.299988"/>
       <use xlink:href="#HiraginoSans-W4-36" x="92.299973"/>
      </g>
     </g>
    </g>
    <g id="ytick_4">
     <g id="line2d_23">
      <path d="M 43.939063 110.826574
L 561.059062 110.826574
" clip-path="url(#p83b52fb89a)" style="fill: none; stroke: #b0b0b0; stroke-width: 0.8; stroke-linecap: square"/>
     </g>
     <g id="line2d_24">
      <g>
       <use xlink:href="#m08d2274459" x="43.939063" y="110.826574" style="stroke: #000000; stroke-width: 0.8"/>
      </g>
     </g>
     <g id="text_13">
      <!-- 1.8 -->
      <g transform="translate(20.979688 114.681262) scale(0.1 -0.1)">
       <defs>
        <path id="HiraginoSans-W4-38" d="M 1446 2586
C 1203 2547 1056 2490 851 2355
C 480 2106 294 1754 294 1299
C 294 397 966 -102 2163 -102
C 3347 -102 4006 397 4006 1299
C 4006 1728 3853 2061 3539 2304
C 3322 2470 3136 2547 2867 2586
C 3437 2714 3789 3162 3789 3757
C 3789 4550 3162 5043 2150 5043
C 1146 5043 512 4544 512 3750
C 512 3162 877 2701 1446 2586
z
M 2150 4538
C 2784 4538 3187 4211 3187 3699
C 3187 3155 2797 2829 2157 2829
C 1510 2829 1114 3162 1114 3699
C 1114 4211 1523 4538 2150 4538
z
M 2157 2304
C 2912 2304 3373 1939 3373 1344
C 3373 749 2925 410 2144 410
C 1376 410 928 749 928 1338
C 928 1939 1389 2304 2157 2304
z
" transform="scale(0.015625)"/>
       </defs>
       <use xlink:href="#HiraginoSans-W4-31"/>
       <use xlink:href="#HiraginoSans-W4-2e" x="67.299988"/>
       <use xlink:href="#HiraginoSans-W4-38" x="92.299973"/>
      </g>
     </g>
    </g>
    <g id="ytick_5">
     <g id="line2d_25">
      <path d="M 43.939063 48.366129
L 561.059062 48.366129
" clip-path="url(#p83b52fb89a)" style="fill: none; stroke: #b0b0b0; stroke-width: 0.8; stroke-linecap: square"/>
     </g>
     <g id="line2d_26">
      <g>
       <use xlink:href="#m08d2274459" x="43.939063" y="48.366129" style="stroke: #000000; stroke-width: 0.8"/>
      </g>
     </g>
     <g id="text_14">
      <!-- 2.0 -->
      <g transform="translate(20.979688 52.220816) scale(0.1 -0.1)">
       <use xlink:href="#HiraginoSans-W4-32"/>
       <use xlink:href="#HiraginoSans-W4-2e" x="67.299988"/>
       <use xlink:href="#HiraginoSans-W4-30" x="92.299973"/>
      </g>
     </g>
    </g>
    <g id="text_15">
     <!-- 目的関数値（最適） -->
     <g transform="translate(14.909375 205.724375) rotate(-90) scale(0.1 -0.1)">
      <defs>
       <path id="HiraginoSans-W4-76ee" d="M 1728 5024
C 1434 5024 1242 5030 1037 5056
C 1062 4851 1069 4672 1069 4410
L 1069 237
C 1069 -45 1056 -243 1030 -442
L 1581 -442
L 1581 -32
L 4800 -32
L 4800 -442
L 5350 -442
C 5325 -237 5312 -45 5312 269
L 5312 4454
C 5312 4685 5318 4858 5344 5056
C 5158 5030 4973 5024 4678 5024
L 1728 5024
z
M 1581 3533
L 1581 4550
L 4800 4550
L 4800 3533
L 1581 3533
z
M 1581 3066
L 4800 3066
L 4800 2016
L 1581 2016
L 1581 3066
z
M 1581 1549
L 4800 1549
L 4800 442
L 1581 442
L 1581 1549
z
" transform="scale(0.015625)"/>
       <path id="HiraginoSans-W4-7684" d="M 1094 4365
C 826 4365 653 4371 525 4390
C 544 4230 550 4083 550 3763
L 550 493
C 550 109 544 -122 518 -294
L 1024 -294
L 1024 262
L 2176 262
L 2176 -141
L 2675 -141
C 2656 19 2643 243 2643 512
L 2643 3155
C 2771 3059 2880 2944 2989 2778
C 3341 3232 3488 3462 3718 3923
L 5459 3923
C 5453 2957 5440 2502 5408 1978
C 5363 1210 5286 640 5197 358
C 5114 128 5050 83 4749 83
C 4550 83 4230 122 3898 192
C 3974 0 4006 -128 4026 -339
C 4403 -378 4570 -384 4800 -384
C 5280 -384 5498 -243 5632 141
C 5824 723 5901 1664 5952 3974
C 5958 4230 5958 4282 5978 4410
C 5850 4390 5683 4384 5421 4384
L 3923 4384
C 4006 4589 4090 4813 4147 4986
C 4211 5184 4218 5203 4243 5248
L 3718 5344
C 3693 5139 3571 4749 3424 4397
C 3194 3872 2950 3482 2643 3155
L 2643 3827
C 2643 4058 2650 4224 2662 4390
C 2611 4378 2426 4371 2106 4365
L 1702 4365
C 1843 4691 1914 4877 2029 5235
L 1498 5325
C 1440 4973 1363 4723 1222 4365
L 1094 4365
z
M 1024 3936
L 2176 3936
L 2176 2592
L 1024 2592
L 1024 3936
z
M 1024 2163
L 2176 2163
L 2176 691
L 1024 691
L 1024 2163
z
M 4762 1530
C 4422 2234 4173 2637 3782 3117
L 3386 2893
C 3750 2445 3974 2048 4314 1267
L 4762 1530
z
" transform="scale(0.015625)"/>
       <path id="HiraginoSans-W4-95a2" d="M 4365 1216
C 4614 1216 4774 1210 4922 1184
L 4922 1619
C 4762 1594 4634 1587 4365 1587
L 3322 1587
C 3347 1766 3354 1862 3366 2112
L 4275 2112
C 4499 2112 4666 2106 4794 2086
L 4794 2509
C 4640 2483 4512 2477 4269 2477
L 3949 2477
C 4083 2669 4166 2803 4282 3014
L 3853 3130
C 3725 2848 3654 2714 3494 2477
L 2874 2477
C 2758 2694 2637 2874 2458 3123
L 2054 2982
C 2234 2771 2317 2650 2419 2477
L 2125 2477
C 1875 2477 1760 2483 1606 2509
L 1606 2086
C 1747 2106 1894 2112 2131 2112
L 2925 2112
C 2918 1862 2912 1773 2893 1587
L 2022 1587
C 1754 1587 1613 1594 1466 1619
L 1466 1184
C 1638 1210 1792 1216 2042 1216
L 2803 1216
C 2682 909 2541 723 2272 544
C 2042 384 1811 294 1357 166
C 1472 45 1542 -64 1632 -230
C 2125 -58 2387 77 2650 294
C 2886 486 3034 691 3155 973
C 3494 499 3910 186 4499 -32
C 4570 147 4614 230 4723 390
C 4115 563 3750 800 3430 1216
L 4365 1216
z
M 1056 3245
L 2253 3245
C 2515 3245 2714 3238 2886 3226
C 2874 3379 2867 3539 2867 3814
L 2867 4576
C 2867 4826 2874 5011 2886 5178
C 2707 5158 2554 5152 2234 5152
L 1222 5152
C 902 5152 736 5158 557 5178
C 576 4973 582 4794 582 4474
L 582 269
C 582 -90 570 -288 544 -467
L 1094 -467
C 1069 -307 1056 -96 1056 262
L 1056 3245
z
M 1056 4800
L 2426 4800
L 2426 4384
L 1056 4384
L 1056 4800
z
M 1056 4038
L 2426 4038
L 2426 3603
L 1056 3603
L 1056 4038
z
M 5830 4474
C 5830 4762 5837 4928 5862 5178
C 5677 5158 5517 5152 5190 5152
L 4064 5152
C 3744 5152 3590 5158 3411 5178
C 3424 4973 3430 4806 3430 4576
L 3430 3814
C 3430 3565 3424 3405 3411 3226
C 3590 3238 3770 3245 4045 3245
L 5357 3245
L 5357 205
C 5357 64 5312 26 5126 26
C 4928 26 4838 32 4550 77
C 4621 -83 4640 -173 4659 -397
C 4806 -403 4928 -410 5011 -410
C 5357 -410 5510 -397 5606 -352
C 5779 -275 5830 -147 5830 166
L 5830 4474
z
M 3872 4800
L 5357 4800
L 5357 4384
L 3872 4384
L 3872 4800
z
M 3872 4038
L 5357 4038
L 5357 3603
L 3872 3603
L 3872 4038
z
" transform="scale(0.015625)"/>
       <path id="HiraginoSans-W4-6570" d="M 6170 4173
C 6003 4141 5862 4134 5568 4134
L 4288 4134
C 4365 4384 4435 4627 4512 4947
C 4557 5126 4563 5152 4595 5235
L 4077 5344
C 4070 5158 4032 4934 3974 4672
C 3782 3853 3437 3130 2995 2598
C 3142 2509 3226 2438 3354 2291
C 3526 2515 3610 2643 3770 2931
C 3904 2176 4070 1702 4397 1158
C 4013 653 3526 275 2803 -77
C 2944 -218 3021 -326 3110 -506
C 3776 -141 4256 250 4666 755
C 5069 230 5485 -141 6035 -467
C 6138 -237 6202 -128 6317 13
C 5747 314 5338 653 4954 1158
C 5171 1523 5325 1875 5440 2304
C 5562 2739 5613 3078 5651 3699
C 5920 3699 6035 3693 6170 3667
L 6170 4173
z
M 5184 3699
C 5133 2797 4992 2214 4672 1600
C 4358 2170 4192 2707 4064 3539
C 4096 3610 4102 3629 4128 3699
L 5184 3699
z
M 3046 339
C 2752 512 2656 570 2419 685
C 2643 992 2746 1190 2880 1626
L 2963 1626
C 3187 1626 3309 1619 3443 1594
L 3443 2067
C 3328 2042 3206 2035 2989 2035
L 1862 2035
C 1926 2176 1958 2234 2029 2426
L 1562 2528
C 1485 2285 1453 2202 1382 2035
L 832 2035
C 608 2035 493 2042 365 2067
L 365 1594
C 499 1619 614 1626 832 1626
L 1165 1626
C 1005 1344 941 1248 723 954
C 1203 774 1402 691 1702 550
C 1376 294 902 83 326 -58
C 429 -205 493 -314 563 -480
C 1325 -224 1715 -19 2112 346
C 2432 173 2502 122 2778 -77
L 3046 339
z
M 2419 1626
C 2310 1306 2214 1120 2022 870
C 1818 960 1709 1005 1357 1146
C 1504 1370 1549 1440 1651 1626
L 2419 1626
z
M 2163 4070
L 2163 4902
C 2163 5075 2170 5203 2189 5325
L 1696 5325
C 1722 5184 1728 5075 1728 4896
L 1728 4070
L 915 4070
C 666 4070 531 4077 390 4102
L 390 3642
C 518 3667 678 3674 902 3674
L 1434 3674
C 1133 3258 864 3034 269 2688
C 410 2566 486 2477 589 2317
C 1184 2739 1408 2963 1747 3494
C 1734 3366 1728 3258 1728 3162
L 1728 2835
C 1728 2752 1722 2662 1702 2586
L 2182 2586
C 2170 2662 2163 2758 2163 2848
L 2163 3168
C 2163 3258 2157 3347 2138 3494
C 2355 3162 2490 3014 2848 2739
C 2989 2970 3002 2982 3130 3110
C 2816 3277 2566 3469 2406 3674
L 2989 3674
C 3200 3674 3309 3667 3418 3648
L 3418 4096
C 3322 4077 3200 4070 2995 4070
L 2163 4070
z
M 570 5056
C 774 4768 896 4550 1024 4211
L 1427 4371
C 1286 4704 1190 4883 960 5210
L 570 5056
z
M 2918 5235
C 2784 4883 2643 4634 2406 4333
L 2790 4147
C 3008 4442 3104 4608 3328 5050
L 2918 5235
z
" transform="scale(0.015625)"/>
       <path id="HiraginoSans-W4-5024" d="M 3840 4282
C 3802 4090 3782 4013 3706 3725
L 3565 3725
C 3322 3725 3181 3731 3034 3744
C 3040 3686 3046 3507 3059 3200
L 3059 1216
C 3059 1018 3053 851 3040 698
C 3296 717 3386 717 3597 717
L 5126 717
C 5338 717 5421 717 5690 698
C 5670 877 5670 1005 5670 1248
L 5670 3136
C 5670 3456 5670 3571 5690 3744
C 5555 3731 5402 3725 5133 3725
L 4166 3725
C 4243 4032 4243 4032 4294 4282
L 5568 4282
C 5773 4282 5946 4275 6144 4250
L 6144 4742
C 5946 4710 5818 4704 5523 4704
L 4378 4704
C 4416 4928 4429 4992 4474 5286
L 3974 5318
C 3955 5030 3942 4934 3910 4704
L 2662 4704
C 2362 4704 2208 4710 2035 4736
L 2035 4256
C 2221 4275 2368 4282 2624 4282
L 3840 4282
z
M 3501 3334
L 5229 3334
L 5229 2861
L 3501 2861
L 3501 3334
z
M 3501 2477
L 5229 2477
L 5229 2003
L 3501 2003
L 3501 2477
z
M 3501 1619
L 5229 1619
L 5229 1107
L 3501 1107
L 3501 1619
z
M 915 288
C 915 -38 902 -243 877 -474
L 1414 -474
C 1389 -256 1382 -26 1382 275
L 1382 3814
C 1600 4288 1651 4429 1798 4883
C 1843 5018 1869 5088 1920 5229
L 1395 5363
C 1357 5062 1299 4864 1152 4461
C 896 3770 595 3258 122 2720
C 218 2592 320 2419 390 2253
C 640 2573 755 2765 934 3104
C 915 2733 915 2656 915 2355
L 915 288
z
M 2451 -499
L 2451 -154
L 5408 -154
C 5690 -154 5869 -166 6080 -192
L 6080 314
C 5907 288 5734 282 5408 282
L 2451 282
L 2451 3098
C 2451 3398 2458 3622 2483 3795
L 1952 3795
C 1978 3603 1990 3398 1990 3104
L 1990 288
C 1990 -96 1984 -282 1958 -499
L 2451 -499
z
" transform="scale(0.015625)"/>
       <path id="HiraginoSans-W4-ff08" d="M 6170 -531
C 5690 -26 5491 256 5280 698
C 5024 1235 4902 1805 4902 2432
C 4902 3059 5024 3629 5280 4166
C 5491 4608 5690 4890 6170 5395
L 5517 5395
C 5139 4947 4966 4685 4774 4275
C 4499 3686 4365 3085 4365 2432
C 4365 1779 4499 1178 4774 589
C 4966 179 5139 -83 5517 -531
L 6170 -531
z
" transform="scale(0.015625)"/>
       <path id="HiraginoSans-W4-6700" d="M 992 2509
L 992 390
C 723 365 531 352 416 352
C 390 352 352 352 307 358
L 416 -134
C 646 -83 717 -70 1344 19
C 1837 83 1837 83 2669 237
L 2669 102
C 2669 -192 2656 -358 2630 -506
L 3149 -506
C 3117 -339 3110 -192 3110 109
L 3110 2509
L 5491 2509
C 5760 2509 5901 2502 6106 2470
L 6106 2944
C 5933 2912 5792 2906 5491 2906
L 915 2906
C 614 2906 474 2912 307 2944
L 307 2470
C 506 2502 646 2509 909 2509
L 992 2509
z
M 1440 2509
L 2669 2509
L 2669 2106
L 1440 2106
L 1440 2509
z
M 1440 1754
L 2669 1754
L 2669 1331
L 1440 1331
L 1440 1754
z
M 1440 979
L 2669 979
L 2669 614
C 2086 512 2003 506 1440 442
L 1440 979
z
M 5504 2138
C 5402 2118 5254 2112 5018 2112
L 3859 2112
C 3597 2112 3456 2118 3315 2138
L 3315 1696
C 3494 1715 3590 1722 3770 1722
L 5165 1722
C 4947 1325 4813 1139 4550 864
C 4301 1126 4166 1331 4000 1702
L 3616 1530
C 3898 986 3962 890 4237 589
C 3917 326 3661 186 3194 0
C 3328 -128 3392 -218 3482 -397
C 3949 -173 4198 -19 4550 282
C 4896 -13 5242 -211 5811 -448
C 5888 -288 5978 -141 6080 -13
C 5562 147 5203 326 4870 576
C 5165 883 5370 1178 5645 1677
C 5690 1773 5709 1798 5754 1862
L 5504 2138
z
M 5370 4621
C 5370 4858 5376 4998 5395 5139
C 5178 5120 5005 5114 4704 5114
L 1741 5114
C 1446 5114 1274 5120 1050 5139
C 1069 4992 1075 4845 1075 4621
L 1075 3744
C 1075 3520 1069 3373 1050 3219
C 1286 3238 1440 3245 1728 3245
L 4749 3245
C 4992 3245 5197 3238 5395 3219
C 5376 3373 5370 3514 5370 3744
L 5370 4621
z
M 1536 4742
L 4909 4742
L 4909 4358
L 1536 4358
L 1536 4742
z
M 1536 4000
L 4909 4000
L 4909 3603
L 1536 3603
L 1536 4000
z
" transform="scale(0.015625)"/>
       <path id="HiraginoSans-W4-9069" d="M 3763 2669
L 3763 2234
L 3520 2234
C 3277 2234 3168 2240 3046 2259
C 3059 2106 3066 1997 3066 1811
L 3066 1152
C 3066 979 3059 845 3046 704
L 3469 704
L 3469 1011
L 4435 1011
C 4602 1011 4742 1005 4864 992
C 4851 1088 4851 1152 4851 1395
L 4851 1798
C 4851 1990 4858 2118 4870 2259
C 4736 2240 4608 2234 4384 2234
L 4166 2234
L 4166 2669
L 4608 2669
C 4838 2669 4966 2662 5158 2643
L 5158 3046
C 4998 3021 4838 3014 4608 3014
L 4166 3014
C 4166 3187 4173 3270 4192 3392
L 3731 3392
C 3757 3264 3763 3168 3763 3014
L 3341 3014
C 3110 3014 2963 3021 2803 3046
L 2803 2643
C 2995 2662 3117 2669 3341 2669
L 3763 2669
z
M 3462 1894
L 4454 1894
L 4454 1357
L 3462 1357
L 3462 1894
z
M 4192 4845
C 4198 5133 4205 5210 4230 5363
L 3680 5363
C 3712 5197 3718 5114 3718 4845
L 2598 4845
C 2291 4845 2099 4858 1926 4883
L 1926 4416
C 2099 4442 2278 4448 2592 4448
L 2854 4448
C 2938 4288 3021 4096 3085 3904
L 2848 3904
C 2477 3904 2336 3910 2144 3923
C 2157 3725 2163 3590 2163 3258
L 2163 1235
C 2163 934 2150 672 2131 499
L 2643 499
C 2624 640 2611 909 2611 1235
L 2611 3526
L 5350 3526
L 5350 1050
C 5350 922 5312 902 5101 902
C 4947 902 4717 915 4582 941
C 4653 762 4666 685 4691 493
C 4832 486 4998 480 5075 480
C 5312 480 5491 499 5594 538
C 5728 582 5798 730 5798 998
L 5798 3238
C 5798 3565 5805 3738 5824 3930
C 5619 3910 5472 3904 5158 3904
L 4832 3904
C 4954 4147 5005 4256 5082 4448
L 5376 4448
C 5658 4448 5818 4442 6016 4416
L 6016 4883
C 5837 4858 5658 4845 5350 4845
L 4192 4845
z
M 3552 3904
C 3482 4115 3411 4282 3328 4448
L 4595 4448
C 4525 4250 4442 4045 4358 3904
L 3552 3904
z
M 371 4909
C 774 4531 1024 4250 1382 3738
L 1766 4090
C 1402 4570 1171 4813 723 5229
L 371 4909
z
M 294 2336
C 442 2362 550 2368 749 2368
L 1133 2368
L 1133 870
C 774 525 442 275 160 147
L 403 -365
C 570 -224 691 -128 774 -58
C 928 58 1126 243 1357 467
C 1549 192 1754 13 2010 -109
C 2374 -282 2758 -326 3885 -326
C 4710 -326 5357 -314 6042 -282
C 6086 -32 6099 13 6202 250
C 5542 166 4646 128 3347 128
C 2605 128 2221 218 1901 461
C 1766 570 1696 659 1606 858
L 1606 2150
C 1606 2477 1613 2630 1632 2835
C 1491 2816 1331 2803 1146 2803
L 794 2803
C 557 2803 448 2810 294 2835
L 294 2336
z
" transform="scale(0.015625)"/>
       <path id="HiraginoSans-W4-ff09" d="M 890 -531
C 1261 -83 1434 179 1626 589
C 1901 1178 2035 1773 2035 2432
C 2035 3091 1901 3686 1626 4275
C 1434 4685 1261 4947 890 5395
L 230 5395
C 710 4890 909 4608 1120 4166
C 1376 3629 1498 3072 1498 2432
C 1498 1792 1376 1235 1120 698
C 909 256 710 -26 230 -531
L 890 -531
z
" transform="scale(0.015625)"/>
      </defs>
      <use xlink:href="#HiraginoSans-W4-76ee"/>
      <use xlink:href="#HiraginoSans-W4-7684" x="99.999985"/>
      <use xlink:href="#HiraginoSans-W4-95a2" x="199.999969"/>
      <use xlink:href="#HiraginoSans-W4-6570" x="299.999954"/>
      <use xlink:href="#HiraginoSans-W4-5024" x="399.999939"/>
      <use xlink:href="#HiraginoSans-W4-ff08" x="499.999924"/>
      <use xlink:href="#HiraginoSans-W4-6700" x="599.999908"/>
      <use xlink:href="#HiraginoSans-W4-9069" x="699.999893"/>
      <use xlink:href="#HiraginoSans-W4-ff09" x="799.999878"/>
     </g>
    </g>
   </g>
   <g id="line2d_27">
    <path d="M 67.444517 21.156761
L 134.602959 113.57914
L 201.7614 183.389191
L 268.919842 230.691747
L 336.078283 278.832222
L 403.236725 300.291989
L 470.395166 300.291989
L 537.553608 300.291989
" clip-path="url(#p83b52fb89a)" style="fill: none; stroke: #1f77b4; stroke-width: 1.5; stroke-linecap: square"/>
    <defs>
     <path id="m1a29202cfd" d="M 0 3
C 0.795609 3 1.55874 2.683901 2.12132 2.12132
C 2.683901 1.55874 3 0.795609 3 0
C 3 -0.795609 2.683901 -1.55874 2.12132 -2.12132
C 1.55874 -2.683901 0.795609 -3 0 -3
C -0.795609 -3 -1.55874 -2.683901 -2.12132 -2.12132
C -2.683901 -1.55874 -3 -0.795609 -3 0
C -3 0.795609 -2.683901 1.55874 -2.12132 2.12132
C -1.55874 2.683901 -0.795609 3 0 3
z
" style="stroke: #1f77b4"/>
    </defs>
    <g clip-path="url(#p83b52fb89a)">
     <use xlink:href="#m1a29202cfd" x="67.444517" y="21.156761" style="fill: #1f77b4; stroke: #1f77b4"/>
     <use xlink:href="#m1a29202cfd" x="134.602959" y="113.57914" style="fill: #1f77b4; stroke: #1f77b4"/>
     <use xlink:href="#m1a29202cfd" x="201.7614" y="183.389191" style="fill: #1f77b4; stroke: #1f77b4"/>
     <use xlink:href="#m1a29202cfd" x="268.919842" y="230.691747" style="fill: #1f77b4; stroke: #1f77b4"/>
     <use xlink:href="#m1a29202cfd" x="336.078283" y="278.832222" style="fill: #1f77b4; stroke: #1f77b4"/>
     <use xlink:href="#m1a29202cfd" x="403.236725" y="300.291989" style="fill: #1f77b4; stroke: #1f77b4"/>
     <use xlink:href="#m1a29202cfd" x="470.395166" y="300.291989" style="fill: #1f77b4; stroke: #1f77b4"/>
     <use xlink:href="#m1a29202cfd" x="537.553608" y="300.291989" style="fill: #1f77b4; stroke: #1f77b4"/>
    </g>
   </g>
   <g id="patch_3">
    <path d="M 43.939063 314.24875
L 43.939063 7.2
" style="fill: none; stroke: #000000; stroke-width: 0.8; stroke-linejoin: miter; stroke-linecap: square"/>
   </g>
   <g id="patch_4">
    <path d="M 561.059062 314.24875
L 561.059062 7.2
" style="fill: none; stroke: #000000; stroke-width: 0.8; stroke-linejoin: miter; stroke-linecap: square"/>
   </g>
   <g id="patch_5">
    <path d="M 43.939063 314.24875
L 561.059062 314.24875
" style="fill: none; stroke: #000000; stroke-width: 0.8; stroke-linejoin: miter; stroke-linecap: square"/>
   </g>
   <g id="patch_6">
    <path d="M 43.939063 7.2
L 561.059062 7.2
" style="fill: none; stroke: #000000; stroke-width: 0.8; stroke-linejoin: miter; stroke-linecap: square"/>
   </g>
  </g>
 </g>
 <defs>
  <clipPath id="p83b52fb89a">
   <rect x="43.939063" y="7.2" width="517.12" height="307.04875"/>
  </clipPath>
 </defs>
</svg>
