<?xml version="1.0" encoding="utf-8" standalone="no"?>
<!DOCTYPE svg PUBLIC "-//W3C//DTD SVG 1.1//EN"
  "http://www.w3.org/Graphics/SVG/1.1/DTD/svg11.dtd">
<svg xmlns:xlink="http://www.w3.org/1999/xlink" width="568.654375pt" height="352.132812pt" viewBox="0 0 568.654375 352.132812" xmlns="http://www.w3.org/2000/svg" version="1.1">
 <metadata>
  <rdf:RDF xmlns:dc="http://purl.org/dc/elements/1.1/" xmlns:cc="http://creativecommons.org/ns#" xmlns:rdf="http://www.w3.org/1999/02/22-rdf-syntax-ns#">
   <cc:Work>
    <dc:type rdf:resource="http://purl.org/dc/dcmitype/StillImage"/>
    <dc:date>2026-07-14T12:06:25.297224</dc:date>
    <dc:format>image/svg+xml</dc:format>
    <dc:creator>
     <cc:Agent>
      <dc:title>Matplotlib v3.10.9, https://matplotlib.org/</dc:title>
     </cc:Agent>
    </dc:creator>
   </cc:Work>
  </rdf:RDF>
 </metadata>
 <defs>
  <style type="text/css">*{stroke-linejoin: round; stroke-linecap: butt}</style>
 </defs>
 <g id="figure_1">
  <g id="patch_1">
   <path d="M 0 352.132812 
L 568.654375 352.132812 
L 568.654375 0 
L 0 0 
z
" style="fill: #ffffff"/>
  </g>
  <g id="axes_1">
   <g id="patch_2">
    <path d="M 41.578125 315.25 
L 561.454375 315.25 
L 561.454375 7.2 
L 41.578125 7.2 
z
" style="fill: #ffffff"/>
   </g>
   <g id="matplotlib.axis_1">
    <g id="xtick_1">
     <g id="line2d_1">
      <path d="M 65.208864 315.25 
L 65.208864 7.2 
" clip-path="url(#p25589f7e96)" style="fill: none; stroke: #b0b0b0; stroke-width: 0.8; stroke-linecap: square"/>
     </g>
     <g id="line2d_2">
      <defs>
       <path id="ma6138c0060" d="M 0 0 
L 0 3.5 
" style="stroke: #000000; stroke-width: 0.8"/>
      </defs>
      <g>
       <use xlink:href="#ma6138c0060" x="65.208864" y="315.25" style="stroke: #000000; stroke-width: 0.8"/>
      </g>
     </g>
     <g id="text_1">
      <!-- 15 -->
      <g transform="translate(59.647926 329.892187) scale(0.1 -0.1)">
       <defs>
        <path id="YuGothic-Regular-31" d="M 2063 4794 
L 2063 481 
L 2925 481 
L 2925 141 
L 744 141 
L 744 481 
L 1666 481 
L 1666 4359 
Q 1259 4081 725 3878 
L 653 4250 
Q 1184 4428 1734 4794 
L 2063 4794 
z
" transform="scale(0.015625)"/>
        <path id="YuGothic-Regular-35" d="M 2906 4728 
L 2906 4375 
L 1016 4375 
L 959 3159 
Q 953 3022 922 2622 
Q 1066 2856 1325 2988 
Q 1556 3103 1819 3103 
Q 2397 3103 2753 2653 
Q 3072 2247 3072 1625 
Q 3072 850 2622 416 
Q 2253 56 1716 56 
Q 772 56 434 909 
L 825 1075 
Q 1059 403 1716 403 
Q 2172 403 2425 766 
Q 2650 1088 2650 1606 
Q 2650 2188 2381 2494 
Q 2147 2756 1759 2756 
Q 1447 2756 1209 2566 
Q 1003 2397 903 2116 
L 569 2169 
L 678 4728 
L 2906 4728 
z
" transform="scale(0.015625)"/>
       </defs>
       <use xlink:href="#YuGothic-Regular-31"/>
       <use xlink:href="#YuGothic-Regular-35" transform="translate(55.615234 0)"/>
      </g>
     </g>
    </g>
    <g id="xtick_2">
     <g id="line2d_3">
      <path d="M 132.72526 315.25 
L 132.72526 7.2 
" clip-path="url(#p25589f7e96)" style="fill: none; stroke: #b0b0b0; stroke-width: 0.8; stroke-linecap: square"/>
     </g>
     <g id="line2d_4">
      <g>
       <use xlink:href="#ma6138c0060" x="132.72526" y="315.25" style="stroke: #000000; stroke-width: 0.8"/>
      </g>
     </g>
     <g id="text_2">
      <!-- 20 -->
      <g transform="translate(127.164322 329.892187) scale(0.1 -0.1)">
       <defs>
        <path id="YuGothic-Regular-32" d="M 459 3597 
Q 588 4228 988 4541 
Q 1325 4806 1819 4806 
Q 2406 4806 2750 4453 
Q 3059 4138 3059 3628 
Q 3059 3219 2838 2875 
Q 2628 2556 2094 2075 
Q 1191 1284 825 494 
L 3066 494 
L 3066 141 
L 422 141 
L 422 456 
Q 819 1406 1806 2309 
Q 2331 2800 2497 3088 
Q 2638 3331 2638 3628 
Q 2638 4038 2378 4263 
Q 2156 4453 1813 4453 
Q 1025 4453 863 3494 
L 459 3597 
z
" transform="scale(0.015625)"/>
        <path id="YuGothic-Regular-30" d="M 1788 4806 
Q 3150 4806 3150 2456 
Q 3150 56 1772 56 
Q 409 56 409 2444 
Q 409 4806 1788 4806 
z
M 1788 4453 
Q 1269 4453 1047 3938 
Q 838 3456 838 2456 
Q 838 1303 1100 819 
Q 1322 409 1772 409 
Q 2291 409 2516 950 
Q 2722 1444 2722 2450 
Q 2722 3591 2456 4059 
Q 2234 4453 1788 4453 
z
" transform="scale(0.015625)"/>
       </defs>
       <use xlink:href="#YuGothic-Regular-32"/>
       <use xlink:href="#YuGothic-Regular-30" transform="translate(55.615234 0)"/>
      </g>
     </g>
    </g>
    <g id="xtick_3">
     <g id="line2d_5">
      <path d="M 200.241656 315.25 
L 200.241656 7.2 
" clip-path="url(#p25589f7e96)" style="fill: none; stroke: #b0b0b0; stroke-width: 0.8; stroke-linecap: square"/>
     </g>
     <g id="line2d_6">
      <g>
       <use xlink:href="#ma6138c0060" x="200.241656" y="315.25" style="stroke: #000000; stroke-width: 0.8"/>
      </g>
     </g>
     <g id="text_3">
      <!-- 25 -->
      <g transform="translate(194.680718 329.892187) scale(0.1 -0.1)">
       <use xlink:href="#YuGothic-Regular-32"/>
       <use xlink:href="#YuGothic-Regular-35" transform="translate(55.615234 0)"/>
      </g>
     </g>
    </g>
    <g id="xtick_4">
     <g id="line2d_7">
      <path d="M 267.758052 315.25 
L 267.758052 7.2 
" clip-path="url(#p25589f7e96)" style="fill: none; stroke: #b0b0b0; stroke-width: 0.8; stroke-linecap: square"/>
     </g>
     <g id="line2d_8">
      <g>
       <use xlink:href="#ma6138c0060" x="267.758052" y="315.25" style="stroke: #000000; stroke-width: 0.8"/>
      </g>
     </g>
     <g id="text_4">
      <!-- 30 -->
      <g transform="translate(262.197114 329.892187) scale(0.1 -0.1)">
       <defs>
        <path id="YuGothic-Regular-33" d="M 463 3922 
Q 641 4378 1013 4606 
Q 1331 4806 1756 4806 
Q 2331 4806 2688 4456 
Q 3003 4150 3003 3694 
Q 3003 3241 2738 2950 
Q 2509 2703 2125 2613 
L 2125 2572 
Q 2625 2459 2884 2116 
Q 3113 1813 3113 1388 
Q 3113 750 2688 378 
Q 2322 56 1769 56 
Q 759 56 372 928 
L 756 1094 
Q 922 700 1191 541 
Q 1419 403 1769 403 
Q 2216 403 2469 703 
Q 2691 966 2691 1375 
Q 2691 1888 2369 2147 
Q 2078 2381 1563 2381 
L 1203 2381 
L 1203 2747 
L 1525 2747 
Q 2072 2747 2350 3025 
Q 2588 3263 2588 3659 
Q 2588 4059 2319 4278 
Q 2094 4459 1747 4459 
Q 1409 4459 1169 4266 
Q 947 4088 847 3769 
L 463 3922 
z
" transform="scale(0.015625)"/>
       </defs>
       <use xlink:href="#YuGothic-Regular-33"/>
       <use xlink:href="#YuGothic-Regular-30" transform="translate(55.615234 0)"/>
      </g>
     </g>
    </g>
    <g id="xtick_5">
     <g id="line2d_9">
      <path d="M 335.274448 315.25 
L 335.274448 7.2 
" clip-path="url(#p25589f7e96)" style="fill: none; stroke: #b0b0b0; stroke-width: 0.8; stroke-linecap: square"/>
     </g>
     <g id="line2d_10">
      <g>
       <use xlink:href="#ma6138c0060" x="335.274448" y="315.25" style="stroke: #000000; stroke-width: 0.8"/>
      </g>
     </g>
     <g id="text_5">
      <!-- 35 -->
      <g transform="translate(329.713511 329.892187) scale(0.1 -0.1)">
       <use xlink:href="#YuGothic-Regular-33"/>
       <use xlink:href="#YuGothic-Regular-35" transform="translate(55.615234 0)"/>
      </g>
     </g>
    </g>
    <g id="xtick_6">
     <g id="line2d_11">
      <path d="M 402.790844 315.25 
L 402.790844 7.2 
" clip-path="url(#p25589f7e96)" style="fill: none; stroke: #b0b0b0; stroke-width: 0.8; stroke-linecap: square"/>
     </g>
     <g id="line2d_12">
      <g>
       <use xlink:href="#ma6138c0060" x="402.790844" y="315.25" style="stroke: #000000; stroke-width: 0.8"/>
      </g>
     </g>
     <g id="text_6">
      <!-- 40 -->
      <g transform="translate(397.229907 329.892187) scale(0.1 -0.1)">
       <defs>
        <path id="YuGothic-Regular-34" d="M 2553 4788 
L 2553 1572 
L 3231 1572 
L 3231 1241 
L 2553 1241 
L 2553 141 
L 2188 141 
L 2188 1241 
L 306 1241 
L 306 1553 
L 1997 4788 
L 2553 4788 
z
M 2188 1572 
L 2188 3488 
Q 2188 3678 2200 4459 
L 2138 4459 
Q 1944 3988 1719 3563 
L 697 1572 
L 2188 1572 
z
" transform="scale(0.015625)"/>
       </defs>
       <use xlink:href="#YuGothic-Regular-34"/>
       <use xlink:href="#YuGothic-Regular-30" transform="translate(55.615234 0)"/>
      </g>
     </g>
    </g>
    <g id="xtick_7">
     <g id="line2d_13">
      <path d="M 470.30724 315.25 
L 470.30724 7.2 
" clip-path="url(#p25589f7e96)" style="fill: none; stroke: #b0b0b0; stroke-width: 0.8; stroke-linecap: square"/>
     </g>
     <g id="line2d_14">
      <g>
       <use xlink:href="#ma6138c0060" x="470.30724" y="315.25" style="stroke: #000000; stroke-width: 0.8"/>
      </g>
     </g>
     <g id="text_7">
      <!-- 45 -->
      <g transform="translate(464.746303 329.892187) scale(0.1 -0.1)">
       <use xlink:href="#YuGothic-Regular-34"/>
       <use xlink:href="#YuGothic-Regular-35" transform="translate(55.615234 0)"/>
      </g>
     </g>
    </g>
    <g id="xtick_8">
     <g id="line2d_15">
      <path d="M 537.823636 315.25 
L 537.823636 7.2 
" clip-path="url(#p25589f7e96)" style="fill: none; stroke: #b0b0b0; stroke-width: 0.8; stroke-linecap: square"/>
     </g>
     <g id="line2d_16">
      <g>
       <use xlink:href="#ma6138c0060" x="537.823636" y="315.25" style="stroke: #000000; stroke-width: 0.8"/>
      </g>
     </g>
     <g id="text_8">
      <!-- 50 -->
      <g transform="translate(532.262699 329.892187) scale(0.1 -0.1)">
       <use xlink:href="#YuGothic-Regular-35"/>
       <use xlink:href="#YuGothic-Regular-30" transform="translate(55.615234 0)"/>
      </g>
     </g>
    </g>
    <g id="text_9">
     <!-- 距離制約 D [km] -->
     <g transform="translate(264.123281 343.340625) scale(0.1 -0.1)">
      <defs>
       <path id="YuGothic-Regular-8ddd" d="M 1622 481 
L 1622 3225 
L 1384 3225 
L 775 3213 
Q 731 3213 731 3256 
L 744 3800 
L 744 4416 
L 731 4959 
Q 731 5003 775 5003 
L 1384 4991 
L 2000 4991 
L 2606 5003 
Q 2650 5003 2650 4959 
L 2638 4416 
L 2638 3800 
L 2650 3256 
Q 2650 3213 2606 3213 
L 2000 3225 
L 1897 3225 
L 1897 2125 
L 2253 2125 
L 2728 2138 
Q 2772 2138 2772 2094 
L 2772 1906 
Q 2772 1863 2728 1863 
L 2253 1875 
L 1897 1875 
L 1897 563 
Q 2441 744 2863 928 
Q 2841 872 2841 738 
Q 2841 656 2825 638 
Q 2813 622 2741 594 
Q 1950 281 847 -25 
Q 672 -69 597 -128 
Q 544 -166 525 -166 
Q 488 -166 463 -116 
Q 391 44 353 159 
Q 534 178 775 244 
L 775 1856 
Q 775 2331 738 2522 
Q 928 2513 1050 2484 
Q 1116 2472 1116 2438 
Q 1116 2397 1081 2322 
Q 1050 2244 1050 1850 
L 1050 313 
Q 1284 375 1622 481 
z
M 1019 4734 
L 1019 3475 
L 2363 3475 
L 2363 4734 
L 1019 4734 
z
M 3463 3494 
L 4891 3494 
L 5609 3506 
Q 5653 3506 5653 3463 
L 5641 2891 
L 5641 2253 
L 5653 1681 
Q 5653 1638 5609 1638 
L 4891 1650 
L 3463 1650 
L 3463 275 
L 5128 275 
L 6063 288 
Q 6100 288 6100 244 
L 6100 31 
Q 6100 -13 6063 -13 
L 5128 0 
L 3463 0 
L 3463 -397 
Q 3463 -441 3419 -441 
L 3206 -441 
Q 3163 -441 3163 -397 
L 3175 909 
L 3175 3659 
L 3163 4966 
Q 3163 5009 3206 5009 
L 4013 4997 
L 5053 4997 
L 5959 5009 
Q 6006 5009 6006 4966 
L 6006 4747 
Q 6006 4709 5959 4709 
L 5053 4722 
L 3463 4722 
L 3463 3494 
z
M 3463 3219 
L 3463 1919 
L 5359 1919 
L 5359 3219 
L 3463 3219 
z
" transform="scale(0.015625)"/>
       <path id="YuGothic-Regular-96e2" d="M 1875 1972 
L 2334 1972 
L 3103 1984 
Q 3153 1984 3153 1941 
L 3141 1269 
L 3141 825 
L 3147 109 
Q 3147 -172 2994 -263 
Q 2888 -322 2784 -338 
Q 2678 -353 2419 -353 
Q 2338 -353 2319 -341 
Q 2303 -325 2284 -263 
Q 2253 -147 2194 -63 
Q 2400 -84 2663 -84 
Q 2884 -84 2884 159 
L 2884 1741 
L 1822 1741 
Q 1744 1347 1588 794 
Q 2059 872 2291 922 
Q 2197 1106 2072 1275 
Q 2063 1288 2063 1297 
Q 2063 1319 2119 1350 
L 2181 1381 
Q 2216 1400 2225 1400 
Q 2241 1400 2259 1375 
Q 2503 1038 2700 569 
Q 2709 550 2709 538 
Q 2709 513 2656 481 
L 2597 441 
Q 2547 413 2531 413 
Q 2516 413 2500 450 
Q 2409 681 2381 744 
Q 1897 616 1453 531 
Q 1266 491 1222 447 
Q 1191 416 1169 416 
Q 1134 416 1100 488 
Q 1081 525 1009 738 
Q 1184 738 1319 756 
L 1331 756 
Q 1466 1219 1566 1741 
L 781 1741 
L 781 294 
L 794 -341 
Q 794 -384 750 -384 
L 550 -384 
Q 506 -384 506 -341 
L 519 288 
L 519 1300 
L 506 1941 
Q 506 1984 550 1984 
L 1319 1972 
L 1613 1972 
Q 1638 2113 1694 2475 
L 1459 2475 
L 769 2463 
Q 725 2463 725 2506 
L 738 3059 
L 738 3475 
Q 738 3916 691 4094 
Q 866 4084 1003 4056 
Q 1047 4047 1047 4013 
Q 1047 3969 1022 3934 
Q 984 3875 984 3475 
L 984 2694 
L 2706 2694 
L 2706 3488 
Q 2706 3941 2669 4094 
Q 2844 4084 2956 4063 
Q 3013 4053 3013 4013 
Q 3013 3988 2981 3922 
Q 2950 3859 2950 3506 
L 2950 3059 
L 2963 2506 
Q 2963 2463 2919 2463 
L 2231 2475 
L 1963 2475 
Q 1903 2169 1875 1972 
z
M 3947 -134 
L 3947 -459 
Q 3947 -500 3903 -500 
L 3709 -500 
Q 3666 -500 3666 -459 
L 3678 322 
L 3678 2778 
Q 3678 3091 3691 3653 
Q 3494 3316 3372 3150 
Q 3322 3091 3300 3091 
Q 3281 3091 3231 3138 
Q 3159 3216 3097 3231 
Q 3663 3925 3978 4850 
Q 4050 5059 4069 5288 
Q 4241 5244 4344 5203 
Q 4406 5172 4406 5138 
Q 4406 5091 4356 5050 
Q 4313 5016 4241 4819 
Q 4084 4416 3947 4147 
L 4791 4147 
Q 4941 4484 5053 4856 
Q 5116 5066 5125 5209 
Q 5306 5166 5400 5119 
Q 5463 5094 5463 5056 
Q 5463 5022 5419 4984 
Q 5375 4953 5309 4781 
Q 5256 4622 5053 4147 
L 5369 4147 
L 6028 4159 
Q 6072 4159 6072 4116 
L 6072 3934 
Q 6072 3891 6028 3891 
L 5369 3903 
L 5022 3903 
L 5022 2881 
L 5181 2881 
L 5841 2894 
Q 5888 2894 5888 2850 
L 5888 2663 
Q 5888 2619 5841 2619 
L 5181 2631 
L 5022 2631 
L 5022 1581 
L 5181 1581 
L 5841 1594 
Q 5888 1594 5888 1550 
L 5888 1363 
Q 5888 1319 5841 1319 
L 5181 1331 
L 5022 1331 
L 5022 122 
L 5363 122 
L 6072 134 
Q 6109 134 6109 91 
L 6109 -103 
Q 6109 -147 6072 -147 
L 5363 -134 
L 3947 -134 
z
M 3947 122 
L 4766 122 
L 4766 1331 
L 3947 1331 
L 3947 122 
z
M 3947 1581 
L 4766 1581 
L 4766 2631 
L 3947 2631 
L 3947 1581 
z
M 3947 2881 
L 4766 2881 
L 4766 3903 
L 3947 3903 
L 3947 2881 
z
M 1700 4684 
L 1700 4794 
Q 1700 5100 1656 5281 
Q 1722 5275 1984 5253 
Q 2053 5244 2053 5203 
Q 2053 5178 2016 5088 
Q 1984 5016 1984 4794 
L 1984 4684 
L 2450 4684 
L 3263 4697 
Q 3306 4697 3306 4647 
L 3306 4472 
Q 3306 4428 3263 4428 
L 2450 4441 
L 1169 4441 
L 350 4428 
Q 313 4428 313 4472 
L 313 4647 
Q 313 4697 350 4697 
L 1169 4684 
L 1700 4684 
z
M 1722 3506 
Q 1584 3622 1328 3794 
Q 1306 3809 1306 3819 
Q 1306 3834 1344 3878 
L 1388 3938 
Q 1413 3966 1434 3966 
Q 1447 3966 1466 3956 
Q 1766 3756 1875 3669 
Q 1991 3791 2084 3916 
Q 2184 4047 2225 4184 
Q 2356 4116 2425 4056 
Q 2469 4013 2469 3988 
Q 2469 3959 2425 3938 
Q 2353 3906 2322 3859 
Q 2181 3675 2047 3531 
Q 2228 3375 2369 3225 
Q 2388 3200 2388 3191 
Q 2388 3172 2347 3122 
L 2297 3059 
Q 2259 3016 2244 3016 
Q 2228 3016 2213 3034 
Q 2063 3213 1881 3372 
Q 1672 3172 1381 2944 
Q 1325 2903 1306 2903 
Q 1281 2903 1241 2950 
Q 1184 3006 1119 3034 
Q 1444 3244 1722 3506 
z
" transform="scale(0.015625)"/>
       <path id="YuGothic-Regular-5236" d="M 1972 4219 
L 1972 4609 
Q 1972 4963 1925 5178 
Q 2109 5172 2259 5141 
Q 2325 5128 2325 5097 
Q 2325 5063 2291 5000 
Q 2253 4916 2253 4622 
L 2253 4219 
L 2669 4219 
L 3372 4231 
Q 3409 4231 3409 4188 
L 3409 3994 
Q 3409 3950 3372 3950 
L 2669 3963 
L 2253 3963 
L 2253 3144 
L 2841 3144 
L 3697 3156 
Q 3744 3156 3744 3113 
L 3744 2919 
Q 3744 2875 3697 2875 
L 2841 2888 
L 2253 2888 
L 2253 2144 
L 2675 2144 
L 3453 2156 
Q 3500 2156 3500 2113 
L 3488 1484 
L 3488 1272 
L 3494 575 
Q 3494 319 3366 206 
Q 3250 116 2853 116 
Q 2778 116 2763 131 
Q 2750 144 2731 213 
Q 2700 328 2638 409 
Q 2844 391 3013 391 
Q 3213 391 3213 594 
L 3213 1894 
L 2253 1894 
L 2253 794 
L 2266 -384 
Q 2266 -428 2222 -428 
L 2003 -428 
Q 1959 -428 1959 -384 
L 1972 788 
L 1972 1894 
L 1019 1894 
L 1019 844 
L 1031 153 
Q 1031 116 988 116 
L 775 116 
Q 731 116 731 153 
L 744 844 
L 744 1522 
L 731 2113 
Q 731 2156 775 2156 
L 1563 2144 
L 1972 2144 
L 1972 2888 
L 1281 2888 
L 422 2875 
Q 378 2875 378 2919 
L 378 3113 
Q 378 3156 422 3156 
L 1281 3144 
L 1972 3144 
L 1972 3963 
L 1141 3963 
Q 953 3603 788 3388 
Q 747 3328 728 3328 
Q 709 3328 653 3366 
Q 575 3422 488 3444 
Q 972 4034 1113 4713 
Q 1138 4822 1147 4928 
Q 1309 4888 1413 4841 
Q 1478 4816 1478 4781 
Q 1478 4756 1441 4719 
Q 1394 4672 1369 4584 
Q 1313 4381 1247 4219 
L 1972 4219 
z
M 4506 6 
Q 4753 -25 5081 -25 
Q 5294 -25 5363 41 
Q 5428 109 5428 300 
L 5428 4397 
Q 5428 4916 5381 5131 
Q 5578 5122 5722 5094 
Q 5794 5084 5794 5050 
Q 5794 5019 5753 4928 
Q 5722 4847 5722 4403 
L 5722 1113 
L 5728 250 
Q 5728 -103 5563 -219 
Q 5453 -288 5325 -306 
Q 5191 -328 4891 -328 
Q 4847 -328 4738 -328 
Q 4663 -328 4647 -313 
Q 4634 -297 4616 -225 
Q 4584 -116 4506 6 
z
M 4113 4666 
Q 4263 4656 4438 4634 
Q 4503 4622 4503 4588 
Q 4503 4584 4472 4488 
Q 4441 4400 4441 3841 
L 4441 2113 
L 4453 1294 
Q 4453 1247 4409 1247 
L 4191 1247 
Q 4147 1247 4147 1294 
L 4159 2113 
L 4159 3828 
Q 4159 4475 4113 4666 
z
" transform="scale(0.015625)"/>
       <path id="YuGothic-Regular-7d04" d="M 1384 3188 
Q 856 3822 416 4184 
Q 391 4206 391 4219 
Q 391 4231 425 4269 
L 506 4366 
Q 547 4413 566 4413 
Q 578 4413 603 4391 
Q 794 4209 878 4128 
Q 1119 4494 1325 4872 
Q 1478 5150 1500 5325 
Q 1647 5269 1794 5184 
Q 1856 5147 1856 5113 
Q 1856 5078 1800 5044 
Q 1738 5003 1691 4916 
Q 1397 4409 1063 3944 
Q 1334 3663 1538 3425 
Q 1766 3778 1953 4103 
Q 2169 4478 2228 4678 
Q 2378 4619 2509 4531 
Q 2566 4497 2566 4459 
Q 2566 4428 2503 4384 
Q 2413 4313 2278 4091 
Q 1703 3166 1178 2472 
Q 1741 2497 2419 2559 
Q 2316 2822 2150 3084 
Q 2141 3100 2141 3113 
Q 2141 3138 2203 3163 
L 2284 3194 
Q 2331 3213 2347 3213 
Q 2366 3213 2381 3188 
Q 2700 2647 2913 2034 
Q 2919 2016 2919 2003 
Q 2919 1978 2869 1959 
L 2747 1913 
Q 2709 1900 2694 1900 
Q 2666 1900 2656 1938 
Q 2609 2097 2516 2344 
Q 2047 2288 1850 2272 
L 1850 569 
L 1863 -397 
Q 1863 -434 1819 -434 
L 1594 -434 
Q 1550 -434 1550 -397 
L 1563 569 
L 1563 2247 
Q 1081 2213 828 2191 
Q 631 2175 578 2138 
Q 538 2113 513 2113 
Q 478 2113 456 2191 
Q 428 2294 403 2478 
Q 578 2456 769 2456 
L 866 2456 
Q 1144 2813 1384 3188 
z
M 3616 4153 
L 5031 4153 
L 5744 4166 
Q 5794 4166 5794 4116 
Q 5781 3959 5781 3641 
Q 5763 1716 5569 569 
Q 5475 44 5306 -172 
Q 5134 -391 4828 -391 
Q 4500 -391 4184 -353 
Q 4103 -341 4084 -322 
Q 4072 -303 4059 -225 
Q 4034 -91 3981 0 
Q 4522 -97 4819 -97 
Q 5031 -97 5144 156 
Q 5225 331 5281 684 
Q 5466 1797 5466 3878 
L 3488 3878 
Q 3247 3416 2925 3013 
Q 2875 2950 2853 2950 
Q 2834 2950 2778 3000 
Q 2709 3069 2619 3109 
Q 3225 3800 3553 4769 
Q 3653 5075 3675 5338 
Q 3856 5300 3994 5247 
Q 4066 5219 4066 5178 
Q 4066 5134 4009 5069 
Q 3931 4978 3859 4763 
Q 3741 4416 3616 4153 
z
M 416 166 
Q 666 700 791 1434 
Q 806 1538 806 1631 
Q 806 1678 800 1728 
Q 947 1709 1044 1684 
Q 1128 1656 1128 1619 
Q 1128 1613 1097 1550 
Q 1075 1516 1050 1369 
Q 953 694 713 116 
Q 681 44 663 44 
Q 650 44 591 91 
Q 522 141 416 166 
z
M 3634 2809 
Q 4131 2288 4481 1606 
Q 4491 1584 4491 1575 
Q 4491 1553 4422 1509 
L 4328 1453 
Q 4256 1413 4238 1413 
Q 4219 1413 4206 1441 
Q 3928 2050 3400 2663 
Q 3384 2681 3384 2694 
Q 3384 2713 3444 2753 
L 3541 2809 
Q 3578 2834 3594 2834 
Q 3613 2834 3634 2809 
z
M 2419 1728 
Q 2459 1738 2466 1738 
Q 2488 1738 2503 1703 
Q 2747 1156 2878 481 
Q 2881 466 2881 456 
Q 2881 422 2828 403 
L 2728 366 
Q 2666 344 2650 344 
Q 2628 344 2619 384 
Q 2494 1050 2266 1619 
Q 2256 1641 2256 1653 
Q 2256 1681 2309 1697 
L 2419 1728 
z
" transform="scale(0.015625)"/>
       <path id="YuGothic-Regular-20" d="M 0 0 
Q 0 0 0 0 
z
" transform="scale(0.015625)"/>
       <path id="YuGothic-Regular-44" d="M 722 4806 
L 2103 4806 
Q 3228 4806 3800 4159 
Q 4319 3572 4319 2497 
Q 4319 1272 3597 653 
Q 3003 141 2022 141 
L 722 141 
L 722 4806 
z
M 1144 4447 
L 1144 500 
L 2009 500 
Q 2941 500 3422 1044 
Q 3872 1553 3872 2491 
Q 3872 4447 2066 4447 
L 1144 4447 
z
" transform="scale(0.015625)"/>
       <path id="YuGothic-Regular-5b" d="M 2200 5459 
L 2200 5222 
L 1209 5222 
L 1209 -356 
L 2200 -356 
L 2200 -588 
L 856 -588 
L 856 5459 
L 2200 5459 
z
" transform="scale(0.015625)"/>
       <path id="YuGothic-Regular-6b" d="M 3078 3341 
L 1947 2131 
L 3175 141 
L 2728 141 
L 1678 1869 
L 1038 1203 
L 1038 141 
L 641 141 
L 641 4891 
L 1038 4891 
L 1038 1644 
L 2594 3341 
L 3078 3341 
z
" transform="scale(0.015625)"/>
       <path id="YuGothic-Regular-6d" d="M 1019 3341 
L 1019 2747 
Q 1519 3419 2100 3419 
Q 2450 3419 2688 3206 
Q 2894 3025 2931 2753 
Q 3419 3419 4019 3419 
Q 4441 3419 4678 3147 
Q 4891 2906 4891 2516 
L 4891 141 
L 4494 141 
L 4494 2350 
Q 4494 3059 3909 3059 
Q 3644 3059 3369 2853 
Q 3138 2678 2956 2394 
L 2956 141 
L 2559 141 
L 2559 2350 
Q 2559 3059 1997 3059 
Q 1731 3059 1463 2863 
Q 1222 2691 1031 2394 
L 1031 141 
L 641 141 
L 641 3341 
L 1019 3341 
z
" transform="scale(0.015625)"/>
       <path id="YuGothic-Regular-5d" d="M 1613 5453 
L 1613 -588 
L 269 -588 
L 269 -356 
L 1259 -356 
L 1259 5222 
L 269 5222 
L 269 5453 
L 1613 5453 
z
" transform="scale(0.015625)"/>
      </defs>
      <use xlink:href="#YuGothic-Regular-8ddd"/>
      <use xlink:href="#YuGothic-Regular-96e2" transform="translate(100 0)"/>
      <use xlink:href="#YuGothic-Regular-5236" transform="translate(200 0)"/>
      <use xlink:href="#YuGothic-Regular-7d04" transform="translate(300 0)"/>
      <use xlink:href="#YuGothic-Regular-20" transform="translate(400 0)"/>
      <use xlink:href="#YuGothic-Regular-44" transform="translate(428.515625 0)"/>
      <use xlink:href="#YuGothic-Regular-20" transform="translate(503.027344 0)"/>
      <use xlink:href="#YuGothic-Regular-5b" transform="translate(531.542969 0)"/>
      <use xlink:href="#YuGothic-Regular-6b" transform="translate(570.166016 0)"/>
      <use xlink:href="#YuGothic-Regular-6d" transform="translate(623.144531 0)"/>
      <use xlink:href="#YuGothic-Regular-5d" transform="translate(709.228516 0)"/>
     </g>
    </g>
   </g>
   <g id="matplotlib.axis_2">
    <g id="ytick_1">
     <g id="line2d_17">
      <path d="M 41.578125 299.156853 
L 561.454375 299.156853 
" clip-path="url(#p25589f7e96)" style="fill: none; stroke: #b0b0b0; stroke-width: 0.8; stroke-linecap: square"/>
     </g>
     <g id="line2d_18">
      <defs>
       <path id="m0a7069ef52" d="M 0 0 
L -3.5 0 
" style="stroke: #000000; stroke-width: 0.8"/>
      </defs>
      <g>
       <use xlink:href="#m0a7069ef52" x="41.578125" y="299.156853" style="stroke: #000000; stroke-width: 0.8"/>
      </g>
     </g>
     <g id="text_10">
      <!-- 1.2 -->
      <g transform="translate(20.878125 302.977946) scale(0.1 -0.1)">
       <defs>
        <path id="YuGothic-Regular-2e" d="M 1147 794 
L 1147 141 
L 506 141 
L 506 794 
L 1147 794 
z
" transform="scale(0.015625)"/>
       </defs>
       <use xlink:href="#YuGothic-Regular-31"/>
       <use xlink:href="#YuGothic-Regular-2e" transform="translate(55.615234 0)"/>
       <use xlink:href="#YuGothic-Regular-32" transform="translate(81.396484 0)"/>
      </g>
     </g>
    </g>
    <g id="ytick_2">
     <g id="line2d_19">
      <path d="M 41.578125 236.492731 
L 561.454375 236.492731 
" clip-path="url(#p25589f7e96)" style="fill: none; stroke: #b0b0b0; stroke-width: 0.8; stroke-linecap: square"/>
     </g>
     <g id="line2d_20">
      <g>
       <use xlink:href="#m0a7069ef52" x="41.578125" y="236.492731" style="stroke: #000000; stroke-width: 0.8"/>
      </g>
     </g>
     <g id="text_11">
      <!-- 1.4 -->
      <g transform="translate(20.878125 240.313825) scale(0.1 -0.1)">
       <use xlink:href="#YuGothic-Regular-31"/>
       <use xlink:href="#YuGothic-Regular-2e" transform="translate(55.615234 0)"/>
       <use xlink:href="#YuGothic-Regular-34" transform="translate(81.396484 0)"/>
      </g>
     </g>
    </g>
    <g id="ytick_3">
     <g id="line2d_21">
      <path d="M 41.578125 173.82861 
L 561.454375 173.82861 
" clip-path="url(#p25589f7e96)" style="fill: none; stroke: #b0b0b0; stroke-width: 0.8; stroke-linecap: square"/>
     </g>
     <g id="line2d_22">
      <g>
       <use xlink:href="#m0a7069ef52" x="41.578125" y="173.82861" style="stroke: #000000; stroke-width: 0.8"/>
      </g>
     </g>
     <g id="text_12">
      <!-- 1.6 -->
      <g transform="translate(20.878125 177.649703) scale(0.1 -0.1)">
       <defs>
        <path id="YuGothic-Regular-36" d="M 3041 4206 
L 2656 4019 
Q 2459 4459 1984 4459 
Q 909 4459 872 2369 
Q 1306 3066 1959 3066 
Q 2516 3066 2847 2622 
Q 3138 2231 3138 1625 
Q 3138 856 2722 422 
Q 2375 56 1850 56 
Q 1184 56 819 653 
Q 475 1209 475 2200 
Q 475 3606 941 4266 
Q 1325 4806 1997 4806 
Q 2716 4806 3041 4206 
z
M 884 1966 
Q 891 1138 1200 731 
Q 1450 403 1850 403 
Q 2284 403 2516 759 
Q 2722 1075 2722 1619 
Q 2722 2166 2469 2459 
Q 2250 2713 1897 2713 
Q 1297 2713 884 1966 
z
" transform="scale(0.015625)"/>
       </defs>
       <use xlink:href="#YuGothic-Regular-31"/>
       <use xlink:href="#YuGothic-Regular-2e" transform="translate(55.615234 0)"/>
       <use xlink:href="#YuGothic-Regular-36" transform="translate(81.396484 0)"/>
      </g>
     </g>
    </g>
    <g id="ytick_4">
     <g id="line2d_23">
      <path d="M 41.578125 111.164488 
L 561.454375 111.164488 
" clip-path="url(#p25589f7e96)" style="fill: none; stroke: #b0b0b0; stroke-width: 0.8; stroke-linecap: square"/>
     </g>
     <g id="line2d_24">
      <g>
       <use xlink:href="#m0a7069ef52" x="41.578125" y="111.164488" style="stroke: #000000; stroke-width: 0.8"/>
      </g>
     </g>
     <g id="text_13">
      <!-- 1.8 -->
      <g transform="translate(20.878125 114.985582) scale(0.1 -0.1)">
       <defs>
        <path id="YuGothic-Regular-38" d="M 2144 2578 
Q 2753 2309 2988 1978 
Q 3181 1706 3181 1306 
Q 3181 684 2738 344 
Q 2363 56 1775 56 
Q 1103 56 719 425 
Q 372 756 372 1291 
Q 372 1728 650 2028 
Q 891 2288 1409 2528 
Q 891 2775 688 3072 
Q 513 3322 513 3688 
Q 513 4209 906 4528 
Q 1253 4806 1772 4806 
Q 2378 4806 2741 4456 
Q 3053 4153 3053 3706 
Q 3053 3288 2825 3022 
Q 2616 2784 2144 2578 
z
M 1831 2725 
Q 2328 2938 2509 3191 
Q 2656 3391 2656 3700 
Q 2656 4072 2381 4288 
Q 2144 4475 1772 4475 
Q 1353 4475 1116 4231 
Q 909 4019 909 3688 
Q 909 3366 1103 3159 
Q 1288 2966 1722 2778 
L 1831 2725 
z
M 1734 2375 
Q 1178 2125 963 1859 
Q 775 1628 775 1306 
Q 775 856 1078 613 
Q 1341 397 1775 397 
Q 2281 397 2550 672 
Q 2778 906 2778 1300 
Q 2778 1663 2550 1897 
Q 2341 2109 1844 2322 
L 1734 2375 
z
" transform="scale(0.015625)"/>
       </defs>
       <use xlink:href="#YuGothic-Regular-31"/>
       <use xlink:href="#YuGothic-Regular-2e" transform="translate(55.615234 0)"/>
       <use xlink:href="#YuGothic-Regular-38" transform="translate(81.396484 0)"/>
      </g>
     </g>
    </g>
    <g id="ytick_5">
     <g id="line2d_25">
      <path d="M 41.578125 48.500367 
L 561.454375 48.500367 
" clip-path="url(#p25589f7e96)" style="fill: none; stroke: #b0b0b0; stroke-width: 0.8; stroke-linecap: square"/>
     </g>
     <g id="line2d_26">
      <g>
       <use xlink:href="#m0a7069ef52" x="41.578125" y="48.500367" style="stroke: #000000; stroke-width: 0.8"/>
      </g>
     </g>
     <g id="text_14">
      <!-- 2.0 -->
      <g transform="translate(20.878125 52.321461) scale(0.1 -0.1)">
       <use xlink:href="#YuGothic-Regular-32"/>
       <use xlink:href="#YuGothic-Regular-2e" transform="translate(55.615234 0)"/>
       <use xlink:href="#YuGothic-Regular-30" transform="translate(81.396484 0)"/>
      </g>
     </g>
    </g>
    <g id="text_15">
     <!-- 目的関数値（最適） -->
     <g transform="translate(15.285938 206.225) rotate(-90) scale(0.1 -0.1)">
      <defs>
       <path id="YuGothic-Regular-76ee" d="M 1578 153 
L 1578 -288 
Q 1578 -334 1528 -334 
L 1303 -334 
Q 1259 -334 1259 -288 
L 1272 1953 
L 1272 3219 
L 1259 4844 
Q 1259 4891 1303 4891 
L 2206 4878 
L 4172 4878 
L 5075 4891 
Q 5119 4891 5119 4844 
L 5106 3378 
L 5106 1966 
L 5119 -269 
Q 5119 -313 5075 -313 
L 4844 -313 
Q 4800 -313 4800 -269 
L 4800 153 
L 1578 153 
z
M 1578 3450 
L 4800 3450 
L 4800 4603 
L 1578 4603 
L 1578 3450 
z
M 1578 3181 
L 1578 1984 
L 4800 1984 
L 4800 3181 
L 1578 3181 
z
M 1578 1716 
L 1578 428 
L 4800 428 
L 4800 1716 
L 1578 1716 
z
" transform="scale(0.015625)"/>
       <path id="YuGothic-Regular-7684" d="M 3653 4103 
L 5094 4103 
L 5813 4116 
Q 5863 4116 5863 4066 
Q 5850 3909 5850 3597 
Q 5841 1659 5638 513 
Q 5550 -9 5381 -225 
Q 5209 -447 4903 -447 
Q 4572 -447 4256 -409 
Q 4181 -397 4166 -381 
Q 4156 -366 4141 -288 
Q 4122 -163 4056 -56 
Q 4559 -147 4828 -147 
Q 4850 -147 4897 -147 
Q 5103 -147 5219 106 
Q 5300 281 5356 628 
Q 5550 1781 5550 3828 
L 3528 3828 
Q 3288 3350 2981 2950 
Q 2931 2884 2909 2884 
Q 2891 2884 2834 2938 
Q 2778 2994 2675 3041 
Q 3269 3756 3597 4713 
Q 3700 5019 3719 5288 
Q 3888 5253 4031 5191 
Q 4109 5159 4109 5116 
Q 4109 5069 4047 5006 
Q 4000 4959 3903 4706 
Q 3781 4384 3653 4103 
z
M 953 347 
L 953 -166 
Q 953 -209 909 -209 
L 703 -209 
Q 659 -209 659 -166 
L 672 1650 
L 672 2738 
L 659 4116 
Q 659 4159 703 4159 
L 1272 4147 
Q 1409 4463 1522 4916 
Q 1575 5119 1575 5278 
Q 1750 5247 1900 5197 
Q 1966 5175 1966 5131 
Q 1966 5091 1922 5056 
Q 1869 5013 1831 4903 
Q 1650 4366 1563 4147 
L 1919 4147 
L 2534 4159 
Q 2578 4159 2578 4116 
L 2566 2894 
L 2566 1722 
L 2578 -38 
Q 2578 -81 2534 -81 
L 2328 -81 
Q 2284 -81 2284 -38 
L 2284 347 
L 953 347 
z
M 953 2425 
L 2284 2425 
L 2284 3891 
L 953 3891 
L 953 2425 
z
M 953 2163 
L 953 609 
L 2284 609 
L 2284 2163 
L 953 2163 
z
M 3738 2809 
Q 4213 2341 4594 1625 
Q 4606 1603 4606 1588 
Q 4606 1572 4544 1522 
L 4422 1434 
Q 4384 1406 4366 1406 
Q 4347 1406 4334 1434 
Q 4038 2072 3516 2656 
Q 3497 2675 3497 2688 
Q 3497 2709 3547 2741 
L 3647 2803 
Q 3688 2828 3703 2828 
Q 3719 2828 3738 2809 
z
" transform="scale(0.015625)"/>
       <path id="YuGothic-Regular-95a2" d="M 3353 1275 
Q 3647 903 4044 691 
Q 4359 525 4856 397 
Q 4775 313 4744 219 
Q 4716 141 4684 141 
Q 4666 141 4609 159 
Q 4081 344 3738 591 
Q 3400 831 3144 1191 
Q 3088 1059 3028 947 
Q 2669 272 1588 -44 
Q 1522 -63 1513 -63 
Q 1488 -63 1441 6 
Q 1372 109 1281 159 
Q 2450 450 2791 1050 
Q 2844 1144 2900 1275 
L 2388 1275 
L 1522 1263 
Q 1478 1263 1478 1306 
L 1478 1488 
Q 1478 1531 1522 1531 
L 2388 1519 
L 2969 1519 
Q 3022 1744 3034 2106 
L 2503 2106 
L 1669 2094 
Q 1625 2094 1625 2141 
L 1625 2313 
Q 1625 2356 1669 2356 
L 2503 2344 
L 2528 2344 
Q 2359 2659 2197 2856 
Q 2178 2878 2178 2891 
Q 2178 2909 2241 2938 
L 2334 2984 
Q 2372 3000 2384 3000 
Q 2400 3000 2419 2978 
Q 2669 2669 2822 2344 
L 3566 2344 
Q 3709 2594 3800 2778 
Q 3866 2922 3891 3041 
Q 4038 3003 4141 2959 
Q 4197 2928 4197 2894 
Q 4197 2863 4153 2831 
Q 4094 2784 4050 2697 
Q 3959 2522 3841 2344 
L 3884 2344 
L 4716 2356 
Q 4763 2356 4763 2313 
L 4763 2141 
Q 4763 2094 4716 2094 
L 3884 2106 
L 3316 2106 
Q 3316 1819 3244 1519 
L 3994 1519 
L 4856 1531 
Q 4903 1531 4903 1488 
L 4903 1306 
Q 4903 1263 4856 1263 
L 3994 1275 
L 3353 1275 
z
M 5453 3281 
L 4203 3281 
L 3519 3269 
Q 3469 3269 3469 3316 
L 3481 3872 
L 3481 4478 
L 3469 5025 
Q 3469 5069 3519 5069 
L 4203 5056 
L 5019 5056 
L 5709 5069 
Q 5753 5069 5753 5025 
L 5741 4094 
L 5741 1088 
L 5753 238 
Q 5753 25 5713 -75 
Q 5678 -159 5594 -219 
Q 5444 -334 4972 -334 
Q 4941 -334 4856 -334 
Q 4781 -334 4769 -319 
Q 4753 -303 4734 -231 
Q 4706 -128 4634 -13 
Q 4847 -41 5088 -41 
Q 5328 -41 5394 31 
Q 5453 94 5453 288 
L 5453 3281 
z
M 5453 3513 
L 5453 4063 
L 3763 4063 
L 3763 3513 
L 5453 3513 
z
M 5453 4294 
L 5453 4813 
L 3763 4813 
L 3763 4294 
L 5453 4294 
z
M 1425 5056 
L 2163 5056 
L 2803 5069 
Q 2847 5069 2847 5025 
L 2834 4453 
L 2834 3897 
L 2847 3316 
Q 2847 3269 2803 3269 
L 2163 3281 
L 972 3281 
L 972 931 
L 984 -359 
Q 984 -406 941 -406 
L 716 -406 
Q 672 -406 672 -359 
L 684 931 
L 684 3697 
L 672 5025 
Q 672 5069 716 5069 
L 1425 5056 
z
M 972 4063 
L 972 3513 
L 2553 3513 
L 2553 4063 
L 972 4063 
z
M 972 4294 
L 2553 4294 
L 2553 4813 
L 972 4813 
L 972 4294 
z
" transform="scale(0.015625)"/>
       <path id="YuGothic-Regular-6570" d="M 2206 3694 
Q 2588 3266 3097 2981 
Q 3009 2928 2950 2841 
Q 2909 2788 2891 2788 
Q 2869 2788 2809 2834 
Q 2350 3194 2047 3622 
Q 2050 3266 2069 2897 
Q 2084 2609 2084 2591 
Q 2084 2547 2041 2547 
L 1822 2547 
Q 1778 2547 1778 2591 
Q 1778 2625 1788 2772 
Q 1813 3216 1816 3603 
Q 1416 2941 600 2369 
Q 541 2322 519 2322 
Q 497 2322 453 2375 
Q 388 2459 313 2497 
Q 1053 2956 1438 3438 
Q 1531 3538 1631 3694 
L 1266 3694 
L 466 3681 
Q 422 3681 422 3725 
L 422 3897 
Q 422 3950 466 3950 
L 1266 3938 
L 1803 3938 
L 1803 4794 
Q 1803 5094 1759 5275 
Q 1922 5266 2066 5241 
Q 2128 5231 2128 5184 
Q 2128 5163 2097 5088 
Q 2066 5025 2066 4788 
L 2066 3938 
L 2456 3938 
L 3256 3950 
Q 3300 3950 3300 3897 
L 3300 3725 
Q 3300 3681 3256 3681 
L 2456 3694 
L 2206 3694 
z
M 1700 1863 
L 2553 1863 
L 3366 1875 
Q 3409 1875 3409 1831 
L 3409 1656 
Q 3409 1613 3366 1613 
Q 3359 1613 3294 1616 
Q 3078 1622 2791 1625 
Q 2556 972 2259 622 
Q 2600 428 2828 263 
Q 2853 247 2853 231 
Q 2853 216 2816 172 
L 2750 91 
Q 2703 19 2678 19 
Q 2666 19 2641 38 
Q 2313 291 2078 428 
Q 1613 -28 672 -353 
Q 616 -372 597 -372 
Q 559 -372 509 -294 
Q 459 -213 375 -159 
Q 1313 100 1841 569 
Q 1378 813 1138 903 
Q 1022 731 984 678 
Q 941 622 903 622 
Q 881 622 844 634 
L 741 672 
Q 678 694 678 719 
Q 678 734 697 756 
Q 831 900 984 1131 
Q 1144 1369 1278 1625 
L 1259 1625 
L 447 1613 
Q 403 1613 403 1656 
L 403 1831 
Q 403 1875 447 1875 
L 1259 1863 
L 1406 1863 
L 1541 2131 
Q 1619 2306 1644 2472 
Q 1806 2428 1919 2381 
Q 1975 2359 1975 2316 
Q 1975 2281 1925 2241 
Q 1884 2206 1778 2009 
Q 1756 1972 1700 1863 
z
M 1572 1625 
Q 1538 1553 1253 1088 
Q 1684 931 2022 747 
Q 2325 1084 2506 1625 
L 1572 1625 
z
M 4100 3944 
L 5309 3944 
L 5997 3956 
Q 6041 3956 6041 3913 
L 6041 3719 
Q 6041 3675 5997 3675 
L 5431 3688 
Q 5306 2163 4759 1256 
Q 5175 656 6169 -94 
Q 6088 -150 6016 -275 
Q 5969 -341 5947 -341 
Q 5928 -341 5875 -300 
Q 5050 381 4600 1013 
Q 4009 163 2981 -381 
Q 2922 -413 2900 -413 
Q 2875 -413 2822 -344 
Q 2759 -253 2663 -203 
Q 3853 366 4441 1269 
Q 3963 2113 3763 3113 
Q 3559 2703 3328 2369 
Q 3291 2313 3269 2313 
Q 3253 2313 3194 2363 
Q 3125 2422 3031 2453 
Q 3706 3313 4050 4700 
Q 4134 5000 4147 5288 
Q 4334 5244 4425 5203 
Q 4503 5175 4503 5128 
Q 4503 5122 4441 5025 
Q 4400 4978 4338 4725 
Q 4228 4328 4100 3944 
z
M 4013 3688 
L 3928 3484 
Q 4156 2334 4588 1531 
Q 5034 2328 5150 3688 
L 4013 3688 
z
M 922 4997 
Q 1159 4709 1322 4331 
Q 1328 4319 1328 4309 
Q 1328 4288 1272 4256 
L 1191 4213 
Q 1138 4181 1119 4181 
Q 1103 4181 1088 4219 
Q 959 4550 716 4863 
Q 700 4888 700 4900 
Q 700 4922 759 4953 
L 844 4997 
Q 878 5019 891 5019 
Q 906 5019 922 4997 
z
M 2431 4206 
Q 2666 4488 2828 4800 
Q 2891 4925 2909 5031 
Q 3069 4972 3150 4922 
Q 3200 4891 3200 4856 
Q 3200 4828 3163 4800 
Q 3103 4756 3059 4691 
Q 2900 4419 2706 4178 
Q 2659 4119 2634 4119 
Q 2613 4119 2553 4153 
Q 2488 4197 2431 4206 
z
" transform="scale(0.015625)"/>
       <path id="YuGothic-Regular-5024" d="M 3738 3572 
Q 3834 3944 3884 4250 
L 3078 4250 
L 2175 4238 
Q 2138 4238 2138 4281 
L 2138 4475 
Q 2138 4519 2175 4519 
L 3078 4506 
L 3928 4506 
Q 3972 4828 3978 4891 
Q 4000 5028 4000 5131 
Q 4000 5194 3994 5256 
Q 4113 5247 4300 5209 
Q 4372 5194 4372 5147 
Q 4372 5122 4338 5069 
Q 4294 5006 4275 4903 
Q 4272 4878 4244 4703 
Q 4225 4588 4209 4506 
L 5081 4506 
L 5978 4519 
Q 6022 4519 6022 4475 
L 6022 4281 
Q 6022 4238 5978 4238 
L 5081 4250 
L 4166 4250 
Q 4081 3816 4019 3572 
L 4691 3572 
L 5400 3584 
Q 5447 3584 5447 3541 
L 5434 2828 
L 5434 1484 
L 5447 781 
Q 5447 738 5400 738 
L 4691 750 
L 3831 750 
L 3116 738 
Q 3072 738 3072 781 
L 3084 1484 
L 3084 2828 
L 3072 3541 
Q 3072 3584 3116 3584 
L 3738 3572 
z
M 3359 2731 
L 5159 2731 
L 5159 3334 
L 3359 3334 
L 3359 2731 
z
M 3359 2494 
L 3359 1881 
L 5159 1881 
L 5159 2494 
L 3359 2494 
z
M 3359 1644 
L 3359 988 
L 5159 988 
L 5159 1644 
L 3359 1644 
z
M 1338 3803 
L 1338 634 
L 1350 -384 
Q 1350 -428 1306 -428 
L 1081 -428 
Q 1038 -428 1038 -384 
L 1050 634 
L 1050 2338 
Q 1050 2831 1069 3322 
Q 788 2866 416 2416 
Q 369 2353 347 2353 
Q 325 2353 294 2406 
Q 231 2516 153 2553 
Q 1066 3578 1503 4884 
Q 1584 5116 1594 5306 
Q 1775 5256 1900 5197 
Q 1959 5169 1959 5119 
Q 1959 5091 1900 5044 
Q 1850 5003 1778 4806 
Q 1591 4297 1338 3803 
z
M 2047 3522 
Q 2203 3513 2375 3488 
Q 2447 3478 2447 3431 
Q 2447 3413 2434 3381 
Q 2419 3344 2413 3322 
Q 2375 3181 2375 2716 
L 2375 238 
L 5131 238 
L 6016 250 
Q 6059 250 6059 206 
L 6059 6 
Q 6059 -38 6016 -38 
L 5131 -25 
L 2375 -25 
L 2375 -359 
Q 2375 -403 2328 -403 
L 2125 -403 
Q 2081 -403 2081 -359 
L 2094 328 
L 2094 2703 
Q 2094 3281 2047 3522 
z
" transform="scale(0.015625)"/>
       <path id="YuGothic-Regular-ff08" d="M 6091 5375 
Q 5263 4638 4934 3869 
Q 4666 3238 4666 2431 
Q 4666 1509 5022 806 
Q 5359 144 6091 -513 
L 5956 -666 
Q 5022 78 4638 872 
Q 4306 1556 4306 2431 
Q 4306 3425 4747 4191 
Q 5138 4872 5956 5528 
L 6091 5375 
z
" transform="scale(0.015625)"/>
       <path id="YuGothic-Regular-6700" d="M 4531 459 
Q 4084 47 3400 -269 
Q 3338 -297 3322 -297 
Q 3291 -297 3247 -225 
Q 3169 -119 3100 -84 
Q 3869 203 4334 631 
Q 3909 1050 3553 1772 
L 3259 1766 
Q 3216 1766 3216 1809 
L 3216 1978 
Q 3216 2022 3259 2022 
L 3950 2009 
L 5122 2009 
Q 5172 2009 5213 2022 
Q 5272 2041 5281 2041 
Q 5325 2041 5403 1969 
Q 5500 1881 5500 1841 
Q 5500 1788 5456 1759 
Q 5409 1731 5328 1566 
Q 5078 1034 4719 644 
Q 5244 238 5997 0 
Q 5919 -81 5869 -159 
Q 5825 -244 5797 -244 
Q 5781 -244 5728 -225 
Q 4991 66 4531 459 
z
M 3828 1778 
Q 4116 1203 4519 819 
Q 4888 1203 5134 1778 
L 3828 1778 
z
M 2153 3256 
L 1234 3244 
Q 1191 3244 1191 3291 
L 1203 3822 
L 1203 4403 
L 1191 4928 
Q 1191 4972 1234 4972 
L 2153 4959 
L 4206 4959 
L 5122 4972 
Q 5166 4972 5166 4928 
L 5153 4403 
L 5153 3822 
L 5166 3291 
Q 5166 3244 5122 3244 
L 4206 3256 
L 2153 3256 
z
M 1494 4006 
L 1494 3494 
L 4872 3494 
L 4872 4006 
L 1494 4006 
z
M 1494 4238 
L 4872 4238 
L 4872 4722 
L 1494 4722 
L 1494 4238 
z
M 2722 341 
Q 1769 150 819 6 
Q 625 -22 584 -53 
Q 544 -78 513 -78 
Q 481 -78 456 -13 
Q 406 106 378 250 
Q 669 250 909 281 
Q 925 284 1050 300 
Q 1131 309 1184 322 
L 1184 2566 
L 391 2553 
Q 347 2553 347 2597 
L 347 2784 
Q 347 2828 391 2828 
L 1216 2816 
L 5178 2816 
L 6006 2828 
Q 6050 2828 6050 2784 
L 6050 2597 
Q 6050 2553 6006 2553 
L 5178 2566 
L 2991 2566 
L 2991 372 
L 3003 -403 
Q 3003 -447 2959 -447 
L 2753 -447 
Q 2709 -447 2709 -403 
L 2722 341 
z
M 2722 569 
L 2722 1031 
L 1459 1031 
L 1459 359 
Q 1669 388 1753 403 
Q 2378 500 2722 569 
z
M 1459 2566 
L 1459 2028 
L 2722 2028 
L 2722 2566 
L 1459 2566 
z
M 1459 1803 
L 1459 1256 
L 2722 1256 
L 2722 1803 
L 1459 1803 
z
" transform="scale(0.015625)"/>
       <path id="YuGothic-Regular-9069" d="M 4378 3725 
Q 4463 3884 4553 4128 
Q 4591 4225 4609 4378 
Q 4766 4344 4894 4294 
Q 4938 4275 4938 4238 
Q 4938 4197 4906 4172 
Q 4847 4125 4816 4044 
Q 4753 3913 4653 3725 
L 4756 3725 
L 5628 3738 
Q 5672 3738 5672 3694 
L 5659 2894 
L 5659 1913 
L 5666 947 
Q 5666 666 5531 563 
Q 5369 453 4897 453 
Q 4825 453 4806 469 
Q 4791 484 4775 550 
Q 4750 663 4688 763 
Q 4866 741 5141 741 
Q 5384 741 5384 991 
L 5384 3488 
L 2547 3488 
L 2547 1363 
L 2559 478 
Q 2559 434 2516 434 
L 2303 434 
Q 2259 434 2259 478 
L 2272 1350 
L 2272 2925 
L 2259 3694 
Q 2259 3738 2303 3738 
L 3169 3725 
L 3272 3725 
Q 3169 4009 3022 4238 
Q 3006 4259 3006 4269 
Q 3006 4284 3066 4313 
L 3169 4359 
Q 3203 4375 3219 4375 
Q 3234 4375 3259 4341 
Q 3425 4081 3553 3725 
L 4378 3725 
z
M 4066 2131 
L 4200 2131 
L 4738 2144 
Q 4781 2144 4781 2100 
L 4769 1700 
L 4769 1422 
L 4781 1022 
Q 4781 978 4738 978 
L 4200 991 
L 3725 991 
L 3188 978 
Q 3144 978 3144 1022 
L 3156 1422 
L 3156 1700 
L 3144 2100 
Q 3144 2144 3188 2144 
L 3725 2131 
L 3816 2131 
L 3816 2638 
L 3528 2638 
L 2856 2622 
Q 2809 2622 2809 2669 
L 2809 2828 
Q 2809 2866 2856 2866 
L 3528 2859 
L 3816 2859 
L 3816 2925 
Q 3816 3191 3778 3353 
Q 3916 3347 4059 3322 
Q 4116 3313 4116 3275 
Q 4116 3238 4097 3200 
Q 4066 3119 4066 2981 
L 4066 2859 
L 4409 2859 
L 5069 2866 
Q 5113 2866 5113 2828 
L 5113 2669 
Q 5113 2622 5069 2622 
L 4409 2638 
L 4066 2638 
L 4066 2131 
z
M 3406 1913 
L 3406 1209 
L 4519 1209 
L 4519 1913 
L 3406 1913 
z
M 3797 4750 
L 3797 4838 
Q 3797 5163 3756 5300 
Q 3969 5288 4084 5269 
Q 4147 5259 4147 5216 
Q 4147 5163 4116 5119 
Q 4084 5063 4084 4884 
L 4084 4750 
L 5031 4750 
L 5934 4763 
Q 5978 4763 5978 4719 
L 5978 4519 
Q 5978 4475 5934 4475 
L 5031 4488 
L 2963 4488 
L 2056 4475 
Q 2009 4475 2009 4519 
L 2009 4719 
Q 2009 4763 2056 4763 
L 2963 4750 
L 3797 4750 
z
M 6194 147 
Q 6128 66 6100 -78 
Q 6084 -156 6066 -169 
Q 6050 -181 5978 -184 
Q 4794 -275 3641 -275 
Q 2503 -275 2047 -56 
Q 1644 138 1447 594 
Q 1194 303 800 -53 
Q 675 -166 659 -194 
Q 634 -244 603 -244 
Q 569 -244 531 -200 
Q 431 -66 372 63 
Q 597 194 763 319 
Q 1019 522 1313 863 
L 1313 2503 
L 825 2503 
L 416 2491 
Q 366 2491 366 2534 
L 366 2747 
Q 366 2791 416 2791 
L 825 2778 
L 1134 2778 
L 1563 2791 
Q 1606 2791 1606 2747 
L 1594 2150 
L 1594 844 
Q 1769 384 2169 184 
Q 2569 13 3475 13 
Q 4778 13 6194 147 
z
M 847 5013 
Q 1213 4653 1547 4128 
Q 1563 4109 1563 4100 
Q 1563 4084 1506 4038 
L 1416 3969 
Q 1363 3931 1341 3931 
Q 1322 3931 1300 3966 
Q 950 4531 628 4844 
Q 609 4866 609 4875 
Q 609 4894 666 4934 
L 750 4997 
Q 791 5031 813 5031 
Q 825 5031 847 5013 
z
" transform="scale(0.015625)"/>
       <path id="YuGothic-Regular-ff09" d="M 306 5375 
L 441 5528 
Q 1375 4784 1759 3991 
Q 2091 3306 2091 2431 
Q 2091 1434 1653 672 
Q 1263 -13 441 -666 
L 306 -513 
Q 1138 231 1463 997 
Q 1731 1625 1731 2431 
Q 1731 3353 1375 4059 
Q 1038 4725 306 5375 
z
" transform="scale(0.015625)"/>
      </defs>
      <use xlink:href="#YuGothic-Regular-76ee"/>
      <use xlink:href="#YuGothic-Regular-7684" transform="translate(100 0)"/>
      <use xlink:href="#YuGothic-Regular-95a2" transform="translate(200 0)"/>
      <use xlink:href="#YuGothic-Regular-6570" transform="translate(300 0)"/>
      <use xlink:href="#YuGothic-Regular-5024" transform="translate(400 0)"/>
      <use xlink:href="#YuGothic-Regular-ff08" transform="translate(500 0)"/>
      <use xlink:href="#YuGothic-Regular-6700" transform="translate(600 0)"/>
      <use xlink:href="#YuGothic-Regular-9069" transform="translate(700 0)"/>
      <use xlink:href="#YuGothic-Regular-ff09" transform="translate(800 0)"/>
     </g>
    </g>
   </g>
   <g id="line2d_27">
    <path d="M 65.208864 21.202273 
L 132.72526 113.92603 
L 200.241656 183.963723 
L 267.758052 231.420528 
L 335.274448 279.717983 
L 402.790844 301.247727 
L 470.30724 301.247727 
L 537.823636 301.247727 
" clip-path="url(#p25589f7e96)" style="fill: none; stroke: #1f77b4; stroke-width: 1.5; stroke-linecap: square"/>
    <defs>
     <path id="mf6333539bd" d="M 0 3 
C 0.795609 3 1.55874 2.683901 2.12132 2.12132 
C 2.683901 1.55874 3 0.795609 3 0 
C 3 -0.795609 2.683901 -1.55874 2.12132 -2.12132 
C 1.55874 -2.683901 0.795609 -3 0 -3 
C -0.795609 -3 -1.55874 -2.683901 -2.12132 -2.12132 
C -2.683901 -1.55874 -3 -0.795609 -3 0 
C -3 0.795609 -2.683901 1.55874 -2.12132 2.12132 
C -1.55874 2.683901 -0.795609 3 0 3 
z
" style="stroke: #1f77b4"/>
    </defs>
    <g clip-path="url(#p25589f7e96)">
     <use xlink:href="#mf6333539bd" x="65.208864" y="21.202273" style="fill: #1f77b4; stroke: #1f77b4"/>
     <use xlink:href="#mf6333539bd" x="132.72526" y="113.92603" style="fill: #1f77b4; stroke: #1f77b4"/>
     <use xlink:href="#mf6333539bd" x="200.241656" y="183.963723" style="fill: #1f77b4; stroke: #1f77b4"/>
     <use xlink:href="#mf6333539bd" x="267.758052" y="231.420528" style="fill: #1f77b4; stroke: #1f77b4"/>
     <use xlink:href="#mf6333539bd" x="335.274448" y="279.717983" style="fill: #1f77b4; stroke: #1f77b4"/>
     <use xlink:href="#mf6333539bd" x="402.790844" y="301.247727" style="fill: #1f77b4; stroke: #1f77b4"/>
     <use xlink:href="#mf6333539bd" x="470.30724" y="301.247727" style="fill: #1f77b4; stroke: #1f77b4"/>
     <use xlink:href="#mf6333539bd" x="537.823636" y="301.247727" style="fill: #1f77b4; stroke: #1f77b4"/>
    </g>
   </g>
   <g id="patch_3">
    <path d="M 41.578125 315.25 
L 41.578125 7.2 
" style="fill: none; stroke: #000000; stroke-width: 0.8; stroke-linejoin: miter; stroke-linecap: square"/>
   </g>
   <g id="patch_4">
    <path d="M 561.454375 315.25 
L 561.454375 7.2 
" style="fill: none; stroke: #000000; stroke-width: 0.8; stroke-linejoin: miter; stroke-linecap: square"/>
   </g>
   <g id="patch_5">
    <path d="M 41.578125 315.25 
L 561.454375 315.25 
" style="fill: none; stroke: #000000; stroke-width: 0.8; stroke-linejoin: miter; stroke-linecap: square"/>
   </g>
   <g id="patch_6">
    <path d="M 41.578125 7.2 
L 561.454375 7.2 
" style="fill: none; stroke: #000000; stroke-width: 0.8; stroke-linejoin: miter; stroke-linecap: square"/>
   </g>
  </g>
 </g>
 <defs>
  <clipPath id="p25589f7e96">
   <rect x="41.578125" y="7.2" width="519.87625" height="308.05"/>
  </clipPath>
 </defs>
</svg>
